<svg width="187" height="54" viewBox="0 0 187 54" fill="none" xmlns="http://www.w3.org/2000/svg">
<path d="M185.961 47.7724C185.961 50.6502 183.581 52.9812 180.636 52.9812H6.37109C3.42799 52.9812 1.03906 50.6502 1.03906 47.7724V6.23446C1.03906 3.35809 3.42799 1.01892 6.37109 1.01892H180.635C183.581 1.01892 185.96 3.35809 185.96 6.23446L185.961 47.7724Z" fill="white"/>
<path d="M180.074 1.08169C183.281 1.08169 185.89 3.62476 185.89 6.75001V47.25C185.89 50.3753 183.281 52.9183 180.074 52.9183H6.92593C3.71922 52.9183 1.10988 50.3753 1.10988 47.25V6.75001C1.10988 3.62476 3.71922 1.08169 6.92593 1.08169H180.074ZM180.074 7.62939e-06H6.92593C3.1184 7.62939e-06 0 3.0392 0 6.75001V47.25C0 50.9608 3.1184 54 6.92593 54H180.074C183.882 54 187 50.9608 187 47.25V6.75001C187 3.0392 183.882 7.62939e-06 180.074 7.62939e-06Z" fill="#A6A6A6"/>
<path d="M41.7325 26.7084C41.6923 22.3573 45.388 20.2405 45.557 20.142C43.4639 17.1679 40.2198 16.7616 39.0798 16.7292C36.3552 16.4497 33.7122 18.3181 32.3243 18.3181C30.9086 18.3181 28.7713 16.7562 26.4677 16.8021C23.5034 16.8466 20.7303 18.5193 19.2093 21.1167C16.0705 26.4127 18.4115 34.1955 21.4187 38.4763C22.923 40.5729 24.6808 42.9138 26.9816 42.8314C29.2325 42.741 30.0734 41.4328 32.7897 41.4328C35.4811 41.4328 36.2707 42.8314 38.6172 42.7788C41.0329 42.741 42.5539 40.6728 44.0055 38.5573C45.7439 36.1543 46.4421 33.7878 46.4698 33.6663C46.413 33.6474 41.7782 31.9234 41.7325 26.7084Z" fill="black"/>
<path d="M37.2999 13.9131C38.5105 12.4375 39.3389 10.4301 39.1089 8.39294C37.3567 8.46854 35.1653 9.57419 33.9034 11.0173C32.7869 12.289 31.7896 14.3734 32.0472 16.3336C34.0156 16.4767 36.0366 15.3657 37.2999 13.9131Z" fill="black"/>
<path d="M67.6258 13.3133C67.6258 14.8345 67.1576 15.9796 66.2227 16.7487C65.3567 17.4582 64.1261 17.8137 62.532 17.8137C61.7416 17.8137 61.0653 17.7801 60.499 17.7128V9.40099C61.2377 9.28467 62.0334 9.22522 62.8927 9.22522C64.4112 9.22522 65.5556 9.54704 66.3275 10.1907C67.1921 10.9183 67.6258 11.9588 67.6258 13.3133ZM66.1604 13.3508C66.1604 12.3646 65.8925 11.6085 65.3567 11.0812C64.821 10.5552 64.0385 10.2915 63.0081 10.2915C62.5705 10.2915 62.1978 10.3199 61.8888 10.3794V16.6983C62.0599 16.7241 62.3729 16.7357 62.8277 16.7357C63.8913 16.7357 64.7122 16.4475 65.2904 15.8711C65.8686 15.2946 66.1604 14.4545 66.1604 13.3508Z" fill="black"/>
<path d="M75.3953 14.6422C75.3953 15.5793 75.1208 16.347 74.5718 16.9493C73.9962 17.5684 73.2337 17.8773 72.2815 17.8773C71.3638 17.8773 70.6331 17.5813 70.088 16.9868C69.5443 16.3935 69.2725 15.6452 69.2725 14.743C69.2725 13.7995 69.5523 13.0254 70.1146 12.4244C70.6769 11.8234 71.4328 11.5222 72.3849 11.5222C73.3026 11.5222 74.04 11.8182 74.5983 12.4114C75.1287 12.9879 75.3953 13.7323 75.3953 14.6422ZM73.9538 14.6862C73.9538 14.124 73.8291 13.6419 73.5811 13.2399C73.2894 12.7539 72.8743 12.511 72.3346 12.511C71.7762 12.511 71.3519 12.7539 71.0601 13.2399C70.8108 13.6419 70.6875 14.1317 70.6875 14.7107C70.6875 15.273 70.8121 15.755 71.0601 16.157C71.3612 16.643 71.7802 16.8859 72.3213 16.8859C72.8517 16.8859 73.2682 16.6391 73.5679 16.1441C73.8251 15.7344 73.9538 15.2484 73.9538 14.6862Z" fill="black"/>
<path d="M85.8135 11.6462L83.8574 17.7389H82.5843L81.774 15.0932C81.5685 14.4328 81.4014 13.7762 81.2714 13.1248H81.2462C81.1255 13.7943 80.9584 14.4496 80.7436 15.0932L79.8829 17.7389H78.5952L76.7559 11.6462H78.1841L78.891 14.5427C79.062 15.2277 79.2026 15.8804 79.3153 16.4982H79.3405C79.444 15.9889 79.615 15.3401 79.8564 14.5556L80.7436 11.6475H81.8761L82.7262 14.4935C82.9317 15.1876 83.0988 15.8558 83.2275 16.4994H83.2659C83.3601 15.8726 83.502 15.2044 83.6903 14.4935L84.4489 11.6475H85.8135V11.6462Z" fill="black"/>
<path d="M93.0187 17.7391H91.6289V14.2494C91.6289 13.1741 91.2098 12.6364 90.3691 12.6364C89.9566 12.6364 89.6238 12.7838 89.3652 13.0797C89.1092 13.3757 88.9793 13.7247 88.9793 14.124V17.7378H87.5894V13.3873C87.5894 12.8523 87.5722 12.2719 87.5391 11.6438H88.7604L88.8254 12.5963H88.8639C89.0257 12.3004 89.267 12.0561 89.584 11.8609C89.9606 11.6335 90.3823 11.5184 90.8438 11.5184C91.4273 11.5184 91.9127 11.702 92.2986 12.0703C92.7787 12.5214 93.0187 13.1948 93.0187 14.0891V17.7391Z" fill="black"/>
<path d="M96.8514 17.7389H95.4629V8.85059H96.8514V17.7389Z" fill="black"/>
<path d="M105.034 14.6422C105.034 15.5793 104.759 16.347 104.21 16.9493C103.635 17.5684 102.871 17.8773 101.92 17.8773C101.001 17.8773 100.27 17.5813 99.7267 16.9868C99.183 16.3935 98.9111 15.6452 98.9111 14.743C98.9111 13.7995 99.191 13.0254 99.7532 12.4244C100.316 11.8234 101.071 11.5222 102.022 11.5222C102.941 11.5222 103.677 11.8182 104.237 12.4114C104.767 12.9879 105.034 13.7323 105.034 14.6422ZM103.591 14.6862C103.591 14.124 103.466 13.6419 103.218 13.2399C102.928 12.7539 102.512 12.511 101.973 12.511C101.414 12.511 100.989 12.7539 100.699 13.2399C100.449 13.6419 100.326 14.1317 100.326 14.7107C100.326 15.273 100.451 15.755 100.699 16.157C101 16.643 101.419 16.8859 101.96 16.8859C102.49 16.8859 102.906 16.6391 103.205 16.1441C103.464 15.7344 103.591 15.2484 103.591 14.6862Z" fill="black"/>
<path d="M111.76 17.739H110.512L110.409 17.0372H110.37C109.943 17.5968 109.335 17.8773 108.544 17.8773C107.954 17.8773 107.477 17.6924 107.117 17.3254C106.791 16.9919 106.628 16.577 106.628 16.0846C106.628 15.3402 106.946 14.7728 107.587 14.3799C108.226 13.9869 109.125 13.7944 110.283 13.8034V13.6897C110.283 12.8871 109.85 12.4864 108.984 12.4864C108.368 12.4864 107.824 12.6376 107.355 12.9375L107.072 12.0482C107.653 11.698 108.37 11.5222 109.217 11.5222C110.85 11.5222 111.67 12.3623 111.67 14.0425V16.2862C111.67 16.895 111.7 17.3797 111.76 17.739ZM110.317 15.6452V14.7056C108.784 14.6797 108.018 15.0894 108.018 15.9334C108.018 16.2513 108.105 16.4892 108.284 16.6481C108.463 16.8071 108.691 16.8859 108.963 16.8859C109.268 16.8859 109.553 16.7916 109.813 16.6042C110.075 16.4155 110.235 16.1764 110.295 15.883C110.309 15.8171 110.317 15.7369 110.317 15.6452Z" fill="black"/>
<path d="M119.657 17.7389H118.424L118.359 16.7605H118.32C117.927 17.5049 117.255 17.8772 116.313 17.8772C115.559 17.8772 114.932 17.5889 114.435 17.0125C113.937 16.4361 113.689 15.6877 113.689 14.7688C113.689 13.7826 113.959 12.9839 114.5 12.3738C115.024 11.8052 115.665 11.5208 116.429 11.5208C117.269 11.5208 117.856 11.7961 118.19 12.348H118.217V8.85059H119.608V16.0974C119.608 16.6907 119.624 17.2374 119.657 17.7389ZM118.217 15.1695V14.1536C118.217 13.9778 118.204 13.8356 118.178 13.7271C118.1 13.4014 117.932 13.1274 117.676 12.9063C117.417 12.6853 117.106 12.5742 116.746 12.5742C116.228 12.5742 115.822 12.7745 115.524 13.1765C115.228 13.5784 115.078 14.0915 115.078 14.7184C115.078 15.3207 115.22 15.8092 115.505 16.1853C115.806 16.586 116.212 16.7863 116.72 16.7863C117.176 16.7863 117.541 16.6196 117.818 16.2848C118.086 15.9759 118.217 15.6037 118.217 15.1695Z" fill="black"/>
<path d="M131.544 14.6422C131.544 15.5793 131.269 16.347 130.72 16.9493C130.145 17.5684 129.383 17.8773 128.43 17.8773C127.514 17.8773 126.783 17.5813 126.236 16.9868C125.693 16.3935 125.421 15.6452 125.421 14.743C125.421 13.7995 125.701 13.0254 126.263 12.4244C126.825 11.8234 127.581 11.5222 128.535 11.5222C129.451 11.5222 130.19 11.8182 130.747 12.4114C131.277 12.9879 131.544 13.7323 131.544 14.6422ZM130.104 14.6862C130.104 14.124 129.979 13.6419 129.731 13.2399C129.438 12.7539 129.024 12.511 128.483 12.511C127.926 12.511 127.502 12.7539 127.209 13.2399C126.959 13.6419 126.836 14.1317 126.836 14.7107C126.836 15.273 126.961 15.755 127.209 16.157C127.51 16.643 127.929 16.8859 128.47 16.8859C129 16.8859 129.418 16.6391 129.718 16.1441C129.974 15.7344 130.104 15.2484 130.104 14.6862Z" fill="black"/>
<path d="M139.016 17.7391H137.628V14.2494C137.628 13.1741 137.209 12.6364 136.367 12.6364C135.954 12.6364 135.621 12.7838 135.364 13.0797C135.107 13.3757 134.978 13.7247 134.978 14.124V17.7378H133.587V13.3873C133.587 12.8523 133.571 12.2719 133.538 11.6438H134.758L134.823 12.5963H134.862C135.025 12.3004 135.266 12.0561 135.582 11.8609C135.96 11.6335 136.38 11.5184 136.843 11.5184C137.425 11.5184 137.91 11.702 138.296 12.0703C138.778 12.5214 139.016 13.1948 139.016 14.0891V17.7391Z" fill="black"/>
<path d="M148.37 12.661H146.839V15.6207C146.839 16.3729 147.111 16.749 147.65 16.749C147.899 16.749 148.106 16.7284 148.269 16.6857L148.305 17.7132C148.03 17.814 147.67 17.8644 147.225 17.8644C146.676 17.8644 146.249 17.7016 145.94 17.3759C145.63 17.0502 145.476 16.5022 145.476 15.7332V12.661H144.562V11.6464H145.476V10.5297L146.838 10.129V11.6451H148.369V12.661H148.37Z" fill="black"/>
<path d="M155.727 17.7389H154.336V14.2751C154.336 13.1829 153.917 12.6362 153.077 12.6362C152.433 12.6362 151.993 12.9529 151.751 13.5862C151.71 13.7193 151.686 13.8822 151.686 14.0734V17.7376H150.298V8.85059H151.686V12.5225H151.713C152.15 11.8543 152.778 11.5208 153.591 11.5208C154.166 11.5208 154.642 11.7043 155.02 12.0727C155.491 12.5315 155.727 13.214 155.727 14.1161V17.7389Z" fill="black"/>
<path d="M163.317 14.4043C163.317 14.6473 163.298 14.8515 163.265 15.0182H159.097C159.115 15.6205 159.314 16.0794 159.7 16.3973C160.053 16.6817 160.508 16.8238 161.065 16.8238C161.682 16.8238 162.244 16.7282 162.75 16.5356L162.968 17.4765C162.375 17.7273 161.678 17.8526 160.87 17.8526C159.902 17.8526 159.139 17.5747 158.588 17.019C158.033 16.4632 157.759 15.7175 157.759 14.7817C157.759 13.8628 158.015 13.0976 158.531 12.4876C159.069 11.8362 159.797 11.5105 160.716 11.5105C161.615 11.5105 162.298 11.8362 162.76 12.4876C163.132 13.0046 163.317 13.6444 163.317 14.4043ZM161.991 14.0541C162.001 13.6521 161.91 13.3057 161.721 13.0136C161.48 12.6375 161.113 12.4488 160.615 12.4488C160.162 12.4488 159.792 12.6324 159.509 13.0007C159.279 13.2941 159.142 13.6444 159.097 14.0541H161.991Z" fill="black"/>
<path d="M74.1369 42.2477H71.0259L69.3217 37.0525H63.3983L61.7749 42.2477H58.7461L64.6147 24.5607H68.2395L74.1369 42.2477ZM68.808 34.8728L67.2669 30.2543C67.1039 29.7825 66.7984 28.6714 66.3477 26.9224H66.2929C66.1134 27.6746 65.8244 28.7857 65.4271 30.2543L63.9134 34.8728H68.808Z" fill="black"/>
<path d="M89.2296 35.7139C89.2296 37.8829 88.6254 39.5974 87.4172 40.856C86.335 41.9764 84.9911 42.5359 83.3869 42.5359C81.6554 42.5359 80.4115 41.9325 79.654 40.7257H79.5992V47.4441H76.6785V33.6924C76.6785 32.3288 76.6415 30.9293 76.5703 29.4939H79.1389L79.3019 31.5154H79.3567C80.3307 29.9923 81.8088 29.2321 83.7924 29.2321C85.3431 29.2321 86.6377 29.8261 87.6733 31.0156C88.7117 32.2065 89.2296 33.7721 89.2296 35.7139ZM86.2541 35.8175C86.2541 34.5762 85.9664 33.5528 85.3884 32.7474C84.7568 31.9074 83.9089 31.4875 82.8458 31.4875C82.1252 31.4875 81.4704 31.7214 80.8855 32.1826C80.2992 32.6477 79.9156 33.2551 79.7361 34.0074C79.6457 34.3582 79.6005 34.6453 79.6005 34.8712V36.9977C79.6005 37.9254 79.8937 38.7082 80.48 39.3475C81.0663 39.9868 81.828 40.3058 82.765 40.3058C83.865 40.3058 84.7212 39.8937 85.3336 39.0724C85.9473 38.2497 86.2541 37.1652 86.2541 35.8175Z" fill="black"/>
<path d="M104.348 35.7139C104.348 37.8829 103.744 39.5974 102.535 40.856C101.454 41.9764 100.11 42.5359 98.5057 42.5359C96.7741 42.5359 95.5303 41.9325 94.7741 40.7257H94.7193V47.4441H91.7987V33.6924C91.7987 32.3288 91.7617 30.9293 91.6904 29.4939H94.259L94.422 31.5154H94.4768C95.4494 29.9923 96.9276 29.2321 98.9125 29.2321C100.462 29.2321 101.756 29.8261 102.795 31.0156C103.829 32.2065 104.348 33.7721 104.348 35.7139ZM101.373 35.8175C101.373 34.5762 101.084 33.5528 100.506 32.7474C99.8742 31.9074 99.029 31.4875 97.9646 31.4875C97.2426 31.4875 96.5892 31.7214 96.0029 32.1826C95.4166 32.6477 95.0344 33.2551 94.8549 34.0074C94.7658 34.3582 94.7193 34.6453 94.7193 34.8712V36.9977C94.7193 37.9254 95.0124 38.7082 95.596 39.3475C96.1823 39.9855 96.944 40.3058 97.8837 40.3058C98.9838 40.3058 99.84 39.8937 100.452 39.0724C101.066 38.2497 101.373 37.1652 101.373 35.8175Z" fill="black"/>
<path d="M121.253 37.2876C121.253 38.7921 120.715 40.0161 119.634 40.9611C118.446 41.9938 116.793 42.5095 114.668 42.5095C112.706 42.5095 111.134 42.1426 109.943 41.4077L110.62 39.0459C111.902 39.7982 113.309 40.1756 114.842 40.1756C115.942 40.1756 116.798 39.9337 117.413 39.4526C118.026 38.9715 118.331 38.3256 118.331 37.5202C118.331 36.8025 118.079 36.1978 117.574 35.7074C117.071 35.2169 116.231 34.7611 115.059 34.3398C111.867 33.1848 110.272 31.4929 110.272 29.2681C110.272 27.8141 110.831 26.6219 111.95 25.6942C113.065 24.7652 114.553 24.3014 116.413 24.3014C118.072 24.3014 119.45 24.5818 120.55 25.1414L119.82 27.4513C118.793 26.909 117.631 26.6379 116.331 26.6379C115.304 26.6379 114.501 26.8837 113.926 27.3728C113.439 27.8101 113.195 28.3431 113.195 28.9744C113.195 29.6734 113.474 30.2516 114.033 30.7061C114.519 31.1261 115.402 31.5806 116.685 32.0711C118.253 32.6837 119.405 33.4001 120.146 34.2215C120.885 35.0402 121.253 36.0649 121.253 37.2876Z" fill="black"/>
<path d="M130.909 31.6205H127.69V37.8126C127.69 39.3876 128.257 40.1744 129.394 40.1744C129.916 40.1744 130.349 40.1305 130.691 40.0428L130.772 42.1945C130.197 42.4032 129.439 42.5082 128.501 42.5082C127.347 42.5082 126.446 42.1666 125.795 41.4848C125.147 40.8017 124.821 39.656 124.821 38.0465V31.6179H122.903V29.4914H124.821V27.1562L127.69 26.3163V29.4914H130.909V31.6205Z" fill="black"/>
<path d="M145.434 35.7656C145.434 37.7259 144.856 39.3354 143.703 40.594C142.493 41.8899 140.888 42.5358 138.886 42.5358C136.957 42.5358 135.422 41.9151 134.276 40.6738C133.131 39.4325 132.559 37.8655 132.559 35.9769C132.559 34.0006 133.148 32.3818 134.33 31.1232C135.509 29.8633 137.101 29.2333 139.103 29.2333C141.031 29.2333 142.584 29.8539 143.755 31.0966C144.875 32.3021 145.434 33.8584 145.434 35.7656ZM142.404 35.8573C142.404 34.6811 142.145 33.6723 141.62 32.831C141.008 31.813 140.133 31.3053 138.998 31.3053C137.824 31.3053 136.933 31.8143 136.32 32.831C135.796 33.6737 135.537 34.6984 135.537 35.9105C135.537 37.0867 135.796 38.0954 136.32 38.9354C136.952 39.9534 137.834 40.4611 138.972 40.4611C140.088 40.4611 140.963 39.9428 141.594 38.9088C142.133 38.0516 142.404 37.0322 142.404 35.8573Z" fill="black"/>
<path d="M154.928 31.9859C154.639 31.934 154.33 31.9074 154.007 31.9074C152.98 31.9074 152.185 32.2836 151.626 33.0371C151.14 33.7017 150.896 34.5416 150.896 35.5557V42.2475H147.977L148.004 33.5103C148.004 32.0404 147.967 30.702 147.895 29.4952H150.438L150.545 31.9354H150.626C150.934 31.0967 151.421 30.4216 152.086 29.9152C152.737 29.4593 153.44 29.2321 154.197 29.2321C154.467 29.2321 154.711 29.2507 154.928 29.2839V31.9859Z" fill="black"/>
<path d="M167.99 35.2677C167.99 35.7754 167.956 36.2033 167.883 36.5529H159.121C159.156 37.8128 159.579 38.7764 160.393 39.4409C161.131 40.035 162.086 40.3327 163.258 40.3327C164.556 40.3327 165.739 40.132 166.804 39.7293L167.261 41.6963C166.017 42.2226 164.549 42.4844 162.854 42.4844C160.816 42.4844 159.216 41.9023 158.052 40.7394C156.89 39.5765 156.308 38.0148 156.308 36.0558C156.308 34.1326 156.849 32.5311 157.932 31.2539C159.067 29.8903 160.6 29.2085 162.528 29.2085C164.423 29.2085 165.857 29.8903 166.831 31.2539C167.602 32.3371 167.99 33.6768 167.99 35.2677ZM165.205 34.5327C165.224 33.6927 165.034 32.9671 164.638 32.3544C164.132 31.5662 163.356 31.1728 162.311 31.1728C161.356 31.1728 160.579 31.5569 159.986 32.3278C159.499 32.9405 159.21 33.6755 159.121 34.5314H165.205V34.5327Z" fill="black"/>
</svg>
