<svg width="239" height="243" viewBox="0 0 239 243" fill="none" xmlns="http://www.w3.org/2000/svg">
<g clip-path="url(#clip0_1232_1676)">
<path d="M211.295 209.188C206.389 214.361 201.742 217.693 198.075 220.331C154.948 251.305 103.923 242.28 93.0784 240.075C77.0671 236.821 46.1106 230.52 23.7277 204.172C-10.1328 164.311 -4.86217 101.504 21.4044 60.0469C26.207 52.4618 51.5807 10.3708 103.16 3.6275C134.377 -0.460104 170.76 7.78454 197.113 29.8802C252.42 76.2672 248.485 169.987 211.295 209.188Z" fill="url(#paint0_linear_1232_1676)"/>
<path d="M163.383 234.877C162.967 234.816 162.594 234.6 162.343 234.261C158.702 229.349 132.236 190.92 167.457 155.789C200.893 122.438 216.055 115.59 218.066 95.994C218.3 93.7029 221.395 93.1561 222.409 95.2216C230.003 110.635 241.845 146.616 202.67 170.231C159.456 196.275 162.993 224.836 165.091 232.951C165.377 234.018 164.484 235.025 163.383 234.877Z" fill="#91B3FA"/>
<path d="M168.749 235.606C167.769 235.476 166.989 234.712 166.833 233.732C165.801 227.049 163.27 202.072 181.648 195.451C201.881 188.161 218.213 207.019 233.08 192.257C233.86 191.476 235.178 192.153 234.987 193.246C233.661 200.961 227.766 218.822 201.534 222.415C173.456 226.26 170.3 229.488 170.864 233.489C171.046 234.721 169.98 235.78 168.749 235.606Z" fill="#91B3FA"/>
<path opacity="0.47" d="M217.103 115.972C216.756 117.43 216.305 118.793 215.759 120.147C215.222 121.501 214.606 122.82 213.939 124.113C212.612 126.699 211.017 129.155 209.275 131.49C205.764 136.15 201.508 140.238 196.826 143.7C194.486 145.427 191.989 147.007 189.519 148.439C187.117 149.836 184.803 151.398 182.584 153.091C178.145 156.475 174.123 160.398 170.577 164.702C163.503 173.32 158.484 183.717 156.828 194.782C155.988 200.302 155.979 205.96 156.733 211.523C157.487 217.095 159.074 222.554 161.163 227.822C161.276 228.099 161.137 228.421 160.859 228.533C160.591 228.646 160.287 228.516 160.157 228.256C157.713 223.057 155.884 217.52 154.869 211.818C154.349 208.963 154.046 206.073 153.959 203.166C153.89 200.259 154.011 197.343 154.375 194.444C155.077 188.655 156.707 182.979 159.065 177.642C161.423 172.296 164.535 167.306 168.176 162.758C171.808 158.202 176.03 154.123 180.642 150.556C182.956 148.777 185.366 147.137 187.889 145.653C190.36 144.238 192.7 142.789 194.971 141.149C199.505 137.912 203.692 134.171 207.29 129.901C209.11 127.784 210.766 125.519 212.274 123.158C213.757 120.789 215.135 118.298 216.132 115.712L216.141 115.677C216.236 115.417 216.531 115.295 216.791 115.391C217.025 115.486 217.155 115.738 217.103 115.972Z" fill="white"/>
<path opacity="0.47" d="M167.579 231.076C167.666 230.833 167.64 230.607 167.631 230.382L167.614 229.696L167.596 228.316C167.596 227.396 167.614 226.485 167.657 225.565C167.735 223.734 167.891 221.903 168.143 220.08C168.645 216.444 169.469 212.816 170.934 209.397C172.382 206.004 174.584 202.758 177.774 200.64C179.36 199.599 181.155 198.861 183.01 198.479C184.865 198.089 186.772 198.028 188.636 198.193C195.944 199.043 203.104 200.441 210.291 201.586C213.871 202.124 217.494 202.593 221.005 202.116C221.881 201.985 222.739 201.794 223.571 201.525C224.395 201.239 225.21 200.901 225.972 200.449C227.498 199.573 228.842 198.384 230.047 197.056C230.211 196.874 230.498 196.856 230.68 197.021C230.862 197.186 230.879 197.464 230.714 197.646C229.501 199.052 228.105 200.345 226.484 201.317C225.678 201.812 224.811 202.202 223.918 202.532C223.025 202.845 222.106 203.07 221.17 203.226C217.425 203.773 213.723 203.305 210.1 202.81C206.468 202.289 202.887 201.621 199.29 201.039C195.701 200.458 192.077 199.894 188.506 199.469C186.746 199.295 184.96 199.338 183.244 199.686C181.519 200.015 179.88 200.684 178.406 201.63C175.442 203.522 173.283 206.533 171.827 209.787C170.344 213.059 169.469 216.609 168.914 220.184C168.637 221.972 168.455 223.786 168.342 225.6C168.29 226.502 168.247 227.414 168.229 228.325L168.221 229.687L168.229 230.364C168.238 230.59 168.221 230.824 168.333 231.033C168.437 231.232 168.359 231.484 168.16 231.588C167.961 231.692 167.709 231.614 167.605 231.414C167.544 231.31 167.544 231.189 167.579 231.076Z" fill="white"/>
<path d="M129.392 2.75991C118.382 2.67313 107.277 4.41752 97.4468 8.50513C74.5784 17.9995 55.1602 43.1413 62.7628 68.8212C65.2334 77.1613 63.9331 86.3693 72.2378 89.9882C76.7283 91.9496 88.96 93.1212 93.6152 91.5677C105.977 87.4628 114.1 76.2153 107.381 63.7442C105.231 59.7521 102.44 56.1071 100.585 51.9674C98.7298 47.8277 97.8803 42.9157 99.7701 38.7933C103.489 30.7049 115.851 28.1274 123.861 28.3704C133.318 28.6568 141.892 33.3432 146.981 41.3796C153.326 51.3946 154.93 63.5793 154.002 75.2C153.005 87.6363 147.769 97.1394 139.915 106.677C133.154 114.896 125.716 122.776 121.217 132.426C117.09 141.279 115.747 151.094 115.556 160.788C115.521 162.663 106.194 180.367 106.228 185.774C106.237 186.537 116.804 189.071 117.576 189.08C121.555 189.124 132.833 189.254 136.985 189.297C137.835 189.306 138.546 188.62 138.554 187.77C138.849 161.465 146.929 136.384 167.387 118.723C174.834 112.292 182.852 107.059 188.634 98.9445C196.887 87.376 200.953 75.9984 199.783 61.7308C198.708 48.6956 194.425 35.6517 185.938 25.5412C176.819 14.6669 163.469 7.88027 149.59 4.94691C143.123 3.58438 136.275 2.81199 129.392 2.75991Z" fill="url(#paint1_linear_1232_1676)"/>
<path d="M149.702 218.787C149.702 230.885 143.001 241.586 130.926 241.586C128.316 241.586 119.439 241.612 117.116 240.77C108.69 237.724 108.664 231.25 108.664 221.764C108.664 209.666 112.747 197.768 124.823 197.768C136.907 197.768 149.702 206.689 149.702 218.787Z" fill="url(#paint2_linear_1232_1676)"/>
<path d="M118.93 -0.000339948C107.92 -0.0871257 96.8155 1.65727 86.985 5.74487C64.1166 15.2479 44.7071 40.3897 52.301 66.0696C54.7716 74.4097 60.4757 84.9108 68.7718 88.5384C73.2622 90.4998 78.4895 90.3696 83.1447 88.8248C95.5065 84.7199 103.629 73.4724 96.9108 61.0013C94.761 57.0092 91.9696 53.3642 90.1145 49.2245C88.2593 45.0848 87.4098 40.1728 89.2996 36.0504C93.0185 27.962 105.38 25.3845 113.39 25.6275C122.848 25.9139 131.421 30.6003 136.51 38.6367C142.856 48.6517 144.459 60.8364 143.532 72.4571C142.535 84.8934 137.299 94.3965 129.445 103.934C122.683 112.153 115.245 120.033 110.746 129.684C106.62 138.536 105.276 148.351 105.086 158.045C105.051 159.92 105.684 179.533 105.718 184.94C105.727 185.704 106.343 186.32 107.105 186.329C111.084 186.372 122.363 186.502 126.515 186.546C127.364 186.554 128.075 185.869 128.084 185.018C128.379 158.713 136.458 133.632 156.917 115.971C164.363 109.541 172.382 104.307 178.164 96.1929C186.417 84.6244 190.482 73.2468 189.312 58.9792C188.237 45.944 183.955 32.9001 175.468 22.7896C166.357 11.9153 153.007 5.12002 139.128 2.19534C132.661 0.824124 125.813 0.06041 118.93 -0.000339948Z" fill="url(#paint3_linear_1232_1676)"/>
<path d="M120.075 240.908C132.159 240.908 141.955 231.101 141.955 219.003C141.955 206.906 132.159 197.099 120.075 197.099C107.99 197.099 98.1943 206.906 98.1943 219.003C98.1943 231.101 107.99 240.908 120.075 240.908Z" fill="url(#paint4_linear_1232_1676)"/>
<path opacity="0.63" d="M59.538 63.5531C59.4079 63.5531 59.2953 63.4664 59.2606 63.3362C57.7262 56.402 57.5008 45.5538 65.1381 33.2042C72.5933 21.1583 83.0392 13.0959 96.2072 9.24264C110.277 5.129 126.982 6.00554 145.862 11.8636C146.01 11.907 146.096 12.0632 146.044 12.2194C146.001 12.3669 145.836 12.4537 145.698 12.4016C109.427 1.14554 80.9934 8.64382 65.6148 33.4992C58.0816 45.684 58.2983 56.3846 59.8067 63.206C59.8414 63.3535 59.746 63.5097 59.59 63.5445C59.5813 63.5531 59.564 63.5531 59.538 63.5531Z" fill="white"/>
<path opacity="0.63" d="M64.1418 74.7048C64.0551 74.7048 63.9684 74.6614 63.9164 74.592C63.847 74.5052 62.2693 72.3182 60.8043 68.4823C60.7523 68.3347 60.8216 68.1785 60.969 68.1178C61.1164 68.0657 61.2724 68.1351 61.3331 68.2827C62.7721 72.0492 64.3585 74.2448 64.3672 74.2622C64.4625 74.3837 64.4279 74.566 64.3065 74.6527C64.2545 74.6875 64.2025 74.7048 64.1418 74.7048Z" fill="white"/>
<path opacity="0.63" d="M127.39 204.806C127.346 204.806 127.303 204.797 127.26 204.771C125.014 203.634 122.596 203.052 120.065 203.052C119.908 203.052 119.787 202.922 119.787 202.775C119.787 202.619 119.908 202.497 120.065 202.497C122.682 202.497 125.188 203.096 127.511 204.276C127.65 204.346 127.702 204.519 127.632 204.658C127.598 204.753 127.494 204.806 127.39 204.806Z" fill="white"/>
<path opacity="0.63" d="M111.014 232.733C110.962 232.733 110.902 232.716 110.858 232.681C106.307 229.6 103.594 224.488 103.594 218.995C103.594 212.911 106.923 207.331 112.289 204.45C112.427 204.38 112.592 204.424 112.67 204.562C112.739 204.701 112.696 204.866 112.557 204.944C107.382 207.73 104.166 213.111 104.166 218.995C104.166 224.297 106.793 229.244 111.188 232.212C111.318 232.299 111.352 232.473 111.266 232.603C111.196 232.69 111.101 232.733 111.014 232.733Z" fill="white"/>
<g opacity="0.3">
<path d="M47.2967 40.9721C47.0626 41.2585 46.6465 41.3019 46.3691 41.0675C45.8143 40.6162 45.2335 40.191 44.644 39.7918C44.3406 39.5922 44.2626 39.1843 44.462 38.8805L44.4706 38.8719C44.6787 38.5681 45.0861 38.49 45.3895 38.6983C46.0137 39.1235 46.6205 39.5748 47.2013 40.0435C47.4701 40.2604 47.5221 40.6423 47.34 40.92C47.3314 40.9374 47.314 40.9547 47.2967 40.9721ZM41.6359 38.0387C40.9944 37.7263 40.3356 37.4312 39.6768 37.1709C39.3387 37.0407 39.1653 36.6501 39.304 36.3117C39.4427 35.9732 39.8241 35.7996 40.1622 35.9385C40.8557 36.2075 41.5492 36.52 42.2254 36.8497C42.5548 37.0146 42.6849 37.4052 42.5288 37.735C42.5202 37.761 42.5028 37.7784 42.4942 37.8044C42.3034 38.0821 41.9393 38.1949 41.6359 38.0387ZM36.3479 36.1294C35.6544 35.9645 34.9436 35.8257 34.2414 35.7215C33.8773 35.6695 33.6346 35.331 33.6866 34.9665C33.7386 34.602 34.0767 34.359 34.4408 34.4111C35.1863 34.5239 35.9318 34.6627 36.66 34.8363C37.0154 34.9231 37.2322 35.2789 37.1541 35.6347C37.1368 35.7129 37.1021 35.7823 37.0675 35.843C36.9114 36.0774 36.6253 36.1989 36.3479 36.1294ZM30.7739 35.4525C30.063 35.4438 29.3435 35.4699 28.6327 35.5219C28.2686 35.548 27.9478 35.2789 27.9218 34.9144C27.8958 34.5499 28.1646 34.2288 28.5286 34.2028C29.2742 34.142 30.037 34.116 30.7825 34.1247C31.1466 34.1247 31.4414 34.4284 31.4414 34.7929C31.4414 34.9231 31.398 35.0446 31.3373 35.1487C31.216 35.331 31.0079 35.4525 30.7739 35.4525ZM25.1825 36.034C24.489 36.1902 23.7868 36.3724 23.1106 36.5807C22.7639 36.6849 22.3911 36.4939 22.2784 36.1468C22.1744 35.7996 22.3651 35.4265 22.7119 35.3136C23.4314 35.088 24.1595 34.8971 24.8964 34.7409C25.2518 34.6627 25.6072 34.8884 25.6853 35.2442C25.7286 35.4265 25.6853 35.6 25.5899 35.7476C25.5032 35.8864 25.3558 35.9906 25.1825 36.034ZM19.8598 37.8391C19.2183 38.1429 18.5768 38.4726 17.9613 38.8285C17.6406 39.0107 17.2418 38.9066 17.0598 38.5855C16.8777 38.2644 16.9817 37.8651 17.3025 37.6829C17.9527 37.3097 18.6288 36.9539 19.305 36.6415C19.6344 36.4852 20.0332 36.6328 20.1892 36.9626C20.2932 37.1795 20.2672 37.4225 20.1459 37.6048C20.0679 37.7002 19.9725 37.7784 19.8598 37.8391ZM4.94072 57.4006C4.57663 57.3485 4.3339 57.0101 4.38591 56.6456C4.49861 55.9079 4.64598 55.1615 4.81936 54.4238C4.90604 54.068 5.26147 53.8511 5.61689 53.9379C5.97231 54.0246 6.18903 54.3805 6.10235 54.7363C5.93764 55.4306 5.79894 56.1422 5.69491 56.8452C5.67757 56.9406 5.6429 57.0274 5.59955 57.1055C5.45218 57.3138 5.20079 57.4353 4.94072 57.4006ZM15.0746 40.7725C14.5111 41.2064 13.965 41.675 13.4449 42.161C13.1761 42.4127 12.76 42.3954 12.5086 42.1263C12.2572 41.8573 12.2746 41.4407 12.5433 41.189C13.0894 40.677 13.6702 40.1823 14.2597 39.7224C14.5458 39.4967 14.9619 39.5488 15.1873 39.8352C15.3693 40.0608 15.3693 40.3732 15.222 40.6076C15.1786 40.677 15.1266 40.7291 15.0746 40.7725ZM6.29306 51.7769C5.95498 51.6467 5.7816 51.2562 5.9203 50.9177C6.1977 50.2234 6.50111 49.5291 6.8392 48.8522C7.00391 48.5224 7.40267 48.3922 7.72342 48.5571C8.05283 48.722 8.18287 49.1212 8.01816 49.4424C7.69741 50.0846 7.41134 50.7441 7.15128 51.4037C7.13394 51.4471 7.1166 51.4818 7.09059 51.5252C6.91722 51.7856 6.5878 51.8984 6.29306 51.7769ZM11.0609 44.7125C10.6101 45.268 10.1854 45.8407 9.77794 46.4309C9.56988 46.7346 9.16245 46.8127 8.85904 46.6045C8.5643 46.4049 8.47761 45.997 8.67699 45.6932L8.68566 45.6845C9.11043 45.0597 9.56121 44.4522 10.0293 43.8707C10.2634 43.5843 10.6795 43.5409 10.9569 43.7752C11.2256 43.9922 11.2776 44.3654 11.0956 44.6518C11.0869 44.6691 11.0783 44.6952 11.0609 44.7125Z" fill="#91B3FA"/>
<path d="M5.31301 61.7484C5.38236 61.6356 5.4257 61.5054 5.41703 61.3665C5.40836 61.0281 5.3997 60.6809 5.40836 60.3338C5.40836 59.9693 5.12229 59.6655 4.74953 59.6655C4.38544 59.6655 4.08203 59.9519 4.08203 60.3251C4.08203 60.6896 4.08203 61.0541 4.0907 61.4099C4.09937 61.7744 4.41145 62.0608 4.77554 62.0521C5.0096 62.0435 5.20031 61.922 5.31301 61.7484Z" fill="#91B3FA"/>
</g>
<g opacity="0.3">
<path d="M13.7742 80.0949C13.9475 79.8259 13.9042 79.4614 13.6615 79.2444C13.4101 79.0188 13.1587 78.7758 12.9073 78.5328C12.6472 78.2724 12.2311 78.2811 11.971 78.5415C11.711 78.8018 11.7196 79.2184 11.9797 79.4787C12.2398 79.7304 12.4998 79.9821 12.7686 80.2251C13.0373 80.4681 13.4621 80.4507 13.7048 80.1817C13.7395 80.147 13.7568 80.121 13.7742 80.0949Z" fill="#91B3FA"/>
<path d="M51.952 76.1205C51.7353 76.4155 51.3279 76.485 51.0245 76.268C50.7297 76.051 50.6604 75.6431 50.8771 75.3394C51.2845 74.7753 51.6746 74.1852 52.0387 73.5777C52.2294 73.2652 52.6369 73.1611 52.949 73.352C53.261 73.5429 53.3651 73.9508 53.1743 74.2633C53.0183 74.5236 52.8536 74.784 52.6889 75.0443C52.4548 75.4088 52.2121 75.7733 51.952 76.1205ZM53.9545 71.3993C53.6165 71.2518 53.4604 70.8613 53.6078 70.5315C53.8852 69.8893 54.1366 69.221 54.362 68.5614C54.4747 68.2143 54.8561 68.0234 55.2029 68.1449C55.5496 68.2577 55.7403 68.6395 55.619 68.9867C55.3849 69.6897 55.1162 70.3839 54.8214 71.0609C54.8041 71.0956 54.7867 71.1303 54.7694 71.1563C54.6047 71.4254 54.2579 71.5295 53.9545 71.3993ZM49.6461 78.8976C49.1347 79.427 48.5972 79.9477 48.0424 80.4424C47.765 80.6854 47.3489 80.6594 47.1062 80.3817C46.8634 80.1039 46.8894 79.6874 47.1668 79.4444C47.6956 78.9757 48.2071 78.4897 48.6839 77.9777C48.9353 77.7173 49.3514 77.7 49.6201 77.9603C49.8542 78.186 49.8889 78.5418 49.7155 78.8022C49.7068 78.8369 49.6808 78.8716 49.6461 78.8976ZM55.7577 66.0099C55.4022 65.9405 55.1595 65.5934 55.2289 65.2375C55.3589 64.5519 55.4629 63.8403 55.5323 63.146C55.5669 62.7815 55.8964 62.5125 56.2605 62.5559C56.6245 62.5906 56.8933 62.9204 56.8499 63.2849C56.7719 64.0225 56.6679 64.7602 56.5292 65.4892C56.5118 65.576 56.4772 65.6541 56.4338 65.7322C56.2951 65.9405 56.0264 66.062 55.7577 66.0099ZM45.1903 82.6381C44.5748 83.046 43.942 83.4365 43.2919 83.7923C42.9711 83.9659 42.5723 83.8531 42.3903 83.532C42.2169 83.2109 42.3296 82.8116 42.6504 82.6294C43.2659 82.2909 43.8727 81.9264 44.4535 81.5359C44.7569 81.3363 45.173 81.4144 45.3724 81.7181C45.5198 81.9438 45.5198 82.2302 45.3724 82.4472C45.329 82.5253 45.2684 82.586 45.1903 82.6381ZM40.015 85.3111C39.3302 85.5714 38.6194 85.8144 37.9085 86.0227C37.5531 86.1269 37.189 85.9186 37.085 85.5714C36.9809 85.2156 37.189 84.8511 37.5357 84.747C38.2119 84.5474 38.8794 84.3217 39.5383 84.07C39.8763 83.9399 40.2664 84.1134 40.3965 84.4519C40.4745 84.6602 40.4485 84.8772 40.3358 85.0507C40.2664 85.1722 40.1537 85.259 40.015 85.3111ZM34.389 86.7951C33.6608 86.8993 32.9153 86.9774 32.1784 87.0294C31.8143 87.0555 31.5022 86.7778 31.4762 86.4133C31.4502 86.0488 31.7276 85.7363 32.0917 85.7103C32.7939 85.6669 33.4961 85.5888 34.1896 85.4847C34.5537 85.4326 34.8918 85.6843 34.9438 86.0401C34.9698 86.205 34.9264 86.3699 34.8484 86.5C34.7444 86.6476 34.5883 86.7604 34.389 86.7951ZM28.5722 87.0034C27.8353 86.9513 27.0898 86.8645 26.3616 86.743C25.9975 86.6823 25.7548 86.3438 25.8155 85.988C25.8762 85.6235 26.2142 85.3805 26.5697 85.4413C27.2632 85.5541 27.9653 85.6322 28.6675 85.6843C29.0316 85.7103 29.309 86.0314 29.283 86.3959C29.2743 86.5087 29.2397 86.6215 29.179 86.7083C29.049 86.8993 28.8236 87.0208 28.5722 87.0034ZM22.8421 85.9359C22.1399 85.719 21.429 85.476 20.7442 85.1983C20.4061 85.0594 20.2414 84.6775 20.3714 84.3391C20.5101 84.0006 20.8916 83.8357 21.2297 83.9659C21.8798 84.2263 22.5473 84.4606 23.2235 84.6689C23.5702 84.773 23.7696 85.1462 23.6656 85.4933C23.6483 85.5541 23.6223 85.6148 23.5876 85.6582C23.4402 85.9012 23.1368 86.0227 22.8421 85.9359ZM17.5021 83.6361C17.0339 83.3671 16.5571 83.0807 16.1064 82.7856C15.9417 82.6815 15.777 82.5686 15.6209 82.4558C15.3175 82.2475 15.2308 81.8397 15.4475 81.5359C15.6556 81.2322 16.063 81.154 16.3664 81.3623C16.5225 81.4665 16.6785 81.5706 16.8346 81.6748C17.268 81.9525 17.7101 82.2302 18.1609 82.4819C18.4816 82.6641 18.5943 83.0633 18.4123 83.3844C18.4036 83.3931 18.3949 83.4105 18.3949 83.4192C18.1956 83.7055 17.8055 83.8097 17.5021 83.6361Z" fill="#91B3FA"/>
<path d="M56.8583 60.0388C56.9277 59.926 56.971 59.7958 56.9623 59.657C56.945 59.3011 56.9277 58.9366 56.9016 58.5721C56.8756 58.2076 56.5549 57.9386 56.1908 57.9646C55.8267 57.9907 55.5493 58.3118 55.584 58.6763C55.61 59.0234 55.6273 59.3706 55.6447 59.709C55.662 60.0735 55.9654 60.3599 56.3295 60.3512C56.5462 60.3339 56.7456 60.2124 56.8583 60.0388Z" fill="#91B3FA"/>
</g>
<path d="M48.5534 52.2886C48.5101 52.1584 48.3974 52.0803 48.2673 52.0716L44.505 51.9848C43.6035 50.4747 42.4505 49.0949 41.0722 47.9232L41.6097 44.1915C41.627 44.0613 41.5663 43.9311 41.4449 43.8704L37.4313 41.8049C37.3099 41.7441 37.1712 41.7615 37.0758 41.8569L34.3538 44.4605C32.5941 44.0179 30.8083 43.879 29.0572 44.0266L26.8033 41.0064C26.7252 40.9023 26.5865 40.8589 26.4652 40.8936L22.1654 42.2735C22.0441 42.3169 21.9574 42.4297 21.9487 42.5599L21.862 46.3264C20.3536 47.229 18.9753 48.3832 17.805 49.7631L14.0774 49.225C13.9474 49.2077 13.8173 49.2684 13.7567 49.3899L11.6935 53.4081C11.6328 53.5296 11.6501 53.6685 11.7455 53.7639L14.3461 56.489C13.904 58.2508 13.7653 60.0385 13.9127 61.7916L10.8959 64.048C10.7919 64.1261 10.7486 64.265 10.7832 64.3865L12.1616 68.6911C12.2049 68.8126 12.3176 68.8994 12.4477 68.908L16.2099 68.9948C17.1115 70.5049 18.2645 71.8848 19.6428 73.0564L19.1053 76.7882C19.088 76.9184 19.1487 77.0485 19.27 77.1093L23.2837 79.1748C23.4051 79.2355 23.5438 79.2182 23.6391 79.1227L26.3612 76.5191C28.1209 76.9618 29.9067 77.1006 31.6578 76.9531L33.9117 79.9732C33.9897 80.0774 34.1284 80.1208 34.2498 80.086L38.5496 78.7061C38.6796 78.6628 38.7576 78.5499 38.7663 78.4197L38.853 74.6533C40.3613 73.7507 41.7397 72.5964 42.91 71.2165L46.6376 71.7546C46.7676 71.772 46.8976 71.7112 46.9583 71.5897L49.0215 67.5715C49.0822 67.45 49.0649 67.3112 48.9695 67.2157L46.3689 64.4906C46.811 62.7289 46.9497 60.9411 46.8023 59.188L49.819 56.9316C49.9231 56.8535 49.9664 56.7146 49.9317 56.5931L48.5534 52.2886Z" fill="#91B3FA"/>
<path d="M33.7551 63.5104C32.0993 65.3936 29.2213 65.5759 27.3488 63.9096C26.4386 63.1025 25.8924 62.0003 25.8231 60.7853C25.7451 59.5703 26.1438 58.4074 26.95 57.4961C28.6058 55.6129 31.4838 55.4306 33.3563 57.0969C35.0641 58.607 35.3675 61.1238 34.1625 62.981C34.0412 63.1633 33.9111 63.3368 33.7551 63.5104ZM26.8807 60.7246C26.9414 61.6532 27.3575 62.5037 28.051 63.1199C29.49 64.3869 31.6919 64.2481 32.9662 62.8074C34.2405 61.3668 34.0932 59.1624 32.6541 57.8867C31.2151 56.6196 29.0132 56.7585 27.7389 58.1991C27.6262 58.3293 27.5222 58.4681 27.4268 58.607C27.0281 59.2319 26.8287 59.9695 26.8807 60.7246Z" fill="#BDD0FB"/>
<path d="M39.6067 66.6343C39.8148 66.3132 40.0055 65.9834 40.1788 65.645C40.2309 65.5408 40.2915 65.428 40.3435 65.3152C40.6036 64.7771 40.8117 64.213 40.9764 63.6402C40.9764 63.6315 40.985 63.6229 40.985 63.6142C40.9937 63.5881 40.9937 63.5708 41.0024 63.5447C41.0111 63.5014 41.0284 63.458 41.0371 63.4146C41.0717 63.3017 41.0197 63.1802 40.9244 63.1195C40.8984 63.1021 40.8724 63.0935 40.8463 63.0848C40.7076 63.0501 40.5603 63.1282 40.5256 63.2757C40.3262 64.0047 40.0575 64.7164 39.7107 65.3933C37.9856 68.7519 34.7175 70.8 31.2153 71.1211C29.2648 71.3034 27.2536 70.9476 25.3898 69.9842C25.0604 69.8194 24.7483 69.6284 24.4449 69.4375C22.399 68.1097 20.882 66.131 20.1278 63.7704C19.2609 61.0627 19.5036 58.1814 20.7953 55.6472C23.4826 50.4227 29.9063 48.3659 35.1162 51.0563C35.437 51.2212 35.7491 51.4034 36.0525 51.603C37.3615 52.4535 38.4624 53.5817 39.286 54.9009C39.3033 54.9356 39.338 54.9616 39.364 54.979C39.4507 55.0311 39.5547 55.0397 39.65 54.979C39.7714 54.9009 39.8148 54.736 39.7367 54.6145C38.8785 53.2259 37.7169 52.037 36.3472 51.1517C36.0351 50.9435 35.7057 50.7525 35.3676 50.579C29.8976 47.7584 23.1446 49.9281 20.3272 55.4042C18.9662 58.0599 18.7148 61.0887 19.625 63.9266C20.4139 66.4 22.0089 68.4829 24.1502 69.8801C24.4709 70.0884 24.8003 70.2793 25.1471 70.4616C27.7997 71.8241 30.8252 72.0758 33.6599 71.1645C36.1392 70.3748 38.211 68.7866 39.6067 66.6343Z" fill="#BDD0FB"/>
<g opacity="0.3">
<path d="M74.2831 31.4681C74.3785 31.3206 74.3698 31.121 74.2484 30.9821C74.0231 30.7218 73.789 30.4614 73.5463 30.2097C73.3902 30.0448 73.1302 30.0448 72.9655 30.2011C72.8008 30.3573 72.8007 30.6176 72.9568 30.7825C73.1908 31.0168 73.4162 31.2685 73.633 31.5202C73.7803 31.6938 74.0404 31.7111 74.2138 31.5636C74.2311 31.5289 74.2571 31.5028 74.2831 31.4681Z" fill="#91B3FA"/>
<path d="M71.9955 29.3159C71.8568 29.4894 71.5967 29.5155 71.4233 29.3766C70.9812 29.0208 70.5131 28.6823 70.0363 28.3699C69.9323 28.3005 69.8369 28.2397 69.7329 28.179C69.5422 28.0575 69.4815 27.8058 69.6029 27.6149C69.7242 27.4413 69.9756 27.3632 70.1663 27.4847C70.2704 27.5541 70.3831 27.6236 70.4871 27.6843C70.9899 28.0141 71.4753 28.3699 71.9435 28.7431C72.1082 28.8733 72.1428 29.1076 72.0301 29.2812C72.0128 29.2898 72.0041 29.2985 71.9955 29.3159ZM67.9038 27.1896C67.2796 26.9032 66.6294 26.6429 65.9706 26.4346C65.7539 26.3652 65.6412 26.1395 65.7019 25.9226C65.7712 25.7056 66.0053 25.5928 66.2133 25.6535C66.8982 25.8705 67.583 26.1395 68.2419 26.4433C68.4499 26.5387 68.5366 26.7817 68.4412 26.99C68.4326 27.0074 68.4239 27.0247 68.4152 27.0421C68.3025 27.207 68.0858 27.2764 67.9038 27.1896ZM63.9508 25.9226C63.2746 25.7924 62.5811 25.7056 61.8876 25.6622C61.6622 25.6448 61.4888 25.4539 61.5062 25.2283C61.5235 25.0026 61.7142 24.8291 61.9396 24.8464C62.6591 24.8898 63.3873 24.9853 64.0982 25.1154C64.3235 25.1588 64.4622 25.3671 64.4276 25.5928C64.4189 25.6448 64.3929 25.6969 64.3669 25.7403C64.2802 25.8792 64.1242 25.9486 63.9508 25.9226ZM59.8157 25.6622C59.1222 25.7056 58.4287 25.7924 57.7526 25.9226C57.5272 25.9659 57.3191 25.8184 57.2758 25.5928C57.2324 25.3671 57.3798 25.1588 57.6052 25.1154C58.316 24.9853 59.0442 24.8898 59.7637 24.8464C59.9891 24.8291 60.1798 25.0026 60.1972 25.2283C60.2058 25.3151 60.1798 25.4018 60.1278 25.4799C60.0671 25.5841 59.9458 25.6535 59.8157 25.6622ZM55.7414 26.4259C55.0825 26.6342 54.4324 26.8859 53.8082 27.1723C53.6002 27.2677 53.3575 27.1723 53.2621 26.9727C53.1667 26.7644 53.2534 26.5214 53.4615 26.4259C54.1203 26.1222 54.8051 25.8618 55.49 25.6362C55.7067 25.5667 55.9321 25.6882 56.0014 25.9052C56.0361 26.0267 56.0188 26.1569 55.9581 26.2523C55.9061 26.3391 55.8367 26.3999 55.7414 26.4259ZM51.9704 28.1529C51.381 28.5174 50.8175 28.9167 50.28 29.3506C50.1066 29.4894 49.8466 29.4634 49.7079 29.2898C49.5692 29.1163 49.5952 28.8559 49.7685 28.7171C50.332 28.2658 50.9302 27.8405 51.5457 27.4587C51.7364 27.3372 51.9878 27.3979 52.1091 27.5888C52.1958 27.7277 52.1872 27.9013 52.1005 28.0314C52.0745 28.0835 52.0311 28.1269 51.9704 28.1529ZM48.7456 30.7565C48.2688 31.2512 47.8094 31.7806 47.3933 32.336C47.2546 32.5183 47.0032 32.553 46.8211 32.4141C46.6391 32.2753 46.6044 32.0236 46.7431 31.8413C47.1766 31.2599 47.6534 30.7044 48.1561 30.1837C48.3122 30.0188 48.5722 30.0188 48.737 30.1751C48.8757 30.3139 48.9017 30.5309 48.7976 30.6958C48.7803 30.7131 48.763 30.7392 48.7456 30.7565ZM44.7926 36.1459C44.5846 36.0591 44.4892 35.8161 44.5759 35.6078C44.8186 35.0351 45.096 34.4623 45.4081 33.9068C45.4515 33.8201 45.5035 33.7419 45.5468 33.6552C45.6508 33.4556 45.9109 33.3948 46.1016 33.5076C46.301 33.6205 46.3617 33.8721 46.249 34.0631C46.2057 34.1412 46.1623 34.2193 46.119 34.2974C45.8242 34.8268 45.5555 35.3735 45.3301 35.9203C45.3214 35.9463 45.3128 35.9637 45.2954 35.981C45.1914 36.1546 44.9747 36.224 44.7926 36.1459Z" fill="#91B3FA"/>
</g>
<g opacity="0.3">
<path d="M75.515 52.34C75.1162 52.9302 74.6828 53.5029 74.2233 54.0497C74.076 54.2233 73.8159 54.2406 73.6425 54.0931C73.4692 53.9456 73.4518 53.6852 73.5992 53.5116C74.0413 52.9996 74.4574 52.4528 74.8302 51.8801C74.9515 51.6891 75.2116 51.6457 75.3936 51.7672C75.5844 51.8887 75.6364 52.1404 75.515 52.34C75.515 52.3313 75.515 52.3313 75.515 52.34ZM76.0438 50.6651C75.8444 50.5609 75.7577 50.3179 75.8618 50.1183C76.1652 49.5108 76.4426 48.8773 76.6766 48.2437C76.7546 48.0355 76.9887 47.9226 77.1968 48.0007C77.4048 48.0788 77.5175 48.3132 77.4395 48.5214C77.1968 49.1897 76.9107 49.8493 76.5899 50.4915C76.5813 50.5088 76.5726 50.5175 76.5639 50.5262C76.4599 50.6998 76.2345 50.7605 76.0438 50.6651ZM72.7236 55.5771C72.1948 56.0545 71.6314 56.5057 71.0505 56.9223C70.8685 57.0525 70.6084 57.0091 70.4784 56.8268C70.3484 56.6446 70.3917 56.3842 70.5738 56.2541C71.1286 55.8635 71.666 55.4296 72.1688 54.9696C72.3335 54.8134 72.5936 54.8308 72.7496 54.9957C72.8797 55.1345 72.8883 55.3428 72.793 55.4903C72.7756 55.5251 72.7496 55.5511 72.7236 55.5771ZM77.5695 46.7684C77.3528 46.7163 77.2141 46.4993 77.2661 46.2737C77.4221 45.6141 77.5348 44.9285 77.6042 44.2603C77.6302 44.0346 77.8296 43.8697 78.055 43.8958C78.2804 43.9218 78.4451 44.1214 78.4191 44.3471C78.341 45.0587 78.2283 45.7703 78.0636 46.4646C78.055 46.5167 78.0376 46.5601 78.0116 46.5948C77.9076 46.7337 77.7342 46.8118 77.5695 46.7684ZM69.2388 58.0505C68.6146 58.389 67.9558 58.6927 67.2969 58.9531C67.0889 59.0399 66.8462 58.9357 66.7681 58.7188C66.6814 58.5105 66.7855 58.2675 67.0022 58.1894C67.635 57.9377 68.2592 57.6513 68.8573 57.3302C69.0567 57.2261 69.3081 57.2955 69.4121 57.4951C69.4815 57.634 69.4728 57.7902 69.3948 57.9117C69.3515 57.9724 69.2994 58.0158 69.2388 58.0505ZM65.2598 59.6127C64.5662 59.7949 63.8641 59.9251 63.1619 60.0206C62.9365 60.0466 62.7285 59.8904 62.7024 59.6647C62.6764 59.4391 62.8325 59.2308 63.0579 59.2048C63.7254 59.118 64.4015 58.9791 65.0604 58.8142C65.2771 58.7535 65.5025 58.8923 65.5545 59.1093C65.5805 59.2221 65.5632 59.3436 65.5025 59.4391C65.4505 59.5259 65.3638 59.5866 65.2598 59.6127ZM61.0207 60.1768C60.3099 60.1855 59.5903 60.1507 58.8795 60.0726C58.6541 60.0466 58.4894 59.847 58.5154 59.6213C58.5414 59.3957 58.7408 59.2308 58.9662 59.2568C59.6423 59.3349 60.3272 59.3697 61.0034 59.361C61.2287 59.361 61.4108 59.5432 61.4195 59.7689C61.4195 59.8557 61.3935 59.9338 61.3501 59.9945C61.2894 60.0987 61.1681 60.1768 61.0207 60.1768Z" fill="#91B3FA"/>
<path d="M78.4365 42.4119C78.4798 42.3425 78.5058 42.2644 78.5058 42.1776C78.4972 41.8304 78.4798 41.4746 78.4538 41.1361C78.4365 40.9105 78.2371 40.7456 78.0117 40.763C77.7863 40.7803 77.6216 40.9799 77.6389 41.2056C77.665 41.5354 77.6823 41.8651 77.691 42.2036C77.691 42.4293 77.8817 42.6115 78.1071 42.6028C78.2371 42.5941 78.3671 42.5247 78.4365 42.4119Z" fill="#91B3FA"/>
</g>
<path d="M72.8974 36.9358C72.8714 36.849 72.7934 36.7969 72.7067 36.7882L70.1841 36.7362C69.5773 35.7294 68.8057 34.8008 67.8868 34.0198L68.2423 31.5203C68.2509 31.4335 68.2076 31.3468 68.1296 31.3034L65.4422 29.9148C65.3642 29.8714 65.2688 29.8888 65.2082 29.9495L63.3877 31.6939C62.2087 31.3988 61.0124 31.3034 59.8421 31.3988L58.3424 29.3941C58.2904 29.3247 58.1951 29.2899 58.117 29.3247L55.239 30.2446C55.1523 30.2706 55.1003 30.3487 55.0916 30.4355L55.0396 32.961C54.034 33.5685 53.1064 34.3409 52.3263 35.2608L49.8296 34.905C49.7429 34.8963 49.6563 34.9397 49.6129 35.0178L48.2259 37.7082C48.1825 37.7863 48.1999 37.8817 48.2606 37.9425L50.003 39.765C49.7083 40.9453 49.6129 42.1429 49.7083 43.3145L47.6884 44.8246C47.6191 44.8767 47.5844 44.9721 47.6191 45.0502L48.538 47.9315C48.564 48.0183 48.642 48.0704 48.7287 48.079L51.2513 48.1311C51.8581 49.1378 52.6297 50.0664 53.5486 50.8475L53.1931 53.3469C53.1845 53.4337 53.2278 53.5205 53.3058 53.5639L55.9932 54.9525C56.0712 54.9959 56.1666 54.9785 56.2272 54.9178L58.0477 53.1734C59.2267 53.4684 60.423 53.5639 61.5932 53.4684L63.1016 55.4905C63.1536 55.56 63.249 55.5947 63.327 55.56L66.2051 54.64C66.2918 54.614 66.3438 54.5359 66.3524 54.4491L66.4045 51.9237C67.41 51.3162 68.3376 50.5438 69.1178 49.6238L71.6144 49.9797C71.7011 49.9883 71.7878 49.9449 71.8312 49.8668L73.2182 47.1765C73.2615 47.0984 73.2442 47.0029 73.1835 46.9422L71.4411 45.1197C71.7358 43.9394 71.8312 42.7417 71.7358 41.5701L73.7556 40.06C73.825 40.008 73.8597 39.9125 73.825 39.8344L72.8974 36.9358Z" fill="#91B3FA"/>
<path d="M63.0418 44.4776C62.4957 45.1025 61.7415 45.467 60.918 45.519C60.0944 45.5711 59.2969 45.3021 58.6814 44.7553C57.3984 43.6271 57.2771 41.6658 58.404 40.3813C59.531 39.0969 61.4901 38.9754 62.7731 40.1036C63.3886 40.6504 63.7614 41.4054 63.8134 42.2299C63.8567 42.8981 63.6833 43.549 63.3279 44.1044C63.2412 44.2433 63.1459 44.3648 63.0418 44.4776ZM59.2189 44.1391C59.6783 44.5384 60.2591 44.738 60.866 44.7033C61.4728 44.6685 62.0276 44.3908 62.4264 43.9395C62.8251 43.4796 63.0245 42.8981 62.9898 42.2906C62.9552 41.6831 62.6778 41.1277 62.227 40.7285C61.2821 39.8953 59.843 39.9908 59.0195 40.9281C58.9415 41.0149 58.8808 41.1017 58.8201 41.1971C58.2133 42.1257 58.3607 43.3841 59.2189 44.1391Z" fill="#BDD0FB"/>
<path d="M67.1159 46.6558C67.2546 46.4388 67.3846 46.2132 67.506 45.9788C67.7487 45.5102 67.9394 45.0242 68.0781 44.5122C68.0868 44.4861 68.0868 44.4688 68.0955 44.4427C68.1388 44.2692 68.0695 44.0869 67.9221 43.9914C67.8874 43.9654 67.8441 43.948 67.8007 43.9394C67.584 43.8786 67.3586 44.0088 67.2979 44.2258C67.1679 44.6944 66.9945 45.1544 66.7691 45.597C66.7605 45.623 66.7431 45.6491 66.7345 45.6664C66.197 46.6905 65.4168 47.5497 64.4806 48.1745C63.9691 48.513 63.4143 48.7907 62.8162 48.9816C62.8075 48.9816 62.8075 48.9816 62.7988 48.9903C62.7815 48.999 62.7728 48.999 62.7555 49.0077C61.0044 49.5718 59.1406 49.4156 57.5022 48.5737C57.2941 48.4609 57.0861 48.3481 56.8867 48.2179C55.5603 47.3587 54.5808 46.0743 54.0953 44.5469C53.5318 42.7938 53.6879 40.9279 54.5287 39.2877C55.3696 37.6561 56.8 36.4411 58.5511 35.877C60.3022 35.3129 62.166 35.4691 63.8044 36.3109C64.0125 36.415 64.2118 36.5365 64.4112 36.658C65.2521 37.2048 65.9716 37.9338 66.5004 38.793C66.5351 38.8451 66.5784 38.8884 66.6218 38.9232C66.7518 39.0099 66.9252 39.0099 67.0639 38.9318C67.2546 38.8103 67.3153 38.5587 67.1939 38.3677C66.5958 37.4044 65.7982 36.5886 64.8533 35.9811C64.6366 35.8423 64.4112 35.7034 64.1772 35.5906C62.348 34.6446 60.2588 34.4711 58.2997 35.1046C56.3405 35.7294 54.7455 37.0833 53.8006 38.9232C52.8557 40.7543 52.6823 42.8459 53.3151 44.8072C53.8612 46.5169 54.9622 47.9489 56.4359 48.9122C56.6526 49.051 56.8867 49.1899 57.1207 49.3114C60.675 51.1252 64.992 49.9276 67.1159 46.6558Z" fill="#BDD0FB"/>
<path d="M157.099 74.4448L145.205 86.6209L159.465 82.8023L157.099 74.4448Z" fill="#91B3FA"/>
<path d="M227.854 79.4871L160.289 82.7676C158.555 82.8544 157.099 81.4658 157.099 79.7301V51.8979C157.099 48.8691 159.5 46.3957 162.517 46.3002L223.415 44.417C227.949 44.417 231.625 48.0967 231.625 52.6356V75.521C231.625 77.6386 229.96 79.383 227.854 79.4871Z" fill="#91B3FA"/>
<path opacity="0.85" d="M162.308 81.6479C161.233 81.6479 160.219 81.24 159.43 80.4937C158.598 79.6952 158.139 78.6191 158.139 77.4648V52.3838C158.139 49.4244 160.505 47.0378 163.531 46.951L222.488 45.1719C226.952 45.1719 230.584 48.7214 230.584 53.0867V74.7137C230.584 76.7966 228.92 78.5063 226.796 78.6017L162.508 81.6479C162.438 81.6479 162.369 81.6479 162.308 81.6479ZM222.488 45.4583L163.531 47.2374C160.67 47.3242 158.425 49.5806 158.425 52.3751V77.4562C158.425 78.5323 158.85 79.5303 159.63 80.268C160.41 81.0057 161.424 81.3876 162.49 81.3355L226.779 78.2893C228.746 78.1938 230.289 76.6143 230.289 74.6877V53.0781C230.289 48.8776 226.787 45.4583 222.488 45.4583Z" fill="white"/>
<path d="M222.288 50.5354L168.264 52.5575C167.735 52.5748 167.319 52.9306 167.336 53.3385L167.354 53.8159C167.371 54.2237 167.805 54.5362 168.333 54.5188L222.366 52.5401C222.895 52.5228 223.32 52.1669 223.294 51.759L223.268 51.2383C223.251 50.8304 222.817 50.518 222.288 50.5354Z" fill="url(#paint5_linear_1232_1676)"/>
<path d="M217.46 64.2302L163.436 66.2436C162.907 66.261 162.491 66.6254 162.508 67.0507L162.526 67.5454C162.543 67.9706 162.985 68.2917 163.505 68.2744L217.538 66.313C218.067 66.2957 218.483 65.9312 218.466 65.5059L218.44 64.9592C218.422 64.5339 217.98 64.2128 217.46 64.2302Z" fill="url(#paint6_linear_1232_1676)"/>
<path d="M223.771 69.958L163.54 72.2318C162.95 72.2578 162.482 72.6223 162.499 73.0562L162.517 73.5509C162.534 73.9762 163.02 74.306 163.609 74.2799L223.84 72.0582C224.43 72.0322 224.898 71.6677 224.881 71.2337L224.854 70.687C224.837 70.2617 224.352 69.9319 223.771 69.958Z" fill="url(#paint7_linear_1232_1676)"/>
<path d="M192.668 58.6066L163.22 59.4658C162.934 59.4744 162.717 59.8737 162.734 60.351L162.76 60.9064C162.786 61.3837 163.029 61.7569 163.324 61.7482L192.772 60.9498C193.058 60.9411 193.275 60.5419 193.257 60.0646L193.231 59.4571C193.205 58.9798 192.954 58.5979 192.668 58.6066Z" fill="url(#paint8_linear_1232_1676)"/>
<path d="M225.114 57.591L197.278 58.3894C197.001 58.3981 196.801 58.7973 196.827 59.2746L196.853 59.83C196.879 60.3074 197.114 60.6805 197.382 60.6719L225.218 59.9342C225.495 59.9255 225.695 59.5263 225.669 59.049L225.643 58.4415C225.625 57.9555 225.383 57.5823 225.114 57.591Z" fill="url(#paint9_linear_1232_1676)"/>
<path d="M54.5012 232.977C54.5012 232.977 53.9464 236.136 53.669 239.26C53.565 240.484 54.5012 241.542 55.7235 241.594C59.8759 241.768 68.7702 242.106 71.9603 241.959C72.4371 241.942 72.7492 241.447 72.5758 240.996C72.4284 240.622 72.1423 240.319 71.7782 240.154L57.0932 233.393L54.5012 232.977Z" fill="url(#paint10_linear_1232_1676)"/>
<path d="M54.042 231.12L54.4928 234.895C54.4928 234.895 57.0674 236.092 58.8185 234.747L57.7523 230.538L54.042 231.12Z" fill="url(#paint11_linear_1232_1676)"/>
<path d="M54.3802 160.137C54.1895 161.126 53.3399 209.336 58.4892 230.946C58.5759 231.301 58.3939 231.657 58.0558 231.796C57.2669 232.117 55.7152 232.586 53.8601 232.647C53.2879 232.664 52.7678 232.291 52.6117 231.744C51.138 226.728 44.0903 201.612 43.1714 177.616C42.1398 150.808 43.1714 176.704 43.1714 176.704L43.7782 160.128L54.3802 160.137Z" fill="url(#paint12_linear_1232_1676)"/>
<path d="M37.6064 234.617C37.6064 234.617 36.7222 236.214 35.8639 240.449C35.7079 241.212 36.2454 241.941 37.0169 242.02C38.3866 242.158 40.5018 242.332 42.1922 242.315C42.9724 242.306 43.5792 241.629 43.4839 240.857C43.2931 239.312 42.7123 236.778 40.9092 234.799L37.6064 234.617Z" fill="url(#paint13_linear_1232_1676)"/>
<path d="M36.834 229.765L37.8829 235.476C37.8829 235.476 38.9145 236.248 40.9604 235.684L40.4576 229.54L36.834 229.765Z" fill="url(#paint14_linear_1232_1676)"/>
<path d="M34.0092 161.613C29.7961 187.049 34.9194 224.489 36.6532 231.814C36.7572 232.265 37.1213 232.603 37.5721 232.681C38.3436 232.812 39.6093 232.916 40.8662 232.551C41.2997 232.43 41.6031 232.039 41.6204 231.588C41.8545 225.66 41.4384 189.297 45.3567 174.925C45.5561 174.196 45.9982 173.563 46.6137 173.12L54.2249 167.705L54.8057 158.948L34.0092 161.613Z" fill="url(#paint15_linear_1232_1676)"/>
<path d="M60.8385 113.412C48.2166 113.204 34.2945 116.727 34.2945 116.727C30.5322 138.702 33.6356 164.043 33.6356 164.043C43.4054 166.612 54.4235 162.472 54.4235 162.472C56.0446 153.29 63.6212 127.445 63.6212 127.445C69.7847 126.682 74.8647 124.903 79.043 122.542C75.8529 118.836 74.3532 114.133 73.6944 111.347C69.2386 112.735 64.7308 113.482 60.8385 113.412Z" fill="url(#paint16_linear_1232_1676)"/>
<path d="M98.1059 94.805C96.8663 93.3036 95.2972 94.0152 95.2972 94.0152C93.4421 101.869 83.707 108.231 73.7031 111.346C74.3533 114.132 75.8617 118.845 79.0518 122.542C95.6526 113.204 98.1059 94.805 98.1059 94.805Z" fill="url(#paint17_linear_1232_1676)"/>
<path d="M97.8026 95.187C97.9326 95.6035 96.4329 96.2284 95.5487 94.5361C95.514 93.729 95.0286 90.2575 95.5053 89.598C98.08 86.0831 103.065 81.6831 103.065 81.6831C103.905 82.5162 103.212 83.332 103.212 83.332L100.793 85.8575C101.296 86.7687 101.92 87.5498 102.206 88.652C102.423 89.4938 102.293 90.3877 101.868 91.1514C101.443 91.9151 100.863 92.9132 100.317 93.6942C99.285 95.1783 97.8026 95.187 97.8026 95.187Z" fill="url(#paint18_linear_1232_1676)"/>
<path d="M99.7362 87.5063L97.5343 89.3809L96.8408 91.2468L98.8087 93.4338C98.8087 93.4338 99.4675 89.7367 99.9616 88.9383C100.456 88.1312 100.196 87.7407 99.7362 87.5063Z" fill="url(#paint19_linear_1232_1676)"/>
<path d="M39.1323 128.964L34.295 116.736C34.295 116.736 22.5054 124.755 20.5723 134.917C22.8002 135.082 26.8485 135.664 30.8188 137.669C31.6857 132.861 39.1323 128.964 39.1323 128.964Z" fill="url(#paint20_linear_1232_1676)"/>
<path d="M49.4307 140.472C49.4307 140.472 36.202 147.961 31.7376 141.565C30.81 140.237 30.5933 138.918 30.8187 137.66C26.8483 135.655 22.8 135.074 20.5721 134.909C19.9913 137.972 20.2947 141.235 22.0978 144.525C29.9171 158.844 51.1904 143.735 51.1904 143.735L49.4307 140.472Z" fill="url(#paint21_linear_1232_1676)"/>
<path d="M47.8449 149.949L55.0661 124.703C55.1441 124.416 55.3955 124.208 55.6902 124.173C56.9992 124.017 60.7875 123.592 65.1653 123.219C70.4359 122.776 76.5648 122.412 80.223 122.715C80.7432 122.759 81.0552 123.314 80.8299 123.774C78.7493 127.992 70.1932 145.132 65.9021 150.747C65.7634 150.929 65.538 151.042 65.304 151.042L48.5471 150.886C48.0616 150.886 47.7149 150.417 47.8449 149.949Z" fill="#91B3FA"/>
<path d="M65.9196 121.023L71.1556 120.146C71.433 120.103 71.667 120.363 71.5717 120.632L71.0516 122.203C71.0082 122.342 70.8868 122.438 70.7481 122.455L65.7115 123.132C65.4515 123.167 65.2348 122.932 65.2954 122.672L65.6162 121.301C65.6422 121.162 65.7636 121.049 65.9196 121.023Z" fill="#BDD0FB"/>
<path d="M61.9922 125.458L62.4257 123.21C62.469 122.984 62.6511 122.811 62.8851 122.794L73.4611 121.717C73.8165 121.683 74.1026 122.004 74.0159 122.36L73.3397 125.163C73.2877 125.388 73.0883 125.553 72.863 125.562L62.5297 126.083C62.1916 126.1 61.9315 125.796 61.9922 125.458Z" fill="#BDD0FB"/>
<path d="M49.5879 143.848C49.5879 143.848 48.5823 139.708 48.9898 138.241C49.3972 136.775 50.1861 134.883 52.804 135.299C55.422 135.716 58.5168 136.827 58.5168 136.827C58.5168 136.827 58.3608 138.745 56.3669 138.12L57.5979 139.074C57.5979 139.074 57.4245 140.611 55.7428 139.786L56.8957 141.053C56.8957 141.053 56.1762 142.312 54.9366 141.504C53.6969 140.697 53.0988 144.342 49.5879 143.848Z" fill="url(#paint22_linear_1232_1676)"/>
<path d="M48.0524 103.163L44.0387 114.783C43.9694 114.974 44.0474 115.191 44.2295 115.287C45.3217 115.894 49.2661 117.647 54.0166 114.627C54.5107 114.315 54.8488 113.803 54.9268 113.221L56.2271 103.163H48.0524Z" fill="url(#paint23_linear_1232_1676)"/>
<path d="M56.7918 92.3921C56.7918 92.3921 61.2042 100.697 60.6321 104.056C60.0686 107.415 54.6072 107.172 49.8307 104.447L46.4932 95.473L56.7918 92.3921Z" fill="url(#paint24_linear_1232_1676)"/>
<path d="M50.0469 100.047C50.2376 99.9599 50.3156 99.7255 50.1943 99.5433C49.8388 99.0052 49.18 97.903 48.972 96.9397C48.972 96.9397 48.1831 96.4277 50.9918 95.7594C53.8005 95.0825 57.9875 94.0411 58.8718 91.6458C59.73 89.3113 57.4761 83.4445 53.8785 88.1223C53.7398 88.3045 53.4711 88.3045 53.3324 88.1223C52.7429 87.3499 51.1912 85.7617 49.0413 86.725C47.0215 87.6276 46.7961 89.1116 46.8307 89.858C46.8394 90.075 46.64 90.2485 46.432 90.2051C45.4091 90.0142 42.9644 89.8406 41.8288 92.3574C40.8926 94.4229 41.4994 95.5945 42.0542 96.1673C42.2363 96.3496 42.1582 96.662 41.9068 96.7314C41.2393 96.9397 40.3725 97.5038 40.4591 99.0746C40.5805 101.244 43.0078 101.053 43.6926 100.958C43.8053 100.941 43.918 100.984 43.996 101.062C44.5855 101.722 47.2555 104.507 50.1422 104.837C50.3936 104.863 50.5844 104.62 50.5063 104.377L49.258 100.741C49.1973 100.576 49.284 100.385 49.4401 100.316L50.0469 100.047Z" fill="url(#paint25_linear_1232_1676)"/>
<path d="M50.55 100.559C50.55 100.559 47.4119 98.4067 47.1778 100.221C46.9525 102.034 50.0039 102.85 51.5209 102.173L50.55 100.559Z" fill="url(#paint26_linear_1232_1676)"/>
</g>
<defs>
<linearGradient id="paint0_linear_1232_1676" x1="193.826" y1="225.642" x2="42.0295" y2="41.1116" gradientUnits="userSpaceOnUse">
<stop stop-color="#FFE5FF"/>
<stop stop-color="#FFF5FF"/>
</linearGradient>
<linearGradient id="paint1_linear_1232_1676" x1="424.159" y1="-164.743" x2="-22.7616" y2="215.768" gradientUnits="userSpaceOnUse">
<stop stop-color="#E1473D"/>
<stop offset="1" stop-color="#E9605A"/>
</linearGradient>
<linearGradient id="paint2_linear_1232_1676" x1="489.282" y1="-88.2538" x2="42.3605" y2="292.258" gradientUnits="userSpaceOnUse">
<stop stop-color="#E1473D"/>
<stop offset="1" stop-color="#E9605A"/>
</linearGradient>
<linearGradient id="paint3_linear_1232_1676" x1="7.334" y1="197.929" x2="395.404" y2="-212.56" gradientUnits="userSpaceOnUse">
<stop stop-color="#FF928E"/>
<stop offset="1" stop-color="#FE7062"/>
</linearGradient>
<linearGradient id="paint4_linear_1232_1676" x1="164.954" y1="169.357" x2="76.9654" y2="266.475" gradientUnits="userSpaceOnUse">
<stop stop-color="#FF928E"/>
<stop offset="1" stop-color="#FE7062"/>
</linearGradient>
<linearGradient id="paint5_linear_1232_1676" x1="167.332" y1="52.5283" x2="223.294" y2="52.5283" gradientUnits="userSpaceOnUse">
<stop stop-color="#DAE3FE"/>
<stop offset="1" stop-color="#E9EFFD"/>
</linearGradient>
<linearGradient id="paint6_linear_1232_1676" x1="162.498" y1="66.2514" x2="218.462" y2="66.2514" gradientUnits="userSpaceOnUse">
<stop stop-color="#DAE3FE"/>
<stop offset="1" stop-color="#E9EFFD"/>
</linearGradient>
<linearGradient id="paint7_linear_1232_1676" x1="162.498" y1="72.1209" x2="224.883" y2="72.1209" gradientUnits="userSpaceOnUse">
<stop stop-color="#DAE3FE"/>
<stop offset="1" stop-color="#E9EFFD"/>
</linearGradient>
<linearGradient id="paint8_linear_1232_1676" x1="162.739" y1="60.1784" x2="193.261" y2="60.1784" gradientUnits="userSpaceOnUse">
<stop stop-color="#DAE3FE"/>
<stop offset="1" stop-color="#E9EFFD"/>
</linearGradient>
<linearGradient id="paint9_linear_1232_1676" x1="196.827" y1="59.1289" x2="225.679" y2="59.1289" gradientUnits="userSpaceOnUse">
<stop stop-color="#DAE3FE"/>
<stop offset="1" stop-color="#E9EFFD"/>
</linearGradient>
<linearGradient id="paint10_linear_1232_1676" x1="71.501" y1="228.61" x2="17.6582" y2="287.11" gradientUnits="userSpaceOnUse">
<stop stop-color="#09005D"/>
<stop offset="1" stop-color="#1A0F91"/>
</linearGradient>
<linearGradient id="paint11_linear_1232_1676" x1="54.0458" y1="232.959" x2="58.8226" y2="232.959" gradientUnits="userSpaceOnUse">
<stop stop-color="#FEBBBA"/>
<stop offset="1" stop-color="#FF928E"/>
</linearGradient>
<linearGradient id="paint12_linear_1232_1676" x1="75.7357" y1="162.384" x2="29.9098" y2="224.426" gradientUnits="userSpaceOnUse">
<stop stop-color="#09005D"/>
<stop offset="1" stop-color="#1A0F91"/>
</linearGradient>
<linearGradient id="paint13_linear_1232_1676" x1="59.4376" y1="217.506" x2="5.59468" y2="276.006" gradientUnits="userSpaceOnUse">
<stop stop-color="#09005D"/>
<stop offset="1" stop-color="#1A0F91"/>
</linearGradient>
<linearGradient id="paint14_linear_1232_1676" x1="36.83" y1="232.714" x2="40.9543" y2="232.714" gradientUnits="userSpaceOnUse">
<stop stop-color="#FEBBBA"/>
<stop offset="1" stop-color="#FF928E"/>
</linearGradient>
<linearGradient id="paint15_linear_1232_1676" x1="67.581" y1="156.36" x2="21.7552" y2="218.402" gradientUnits="userSpaceOnUse">
<stop stop-color="#09005D"/>
<stop offset="1" stop-color="#1A0F91"/>
</linearGradient>
<linearGradient id="paint16_linear_1232_1676" x1="51.4001" y1="128.733" x2="124.474" y2="2.97568" gradientUnits="userSpaceOnUse">
<stop stop-color="#4F52FF"/>
<stop offset="1" stop-color="#4042E2"/>
</linearGradient>
<linearGradient id="paint17_linear_1232_1676" x1="94.3429" y1="79.7346" x2="85.8981" y2="103.836" gradientUnits="userSpaceOnUse">
<stop stop-color="#FEBBBA"/>
<stop offset="1" stop-color="#FF928E"/>
</linearGradient>
<linearGradient id="paint18_linear_1232_1676" x1="101.547" y1="82.2588" x2="93.1017" y2="106.36" gradientUnits="userSpaceOnUse">
<stop stop-color="#FEBBBA"/>
<stop offset="1" stop-color="#FF928E"/>
</linearGradient>
<linearGradient id="paint19_linear_1232_1676" x1="95.0725" y1="97.6606" x2="101.432" y2="84.8456" gradientUnits="userSpaceOnUse">
<stop stop-color="#FEBBBA"/>
<stop offset="1" stop-color="#FF928E"/>
</linearGradient>
<linearGradient id="paint20_linear_1232_1676" x1="36.2265" y1="119.916" x2="109.301" y2="-5.84185" gradientUnits="userSpaceOnUse">
<stop stop-color="#4F52FF"/>
<stop offset="1" stop-color="#4042E2"/>
</linearGradient>
<linearGradient id="paint21_linear_1232_1676" x1="20.3024" y1="142.805" x2="51.1855" y2="142.805" gradientUnits="userSpaceOnUse">
<stop stop-color="#FEBBBA"/>
<stop offset="1" stop-color="#FF928E"/>
</linearGradient>
<linearGradient id="paint22_linear_1232_1676" x1="48.8937" y1="139.564" x2="58.515" y2="139.564" gradientUnits="userSpaceOnUse">
<stop stop-color="#FEBBBA"/>
<stop offset="1" stop-color="#FF928E"/>
</linearGradient>
<linearGradient id="paint23_linear_1232_1676" x1="44.0164" y1="109.753" x2="56.2265" y2="109.753" gradientUnits="userSpaceOnUse">
<stop stop-color="#FEBBBA"/>
<stop offset="1" stop-color="#FF928E"/>
</linearGradient>
<linearGradient id="paint24_linear_1232_1676" x1="59.1317" y1="101.976" x2="45.6985" y2="93.7914" gradientUnits="userSpaceOnUse">
<stop stop-color="#FEBBBA"/>
<stop offset="1" stop-color="#FF928E"/>
</linearGradient>
<linearGradient id="paint25_linear_1232_1676" x1="38.5997" y1="85.1371" x2="55.9584" y2="98.8321" gradientUnits="userSpaceOnUse">
<stop stop-color="#09005D"/>
<stop offset="1" stop-color="#1A0F91"/>
</linearGradient>
<linearGradient id="paint26_linear_1232_1676" x1="55.6053" y1="105.033" x2="43.5193" y2="97.6696" gradientUnits="userSpaceOnUse">
<stop stop-color="#FEBBBA"/>
<stop offset="1" stop-color="#FF928E"/>
</linearGradient>
<clipPath id="clip0_1232_1676">
<rect width="239" height="243" fill="white"/>
</clipPath>
</defs>
</svg>
