<svg width="98" height="30" viewBox="0 0 98 30" fill="none" xmlns="http://www.w3.org/2000/svg">
<path d="M5.06836 13.2559H8.84766C9.72656 13.2559 10.3711 13.1094 10.7812 12.8164C11.1914 12.5039 11.3965 12.0645 11.3965 11.498C11.3965 11.2051 11.6113 11.0586 12.041 11.0586C12.4902 11.0586 12.7148 11.2051 12.7148 11.498V16.8887C12.7148 17.2012 12.4902 17.3574 12.041 17.3574C11.6113 17.3574 11.3965 17.2012 11.3965 16.8887C11.3965 16.3418 11.1816 15.9023 10.752 15.5703C10.3418 15.2188 9.69727 15.043 8.81836 15.043H5.06836V25.1797H2.51953V7.39648C2.51953 6.79102 2.45117 6.36133 2.31445 6.10742C2.19727 5.85352 1.99219 5.6875 1.69922 5.60938C1.40625 5.53125 1.17188 5.44336 0.996094 5.3457C0.820312 5.22852 0.732422 5.05273 0.732422 4.81836C0.732422 4.38867 1.00586 4.17383 1.55273 4.17383H13.6816L13.8281 7.71875C13.8281 8.12891 13.6133 8.34375 13.1836 8.36328C12.7734 8.38281 12.5195 8.17773 12.4219 7.74805C12.2852 7.18164 12.0801 6.75195 11.8066 6.45898C11.5527 6.14648 10.9766 5.99023 10.0781 5.99023H6.38672C5.50781 5.99023 5.06836 6.36133 5.06836 7.10352V13.2559ZM19.3652 25.1797H16.8457V13.6367C16.8457 13.0508 16.7871 12.6309 16.6699 12.377C16.5723 12.1035 16.3867 11.9277 16.1133 11.8496C15.8203 11.752 15.5762 11.6543 15.3809 11.5566C15.2051 11.459 15.1172 11.3027 15.1172 11.0879C15.1172 10.6387 15.4102 10.4141 15.9961 10.4141H18.3984C19.043 10.4141 19.3652 10.7363 19.3652 11.3809V25.1797ZM19.7168 5.55078C19.7168 6.07812 19.5312 6.52734 19.1602 6.89844C18.7891 7.26953 18.3398 7.45508 17.8125 7.45508C17.2656 7.45508 16.8066 7.26953 16.4355 6.89844C16.0645 6.52734 15.8789 6.07812 15.8789 5.55078C15.8789 5.04297 16.0645 4.60352 16.4355 4.23242C16.8066 3.86133 17.2656 3.67578 17.8125 3.67578C18.3398 3.67578 18.7891 3.86133 19.1602 4.23242C19.5312 4.60352 19.7168 5.04297 19.7168 5.55078ZM26.2793 5.49219V10.4141H30.2051V12.2012H26.3086V21.5762C26.3086 22.3184 26.4648 22.8457 26.7773 23.1582C27.0898 23.4512 27.5977 23.5977 28.3008 23.5977C28.6523 23.5977 28.9844 23.5879 29.2969 23.5684C29.6094 23.5488 30 23.4707 30.4688 23.334V25.1504C30.0586 25.2871 29.5703 25.375 29.0039 25.4141C28.4375 25.4531 28.0176 25.4727 27.7441 25.4727C26.8652 25.4727 26.1621 25.3848 25.6348 25.209C25.1074 25.0137 24.6973 24.7207 24.4043 24.3301C24.1309 23.959 23.9648 23.4902 23.9062 22.9238C23.8477 22.3379 23.8184 21.7031 23.8184 21.0195V12.2012H21.6797V10.4141H23.8184V7.92383L26.2793 5.49219ZM38.9062 19.3789H31.2305V17.5625L38.8184 3.96875H41.3965V17.4453H43.9453V19.3789H41.3965V25.209H38.9062V19.3789ZM33.6914 17.4453H38.9062V7.98242L33.6914 17.4453Z" fill="black"/>
<path d="M54.2578 19.3789C54.1992 18.5195 53.8379 17.7578 53.1738 17.0938C52.5098 16.4297 51.4746 15.7266 50.0684 14.9844C48.5254 14.2031 47.334 13.3242 46.4941 12.3477C45.6738 11.3516 45.2832 10.1309 45.3223 8.68555C45.3613 7.25977 45.8984 6.08789 46.9336 5.16992C47.9883 4.25195 49.3848 3.79297 51.123 3.79297C52.1191 3.79297 52.9492 3.86133 53.6133 3.99805C54.2773 4.11523 54.9902 4.28125 55.752 4.49609V6.83984C54.9512 6.50781 54.1602 6.23438 53.3789 6.01953C52.6172 5.80469 51.8652 5.69727 51.123 5.69727C50.2832 5.69727 49.541 5.98047 48.8965 6.54688C48.2715 7.09375 47.959 7.8457 47.959 8.80273C47.959 9.68164 48.3203 10.4629 49.043 11.1465C49.7656 11.8105 50.8789 12.543 52.3828 13.3438C53.9062 14.1641 55.0391 15.0625 55.7812 16.0391C56.543 17.0156 56.9238 18.1484 56.9238 19.4375C56.9238 21.0586 56.3672 22.4355 55.2539 23.5684C54.1406 24.6816 52.5488 25.2871 50.4785 25.3848C49.7168 25.4238 48.8965 25.3555 48.0176 25.1797C47.1582 25.0039 46.4551 24.7402 45.9082 24.3887C45.5762 24.1738 45.332 23.9395 45.1758 23.6855C45.0195 23.4316 45.0195 23.1387 45.1758 22.8066C45.3125 22.4941 45.5469 22.2891 45.8789 22.1914C46.2109 22.0938 46.5332 22.1523 46.8457 22.3672C47.2559 22.6211 47.8125 22.8457 48.5156 23.041C49.2383 23.2168 49.9121 23.2852 50.5371 23.2461C51.8457 23.168 52.8125 22.7676 53.4375 22.0449C54.0625 21.3223 54.3359 20.4336 54.2578 19.3789ZM71.1035 25.1797H68.6133V22.8945C68.3203 23.3828 67.9395 23.8223 67.4707 24.2129C66.5527 24.9941 65.4395 25.3848 64.1309 25.3848C62.998 25.3848 62.0117 24.9453 61.1719 24.0664C60.332 23.1875 59.9121 21.6836 59.9121 19.5547V13.6367C59.9121 13.0508 59.8535 12.6309 59.7363 12.377C59.6191 12.1035 59.4531 11.9375 59.2383 11.8789C58.9258 11.8008 58.6719 11.7129 58.4766 11.6152C58.2812 11.5176 58.1836 11.3418 58.1836 11.0879C58.1836 10.6387 58.4766 10.4141 59.0625 10.4141H61.4355C62.0801 10.4141 62.4023 10.7266 62.4023 11.3516V19.584C62.4023 20.9316 62.6074 21.8789 63.0176 22.4258C63.4277 22.9531 63.9746 23.2168 64.6582 23.2168C65.791 23.2168 66.7383 22.709 67.5 21.6934C68.125 20.8145 68.4961 19.6719 68.6133 18.2656V13.6367C68.6133 13.0508 68.5547 12.6309 68.4375 12.377C68.3203 12.1035 68.1348 11.9277 67.8809 11.8496C67.5879 11.752 67.3438 11.6543 67.1484 11.5566C66.9727 11.459 66.8848 11.3027 66.8848 11.0879C66.8848 10.6387 67.1777 10.4141 67.7637 10.4141H70.1367C70.7812 10.4141 71.1035 10.7363 71.1035 11.3809V25.1797ZM75.2344 13.6367C75.2344 13.0508 75.1855 12.6309 75.0879 12.377C74.9902 12.1035 74.7949 11.9277 74.502 11.8496C74.209 11.7715 73.9746 11.6836 73.7988 11.5859C73.623 11.4688 73.5352 11.3027 73.5352 11.0879C73.5352 10.6387 73.8184 10.4141 74.3848 10.4141H76.6699C77.334 10.4141 77.666 10.7363 77.666 11.3809V12.5234C77.9785 11.957 78.418 11.4688 78.9844 11.0586C79.7656 10.4727 80.7422 10.1797 81.9141 10.1797H83.0273V12.6699C81.4648 12.3379 80.1367 12.5918 79.043 13.4316C78.3984 13.9004 77.9395 14.6328 77.666 15.6289V25.1797H75.2344V13.6367ZM86.6309 18.1484C86.6895 19.5742 87.1289 20.7949 87.9492 21.8105C88.7891 22.8262 89.9316 23.4121 91.377 23.5684C91.9043 23.627 92.4609 23.6074 93.0469 23.5098C93.6328 23.3926 94.1992 23.207 94.7461 22.9531C95.0586 22.7969 95.3223 22.7773 95.5371 22.8945C95.7715 22.9922 95.918 23.1289 95.9766 23.3047C96.0352 23.5195 96.0059 23.7344 95.8887 23.9492C95.791 24.1641 95.6348 24.3301 95.4199 24.4473C94.873 24.7793 94.1992 25.0332 93.3984 25.209C92.6172 25.3652 91.748 25.4141 90.791 25.3555C88.9355 25.2383 87.334 24.4863 85.9863 23.0996C84.6387 21.6934 83.9648 19.7207 83.9648 17.1816C83.9648 14.9355 84.5703 13.1875 85.7812 11.9375C86.9922 10.668 88.5645 10.0332 90.498 10.0332C92.1191 10.0332 93.4766 10.6094 94.5703 11.7617C95.6836 12.9141 96.2402 14.6523 96.2402 16.9766V18.1484H86.6309ZM86.6309 16.3027H93.7207C93.7207 14.7402 93.3984 13.6074 92.7539 12.9043C92.1289 12.1816 91.3672 11.8203 90.4688 11.8203C89.4336 11.8203 88.5449 12.2402 87.8027 13.0801C87.0605 13.9004 86.6699 14.9746 86.6309 16.3027Z" fill="#BD3C2A"/>
</svg>
