<svg width="109" height="114" viewBox="0 0 109 114" fill="none" xmlns="http://www.w3.org/2000/svg">
<path d="M51.3302 11.9475L51.3302 11.9475C51.9705 9.11221 52.6395 6.39062 53.2007 4.29196C53.3878 3.59244 53.5621 2.96522 53.7186 2.42794C53.812 2.68155 53.9108 2.96048 54.0144 3.26408C54.7209 5.33499 55.5976 8.39283 56.4701 11.9356C60.6201 28.7934 64.2906 36.2288 72.1417 43.114L72.1418 43.114C75.3308 45.9102 80.4729 48.8455 86.1101 51.3236C91.7605 53.8075 97.9951 55.87 103.414 56.8833L104.534 57.0926L99.1371 58.5653C87.4463 61.7559 78.9131 65.5511 72.5758 70.8996C66.2176 76.2657 62.1486 83.1278 59.2624 92.3003C57.4205 98.1521 55.4495 105.708 54.885 109.111L54.8849 109.111C54.6218 110.7 54.3668 111.807 54.1264 112.49C54.0733 112.381 54.0163 112.256 53.9555 112.113C53.7355 111.595 53.4939 110.909 53.2291 110.04C52.6998 108.303 52.0986 105.905 51.4048 102.808L50.4364 103.025L51.4048 102.808C48.5422 90.0343 44.934 81.1241 38.8899 74.4634C32.8426 67.799 24.4597 63.4995 12.2962 59.7217L12.2961 59.7217L3.7011 57.0528L6.82418 56.269C6.82422 56.269 6.82425 56.269 6.82428 56.269C20.4979 52.8388 30.1684 48.418 37.1596 41.4592C44.1562 34.4949 48.3598 25.098 51.3302 11.9475Z" stroke="#DDC99C" stroke-width="2"/>
</svg>
