<svg width="26" height="26" viewBox="0 0 26 26" fill="none" xmlns="http://www.w3.org/2000/svg">
<g clip-path="url(#clip0_144_842)">
<path d="M13.0008 9.38609C13.4276 9.38609 13.7749 9.03873 13.7749 8.6119C13.7749 8.2759 13.5584 7.99202 13.2588 7.88519V6.03125H12.7427V7.88519C12.4428 7.99202 12.2266 8.2759 12.2266 8.6119C12.2266 9.03873 12.5739 9.38609 13.0008 9.38609ZM13.0008 8.35383C13.1432 8.35383 13.2588 8.46944 13.2588 8.6119C13.2588 8.75435 13.1432 8.86996 13.0008 8.86996C12.8583 8.86996 12.7427 8.75435 12.7427 8.6119C12.7427 8.46944 12.8583 8.35383 13.0008 8.35383Z" fill="black"/>
<path d="M19.4516 13H19.3597L19.4382 12.3497C19.447 12.2777 19.4516 12.2052 19.4516 12.1324V9.90323C19.4516 8.90735 18.641 8.09677 17.6452 8.09677H16.5716C16.32 6.3489 14.8165 5 13 5C11.1835 5 9.68 6.3489 9.42839 8.09677H8.35484C7.35897 8.09677 6.54839 8.90735 6.54839 9.90323V12.1324C6.54839 12.2052 6.55303 12.2779 6.56155 12.3497L6.64026 13H5V16.0968H7.01574L7.41729 19.4108C7.52723 20.3169 8.29806 21 9.21058 21H16.7892C17.7017 21 18.4725 20.3169 18.5825 19.4108L18.6715 18.6774H19.4516C20.3055 18.6774 21 17.983 21 17.129V14.5484C21 13.6945 20.3055 13 19.4516 13ZM13 5.51613C14.7076 5.51613 16.0968 6.90529 16.0968 8.6129C16.0968 10.3205 14.7076 11.7097 13 11.7097C11.2924 11.7097 9.90323 10.3205 9.90323 8.6129C9.90323 6.90529 11.2924 5.51613 13 5.51613ZM7.06452 9.90323C7.06452 9.19174 7.64335 8.6129 8.35484 8.6129H9.3871C9.3871 10.6052 11.0077 12.2258 13 12.2258C14.9923 12.2258 16.6129 10.6052 16.6129 8.6129H17.6452C18.3566 8.6129 18.9355 9.19174 18.9355 9.90323V12.1324C18.9355 12.184 18.9324 12.2359 18.9259 12.2877L18.8397 13H7.16026L7.07381 12.2872C7.06761 12.2359 7.06452 12.184 7.06452 12.1324V9.90323ZM18.0699 19.3489C17.9917 19.9959 17.441 20.4839 16.7894 20.4839H9.21058C8.55897 20.4839 8.00826 19.9959 7.92981 19.3489L7.53574 16.0968H18.4643L18.0699 19.3489ZM19.4516 18.1613H18.7342L18.9845 16.0968H19.4516C20.0209 16.0968 20.4839 16.5597 20.4839 17.129C20.4839 17.6983 20.0209 18.1613 19.4516 18.1613ZM20.4839 15.9757C20.2095 15.7303 19.8477 15.5806 19.4516 15.5806H5.51613V13.5161H6.03226V14.0323H6.54839V13.5161H7.06452V14.0323H7.58065V13.5161H8.09677V14.0323H8.6129V13.5161H9.12903V14.0323H9.64516V13.5161H10.1613V14.0323H10.6774V13.5161H11.1935V14.0323H11.7097V13.5161H12.2258V14.0323H12.7419V13.5161H13.2581V14.0323H13.7742V13.5161H14.2903V14.0323H14.8065V13.5161H15.3226V14.0323H15.8387V13.5161H16.3548V14.0323H16.871V13.5161H17.3871V14.0323H17.9032V13.5161H18.4194V14.0323H18.9355V13.5161H19.4516V14.2903H19.9677V13.6596C20.2748 13.8387 20.4839 14.168 20.4839 14.5484V15.9757Z" fill="black"/>
</g>
<rect x="0.5" y="0.5" width="25" height="25" rx="4.5" stroke="black"/>
<defs>
<clipPath id="clip0_144_842">
<rect width="16" height="16" fill="white" transform="translate(5 5)"/>
</clipPath>
</defs>
</svg>
