<svg width="25" height="25" viewBox="0 0 25 25" fill="none" xmlns="http://www.w3.org/2000/svg">
<path d="M7.20691 11.3032C8.64691 14.1332 10.9669 16.4532 13.7969 17.8932L15.9969 15.6932C16.2769 15.4132 16.6669 15.3332 17.0169 15.4432C18.1369 15.8132 19.3369 16.0132 20.5869 16.0132C20.8521 16.0132 21.1065 16.1185 21.294 16.3061C21.4816 16.4936 21.5869 16.748 21.5869 17.0132V20.5132C21.5869 20.7784 21.4816 21.0328 21.294 21.2203C21.1065 21.4078 20.8521 21.5132 20.5869 21.5132C16.0782 21.5132 11.7542 19.7221 8.5661 16.534C5.37798 13.3459 3.58691 9.02186 3.58691 4.51318C3.58691 4.24797 3.69227 3.99361 3.87981 3.80608C4.06734 3.61854 4.3217 3.51318 4.58691 3.51318H8.08691C8.35213 3.51318 8.60648 3.61854 8.79402 3.80608C8.98156 3.99361 9.08691 4.24797 9.08691 4.51318C9.08691 5.76318 9.28691 6.96318 9.65691 8.08318C9.76691 8.43318 9.68691 8.82318 9.40691 9.10318L7.20691 11.3032Z" fill="white"/>
</svg>
