<svg width="23" height="23" viewBox="0 0 23 23" fill="none" xmlns="http://www.w3.org/2000/svg">
<path d="M8.9987 20.58C8.75558 20.58 8.52242 20.4835 8.35052 20.3116C8.17861 20.1396 8.08203 19.9065 8.08203 19.6634V16.9134H4.41536C3.92913 16.9134 3.46282 16.7202 3.119 16.3764C2.77519 16.0326 2.58203 15.5663 2.58203 15.08V4.08004C2.58203 3.06254 3.40703 2.2467 4.41536 2.2467H19.082C19.5683 2.2467 20.0346 2.43986 20.3784 2.78367C20.7222 3.12749 20.9154 3.59381 20.9154 4.08004V15.08C20.9154 15.5663 20.7222 16.0326 20.3784 16.3764C20.0346 16.7202 19.5683 16.9134 19.082 16.9134H13.4904L10.0987 20.3142C9.91536 20.4884 9.6862 20.58 9.45703 20.58H8.9987ZM9.91536 15.08V17.9034L12.7387 15.08H19.082V4.08004H4.41536V15.08H9.91536Z" fill="#A7A7A7"/>
</svg>
