<svg width="569" height="475" viewBox="0 0 569 475" fill="none" xmlns="http://www.w3.org/2000/svg">
<g clip-path="url(#clip0_1296_313)">
<g opacity="0.41">
<g filter="url(#filter0_d_1296_313)">
<path d="M568.181 303.101C568.716 293.818 568.538 284.536 567.467 275.254C562.468 231.877 540.334 191 507.489 162.082C495.886 151.729 482.499 142.625 474.823 128.88C461.971 106.032 463.042 79.6132 447.155 57.1217C431.268 34.4516 408.062 16.7797 381.822 7.8545C303.816 -19.0997 194.571 24.8124 204.389 118.884C204.389 119.241 204.389 119.777 204.567 120.312C205.817 139.769 190.644 156.192 171.008 156.727C99.0713 158.512 37.1302 213.848 23.9209 284.179C15.3527 329.341 29.2761 378.965 62.4779 410.917C87.1115 434.837 120.313 447.868 153.337 456.971C219.74 475 289.714 478.749 358.081 471.966C422.164 465.54 489.817 447.154 531.23 397.708C553.543 371.289 566.217 337.552 568.181 303.101Z" fill="#F6F5F7"/>
</g>
</g>
<g opacity="0.88">
<path d="M508.918 307.563C509.275 300.245 509.096 292.926 508.382 285.786C504.455 251.87 487.14 219.739 461.435 197.069C452.332 189.036 441.8 181.718 435.909 171.186C425.913 153.336 426.627 132.629 414.132 114.957C401.637 97.2852 383.429 83.3619 363.08 76.2217C302.031 54.9797 216.528 89.6095 224.203 163.153C224.203 163.332 224.203 163.867 224.382 164.224C225.453 179.576 213.493 192.428 198.142 192.785C141.734 194.035 93.181 237.59 82.8278 292.569C76.2231 327.913 87.1119 366.827 112.995 391.817C132.273 410.56 158.335 420.735 184.218 427.875C236.163 441.977 290.964 445.012 344.694 439.657C394.853 434.658 447.869 420.2 480.357 381.464C497.493 360.936 507.311 334.517 508.918 307.563Z" fill="#6FBFE5" fill-opacity="0.31"/>
</g>
<path opacity="0.8" d="M552.34 74.1237C554.591 64.6273 548.718 55.1036 539.222 52.852C529.725 50.6004 520.202 56.4735 517.95 65.9699C515.698 75.4663 521.571 84.99 531.068 87.2416C540.564 89.4932 550.088 83.6201 552.34 74.1237Z" fill="white"/>
<path opacity="0.8" d="M162.877 64.0702C170.824 56.1233 170.824 43.2389 162.877 35.292C154.93 27.3451 142.046 27.3451 134.099 35.292C126.152 43.2389 126.152 56.1233 134.099 64.0702C142.046 72.0171 154.93 72.0171 162.877 64.0702Z" fill="white"/>
<path opacity="0.8" d="M26.4206 468.039C41.0112 468.039 52.8392 456.211 52.8392 441.62C52.8392 427.029 41.0112 415.201 26.4206 415.201C11.83 415.201 0.00195312 427.029 0.00195312 441.62C0.00195312 456.211 11.83 468.039 26.4206 468.039Z" fill="white"/>
<path d="M89.254 172.791L189.93 273.467C209.566 293.103 241.518 293.103 261.154 273.467L273.113 261.508C277.576 257.045 277.576 249.548 273.113 245.085L232.057 204.029C227.595 199.567 220.098 199.567 215.635 204.029L195.107 224.557C193.501 226.164 190.823 226.164 189.216 224.557L139.592 174.576C137.986 172.97 137.986 170.47 139.592 168.864L159.763 148.693C164.226 144.23 164.226 136.733 159.763 132.271L117.636 89.965C113.174 85.5024 105.855 85.5024 101.392 89.7865L89.968 100.854C69.6185 120.489 69.44 152.799 89.254 172.791Z" fill="#243762"/>
<path d="M92.4678 102.817L149.054 159.403L151.017 157.44L159.942 148.514C164.405 144.052 164.405 136.555 159.942 132.092L117.637 89.965C113.174 85.5024 105.856 85.5024 101.393 89.7865L89.9688 100.854L92.4678 102.817Z" fill="#ECF1F7"/>
<path d="M149.053 160.653L91.9318 103.532L88.7188 100.854L100.857 89.073C105.677 84.4319 113.531 84.4319 118.35 89.2515L160.477 131.378C165.297 136.198 165.297 144.231 160.477 149.05L149.053 160.653ZM91.2178 100.854L93.0028 102.282L148.875 158.154L159.049 147.979C161.013 146.016 162.263 143.338 162.263 140.304C162.263 137.448 161.192 134.77 159.049 132.628L117.101 90.6795C112.995 86.5739 106.212 86.5739 102.107 90.501L91.2178 100.854Z" fill="#243762"/>
<path d="M207.423 215.989L264.009 272.575L265.973 270.611L274.898 261.686C279.36 257.224 279.36 249.726 274.898 245.264L232.771 203.137C228.308 198.674 220.989 198.674 216.527 202.958L205.103 214.025L207.423 215.989Z" fill="#ECF1F7"/>
<path d="M264.009 273.825L206.888 216.704L203.675 214.026L215.813 202.245C220.633 197.604 228.487 197.604 233.307 202.423L275.434 244.55C277.754 246.871 279.182 250.084 279.182 253.476C279.182 256.867 277.933 259.902 275.434 262.401L264.009 273.825ZM206.352 213.848L208.137 215.276L264.009 271.147L274.184 260.973C276.148 259.009 277.397 256.332 277.397 253.297C277.397 250.441 276.326 247.763 274.184 245.621L232.057 203.673C227.951 199.567 221.168 199.567 217.063 203.494L206.352 213.848Z" fill="#243762"/>
<path d="M131.203 131.558C131.024 131.558 130.667 131.558 130.489 131.379L96.216 96.9279C95.859 96.5709 95.859 96.0353 96.216 95.6783C96.573 95.3213 97.1085 95.3213 97.4655 95.6783L131.917 130.13C132.274 130.487 132.274 131.022 131.917 131.379C131.738 131.558 131.381 131.558 131.203 131.558Z" fill="#243762"/>
<path d="M268.294 268.648C268.116 268.648 267.759 268.648 267.58 268.469L233.129 233.84C232.772 233.483 232.772 232.947 233.129 232.59C233.486 232.233 234.022 232.233 234.379 232.59L268.83 267.041C269.187 267.398 269.187 267.934 268.83 268.291C268.651 268.47 268.473 268.648 268.294 268.648Z" fill="#243762"/>
<path d="M419.487 444.655L287.572 425.198C272.578 423.056 262.403 409.132 264.545 394.138L311.849 74.2582C313.991 59.2638 327.914 49.0891 342.909 51.2311L474.823 70.8666C489.818 73.0087 499.992 86.932 497.85 101.926L450.547 421.806C448.226 436.622 434.303 446.975 419.487 444.655Z" fill="#243762"/>
<path d="M322.096 81.3083L277.439 383.254L441.126 407.463L485.783 105.517L322.096 81.3083Z" fill="#ECF1F7"/>
<path d="M322.21 81.264L318.867 103.866L482.554 128.075L485.896 105.473L322.21 81.264Z" fill="#AF9CDA"/>
<path d="M356.654 424.84C356.118 424.84 355.583 424.84 355.047 424.662C352.191 424.305 349.692 422.698 348.086 420.378C346.3 418.057 345.765 415.201 346.122 412.524C346.479 409.668 348.086 407.169 350.406 405.562C352.727 403.777 355.583 403.063 358.26 403.598C361.116 403.955 363.615 405.562 365.222 407.883C367.007 410.203 367.543 413.059 367.185 415.737C366.293 420.913 361.83 424.84 356.654 424.84ZM356.475 405.205C354.512 405.205 352.727 405.741 351.12 406.99C349.157 408.418 347.907 410.56 347.55 412.881C347.193 415.201 347.729 417.522 349.157 419.485C350.585 421.449 352.727 422.698 355.047 423.055C359.867 423.769 364.508 420.378 365.222 415.558C365.579 413.238 365.043 410.917 363.615 408.954C362.187 406.99 360.045 405.741 357.725 405.384C357.368 405.205 357.011 405.205 356.475 405.205Z" fill="#ECF1F7"/>
<path d="M380.216 78.3644C380.037 78.3644 379.859 78.3644 379.68 78.3644C378.788 78.1859 377.895 77.8289 377.36 76.9363C376.824 76.2223 376.646 75.3298 376.646 74.4373C376.646 73.5448 377.181 72.6522 378.074 72.1167C378.788 71.5812 379.68 71.4027 380.573 71.4027C381.465 71.5812 382.358 71.9382 382.893 72.8307C383.429 73.5448 383.607 74.4373 383.607 75.3298C383.429 77.1148 382.001 78.3644 380.216 78.3644ZM380.216 73.1878C379.859 73.1878 379.502 73.3663 379.323 73.5448C378.966 73.7233 378.788 74.2588 378.609 74.6158C378.609 74.9728 378.609 75.5083 378.966 75.8653C379.145 76.2223 379.68 76.4008 380.037 76.5793C380.394 76.5793 380.93 76.5793 381.287 76.2223C381.644 76.0438 381.822 75.5083 382.001 75.1513C382.001 74.7943 382.001 74.2588 381.644 73.9018C381.465 73.5448 380.93 73.3663 380.573 73.1878C380.394 73.1878 380.394 73.1878 380.216 73.1878Z" fill="#ECF1F7"/>
<path d="M433.41 86.2177C433.232 86.2177 433.053 86.2177 432.875 86.2177L391.105 79.9701C390.212 79.7916 389.32 79.4346 388.784 78.5421C388.249 77.828 388.07 76.9355 388.07 76.043C388.249 75.1505 388.606 74.2579 389.498 73.7224C390.212 73.1869 391.105 73.0084 391.997 73.0084L433.767 79.2561C434.66 79.4346 435.552 79.7916 436.088 80.6841C436.624 81.3981 436.802 82.2906 436.802 83.1832C436.623 84.0757 436.266 84.9682 435.374 85.5037C434.838 86.0392 434.124 86.2177 433.41 86.2177ZM391.64 74.972C390.748 74.972 390.212 75.5075 390.034 76.4C390.034 76.757 390.034 77.2925 390.391 77.6495C390.569 78.0065 391.105 78.185 391.462 78.3636L433.232 84.6112C434.124 84.7897 435.017 84.0757 435.195 83.1832C435.195 82.8262 435.195 82.2906 434.838 81.9336C434.66 81.5766 434.124 81.3981 433.767 81.2196L391.819 74.972C391.819 74.972 391.819 74.972 391.64 74.972Z" fill="#ECF1F7"/>
<path d="M441.979 315.061L327.736 298.103C325.951 297.746 324.166 299.174 323.809 300.959L319.346 330.591C318.989 332.376 320.417 334.161 322.202 334.518L419.844 348.977L429.84 362.9L431.625 350.762L436.266 351.476C438.051 351.833 439.837 350.405 440.194 348.62L444.656 318.988C445.013 317.024 443.764 315.418 441.979 315.061Z" fill="#C5D9FF"/>
<path d="M420.022 349.869C419.844 349.869 419.844 349.869 420.022 349.869L322.202 335.41C321.131 335.232 320.06 334.696 319.346 333.804C318.632 332.911 318.453 331.662 318.632 330.591L323.094 300.959C323.451 298.638 325.593 297.032 327.914 297.389L354.333 301.316C354.868 301.316 355.225 301.851 355.047 302.387C355.047 302.922 354.511 303.279 353.976 303.101L327.557 299.174C326.129 298.995 324.879 299.888 324.701 301.316L320.238 330.948C320.06 331.662 320.238 332.197 320.774 332.733C321.131 333.268 321.845 333.625 322.38 333.804L420.022 348.263C420.558 348.263 420.915 348.798 420.736 349.334C420.736 349.512 420.379 349.869 420.022 349.869Z" fill="#243762"/>
<path d="M460.008 192.25L345.765 175.292C343.98 174.935 342.195 176.363 341.838 178.148L337.375 207.779C337.018 209.564 338.446 211.35 340.231 211.707L437.873 226.165L447.87 240.089L449.655 227.95L454.296 228.664C456.081 229.021 457.866 227.593 458.223 225.808L462.685 196.177C463.221 194.213 461.971 192.607 460.008 192.25Z" fill="#C5D9FF"/>
<path d="M448.762 242.409L437.695 227.058L340.41 212.599C338.089 212.242 336.483 210.1 336.84 207.779C336.84 207.244 337.375 206.887 337.911 207.065C338.446 207.065 338.803 207.601 338.625 208.136C338.446 208.85 338.625 209.386 339.16 209.921C339.517 210.457 340.231 210.814 340.767 210.992L438.766 225.451L447.691 237.947L449.297 227.058L454.831 227.95C455.545 228.129 456.081 227.95 456.616 227.415C457.152 227.058 457.509 226.344 457.687 225.808L460.543 206.173C460.543 205.637 461.079 205.28 461.614 205.459C462.15 205.459 462.507 205.994 462.328 206.53L459.472 226.165C459.294 227.236 458.758 228.307 457.866 229.021C456.973 229.735 455.724 229.914 454.653 229.735L450.904 229.2L448.762 242.409Z" fill="#243762"/>
<path d="M315.418 230.449L429.66 247.407C431.445 247.764 432.873 249.371 432.516 251.334L428.054 280.966C427.697 282.751 426.09 284.179 424.127 283.822L326.485 269.363L312.919 279.716L314.704 267.578L310.062 266.864C308.277 266.507 306.849 264.9 307.206 262.937L311.669 233.305C311.848 231.52 313.633 230.092 315.418 230.449Z" fill="#AF9CDA"/>
<path d="M424.842 284.715C424.664 284.715 424.485 284.715 424.128 284.715L363.08 275.611C362.544 275.611 362.187 275.075 362.366 274.54C362.366 274.004 362.901 273.647 363.437 273.826L424.485 282.93C425.199 283.108 425.735 282.93 426.27 282.394C426.806 282.037 427.163 281.323 427.341 280.788L431.804 251.156C431.982 249.728 431.09 248.478 429.662 248.3C429.126 248.3 428.769 247.764 428.948 247.229C428.948 246.693 429.483 246.336 430.019 246.515C432.339 246.872 433.946 249.014 433.589 251.334L429.126 280.966C428.948 282.037 428.412 283.108 427.52 283.822C426.627 284.358 425.735 284.715 424.842 284.715Z" fill="#243762"/>
<path d="M281.499 355.515L277.399 383.238L441.086 407.446L445.186 379.724L281.499 355.515Z" fill="white"/>
<path d="M305.78 372.896C304.887 378.251 299.889 382.178 294.534 381.285C289.179 380.393 285.252 375.395 286.144 370.04C287.037 364.684 292.035 360.757 297.39 361.65C302.745 362.542 306.494 367.54 305.78 372.896Z" fill="#C5D9FF"/>
<path opacity="0.33" d="M426.449 400.029C426.092 400.029 425.556 400.029 425.199 399.85L318.989 384.142C316.668 383.785 314.526 382.535 313.098 380.572C311.67 378.608 311.135 376.288 311.492 373.967C312.206 369.147 316.668 365.756 321.667 366.47L427.877 382.178C432.696 382.892 436.088 387.355 435.374 392.174C434.66 396.816 430.911 400.029 426.449 400.029ZM425.556 398.065C429.483 398.601 433.053 395.923 433.589 391.996C433.946 390.032 433.41 388.247 432.339 386.641C431.268 385.034 429.483 384.142 427.698 383.785L321.488 368.076C317.561 367.541 313.991 370.218 313.455 374.146C313.098 376.109 313.634 377.894 314.705 379.501C315.776 381.107 317.561 382 319.346 382.357L425.556 398.065Z" fill="#AF9CDA"/>
<path d="M332.377 97.4635C332.199 97.4635 332.02 97.4635 331.842 97.4635C329.878 97.1065 328.628 95.3214 328.807 93.5364C328.985 92.6439 329.521 91.7514 330.235 91.2158C330.949 90.6803 331.842 90.5018 332.913 90.5018C334.876 90.8588 336.126 92.6439 335.947 94.4289C335.59 96.214 333.984 97.4635 332.377 97.4635ZM332.377 92.2869C332.02 92.2869 331.663 92.4654 331.306 92.6439C330.949 93.0009 330.771 93.3579 330.592 93.7149C330.592 94.2504 330.592 94.6074 330.949 94.9644C331.306 95.3214 331.663 95.4999 332.02 95.6785C332.913 95.857 333.805 95.1429 333.984 94.2504C333.984 93.7149 333.984 93.3579 333.627 93.0009C333.27 92.6439 332.913 92.4654 332.556 92.2869C332.556 92.2869 332.377 92.2869 332.377 92.2869Z" fill="white"/>
<path d="M342.016 98.8919C341.837 98.8919 341.659 98.8919 341.48 98.8919C339.517 98.5348 338.267 96.7498 338.446 94.9648C338.803 93.0012 340.588 91.7517 342.373 91.9302C343.265 92.1087 344.158 92.4657 344.693 93.3582C345.229 94.0722 345.407 94.9648 345.407 96.0358C345.229 96.9283 344.693 97.8208 343.979 98.3563C343.444 98.7133 342.73 98.8919 342.016 98.8919ZM342.016 93.7152C341.123 93.7152 340.409 94.2507 340.409 95.1433C340.409 95.6788 340.409 96.0358 340.766 96.3928C341.123 96.7498 341.48 96.9283 341.837 97.1068C342.373 97.1068 342.73 97.1068 343.087 96.7498C343.444 96.3928 343.622 96.0358 343.801 95.6788C343.801 95.1433 343.801 94.7863 343.444 94.4292C343.087 94.0722 342.73 93.8937 342.373 93.7152C342.194 93.7152 342.016 93.7152 342.016 93.7152Z" fill="white"/>
<path d="M351.478 100.32C351.299 100.32 351.121 100.32 350.942 100.32C348.979 99.9632 347.729 98.1781 348.086 96.3931C348.443 94.4296 350.228 93.18 352.013 93.3585C353.977 93.7155 355.226 95.5006 355.048 97.2856C354.691 99.0707 353.084 100.32 351.478 100.32ZM351.478 95.1436C351.121 95.1436 350.764 95.3221 350.407 95.5006C350.05 95.8576 349.871 96.2146 349.693 96.5716C349.693 97.1071 349.693 97.4641 350.05 97.8211C350.407 98.1781 350.764 98.3567 351.121 98.5352C352.013 98.7137 352.906 97.9996 353.084 97.1071C353.263 96.2146 352.549 95.3221 351.656 95.1436C351.656 95.1436 351.478 95.1436 351.478 95.1436Z" fill="white"/>
<path d="M484.82 129.237C484.82 129.237 484.642 129.237 484.82 129.237L333.092 106.746C332.556 106.746 332.199 106.21 332.377 105.675C332.377 105.139 332.913 104.782 333.449 104.961L484.999 127.452C485.534 127.452 485.891 127.988 485.713 128.523C485.534 129.059 485.177 129.237 484.82 129.237Z" fill="#243762"/>
<path d="M421.629 321.843C421.45 321.843 421.45 321.843 421.629 321.843L340.588 309.883C340.052 309.883 339.695 309.348 339.874 308.812C339.874 308.277 340.409 307.92 340.945 308.098L421.807 320.058C422.343 320.058 422.7 320.594 422.521 321.129C422.343 321.486 421.986 321.843 421.629 321.843Z" fill="white"/>
<path d="M373.611 324.7L339.16 319.524C338.624 319.524 338.267 318.988 338.446 318.453C338.446 317.917 338.981 317.56 339.517 317.739L373.968 322.915C374.504 322.915 374.861 323.451 374.682 323.986C374.504 324.343 374.147 324.7 373.611 324.7Z" fill="white"/>
<path d="M362.009 332.197L337.732 328.627C337.197 328.627 336.84 328.091 337.018 327.556C337.018 327.02 337.554 326.663 338.089 326.842L362.187 330.412C362.723 330.412 363.08 330.947 362.901 331.483C362.901 331.84 362.544 332.197 362.009 332.197Z" fill="white"/>
<path d="M420.202 331.483C420.202 331.483 420.023 331.483 420.202 331.483L384.501 326.128C383.965 326.128 383.608 325.592 383.787 325.057C383.787 324.521 384.322 324.164 384.858 324.343L420.38 329.52C420.916 329.52 421.273 330.055 421.094 330.591C420.916 331.305 420.559 331.483 420.202 331.483Z" fill="white"/>
<path d="M411.632 254.727L330.591 242.767C330.056 242.767 329.699 242.232 329.877 241.696C329.877 241.161 330.413 240.804 330.948 240.982L411.811 252.942C412.346 252.942 412.703 253.477 412.525 254.013C412.525 254.37 412.168 254.727 411.632 254.727Z" fill="white"/>
<path d="M363.795 257.582L329.165 252.406C328.629 252.406 328.272 251.87 328.451 251.335C328.451 250.799 328.986 250.442 329.522 250.621L363.973 255.797C364.509 255.797 364.866 256.333 364.687 256.868C364.687 257.225 364.33 257.582 363.795 257.582Z" fill="white"/>
<path d="M399.674 272.041C399.495 272.041 399.495 272.041 399.674 272.041L329.7 261.153C329.164 261.153 328.807 260.617 328.986 260.081C328.986 259.546 329.521 259.189 330.057 259.367L399.852 270.256C400.388 270.256 400.745 270.792 400.566 271.327C400.388 271.684 400.031 272.041 399.674 272.041Z" fill="white"/>
<path d="M410.206 264.366L374.506 259.011C373.97 259.011 373.613 258.475 373.792 257.94C373.792 257.404 374.327 257.047 374.863 257.226L410.385 262.402C410.92 262.402 411.277 262.938 411.099 263.473C411.099 264.009 410.742 264.366 410.206 264.366Z" fill="white"/>
<path d="M330.057 119.063L444.3 136.021C446.085 136.378 447.513 137.985 447.156 139.948L442.693 169.58C442.336 171.365 440.73 172.793 438.766 172.436L341.125 157.977L327.558 168.331L329.343 156.192L324.702 155.478C322.917 155.121 321.489 153.515 321.846 151.551L326.309 121.919C326.487 119.956 328.272 118.706 330.057 119.063Z" fill="#AF9CDA"/>
<path d="M442.871 170.293C442.335 170.293 441.978 169.758 441.978 169.222L446.441 139.591C446.619 138.877 446.441 138.341 445.905 137.806C445.548 137.27 444.834 136.913 444.299 136.735L373.432 126.203C372.897 126.203 372.54 125.667 372.718 125.132C372.718 124.596 373.254 124.239 373.789 124.418L444.656 134.949C445.727 135.128 446.798 135.663 447.512 136.556C448.226 137.449 448.404 138.698 448.226 139.769L443.763 169.579C443.763 169.936 443.228 170.293 442.871 170.293Z" fill="#243762"/>
<path d="M426.45 143.339C426.271 143.339 426.271 143.339 426.45 143.339L345.409 131.379C344.873 131.379 344.516 130.844 344.695 130.308C344.695 129.773 345.23 129.416 345.766 129.594L426.628 141.554C427.164 141.554 427.521 142.089 427.342 142.625C427.164 142.982 426.807 143.339 426.45 143.339Z" fill="white"/>
<path d="M378.432 146.195L343.98 141.018C343.445 141.018 343.088 140.483 343.266 139.947C343.266 139.412 343.802 139.055 344.337 139.233L378.789 144.41C379.324 144.41 379.681 144.946 379.503 145.481C379.324 145.838 378.967 146.195 378.432 146.195Z" fill="white"/>
<path d="M414.311 160.653C414.133 160.653 414.133 160.653 414.311 160.653L344.338 149.765C343.802 149.765 343.445 149.229 343.624 148.694C343.624 148.158 344.159 147.801 344.695 147.98L414.49 158.868C415.025 158.868 415.382 159.404 415.204 159.939C415.025 160.296 414.668 160.653 414.311 160.653Z" fill="white"/>
<path d="M425.022 152.978C424.843 152.978 424.843 152.978 425.022 152.978L389.321 147.623C388.786 147.623 388.428 147.088 388.607 146.552C388.607 146.017 389.143 145.66 389.678 145.838L425.2 151.015C425.736 151.015 426.093 151.55 425.914 152.086C425.736 152.621 425.379 152.978 425.022 152.978Z" fill="white"/>
<path d="M439.837 200.282C439.837 200.282 439.658 200.282 439.837 200.282L358.796 188.323C358.26 188.323 357.903 187.787 358.082 187.252C358.082 186.716 358.617 186.359 359.153 186.538L440.015 198.497C440.551 198.497 440.908 199.033 440.729 199.568C440.551 199.925 440.194 200.282 439.837 200.282Z" fill="white"/>
<path d="M391.999 202.96C391.82 202.96 391.82 202.96 391.999 202.96L357.369 197.784C356.833 197.784 356.476 197.248 356.655 196.713C356.655 196.177 357.19 195.82 357.726 195.999L392.177 201.175C392.713 201.175 393.07 201.711 392.891 202.246C392.713 202.603 392.356 202.96 391.999 202.96Z" fill="white"/>
<path d="M380.394 210.457C380.216 210.457 380.216 210.457 380.394 210.457L356.118 206.887C355.582 206.887 355.225 206.352 355.404 205.816C355.404 205.281 355.939 204.924 356.475 205.102L380.573 208.672C381.108 208.672 381.465 209.208 381.287 209.743C381.108 210.1 380.751 210.457 380.394 210.457Z" fill="white"/>
<path d="M438.41 209.921C438.41 209.921 438.231 209.921 438.41 209.921L402.709 204.566C402.173 204.566 401.816 204.031 401.995 203.495C401.995 202.96 402.53 202.603 403.066 202.781L438.588 207.958C439.124 207.958 439.481 208.493 439.302 209.029C439.124 209.564 438.767 209.921 438.41 209.921Z" fill="white"/>
<path d="M275.256 417.342L92.1102 437.87C88.5401 438.227 85.3271 435.728 84.9701 432.158L71.7607 314.702C71.7607 314.524 71.9392 314.345 72.1178 314.345L267.401 292.389C267.58 292.389 267.758 292.568 267.758 292.746L280.968 410.202C281.325 413.772 278.826 416.807 275.256 417.342Z" fill="#F7A9B4"/>
<path d="M91.3962 438.942C87.6476 438.942 84.613 436.264 84.0775 432.516L70.8682 315.06C70.8682 314.346 71.2252 313.81 71.9392 313.632L267.223 291.676C267.937 291.676 268.472 292.033 268.651 292.747L281.86 410.203C282.039 412.166 281.503 413.951 280.254 415.558C279.004 416.986 277.398 418.057 275.434 418.235L92.1102 438.763C91.9317 438.763 91.5747 438.942 91.3962 438.942ZM72.6532 315.417L85.8625 432.337C86.2195 435.372 88.8971 437.514 91.9317 437.157L275.256 416.45L275.434 417.343L275.256 416.45C276.684 416.272 277.933 415.558 279.004 414.487C279.897 413.416 280.254 411.988 280.075 410.381L266.866 293.461L72.6532 315.417Z" fill="#243762"/>
<path opacity="0.29" d="M266.686 417.343L101.034 438.049C97.4644 438.406 152.444 368.076 151.908 364.506L71.7598 314.881C71.7598 314.703 71.9383 314.524 72.1168 314.524L267.401 292.568C267.579 292.568 267.758 292.747 267.758 292.925L200.997 358.972C201.354 362.364 270.257 416.807 266.686 417.343Z" fill="#243762"/>
<path d="M72.1168 314.525L152.801 234.733C157.62 229.914 165.118 229.021 170.83 232.591L266.865 292.212C267.044 292.39 267.044 292.569 266.865 292.569L71.7598 314.525" fill="#F7A9B4"/>
<path d="M71.7594 315.417L71.5808 314.168L71.4023 313.989L71.5808 313.811L152.086 234.198C157.263 229.2 165.117 228.129 171.186 232.056L267.222 291.676C267.579 291.855 267.757 292.39 267.757 292.926C267.579 293.461 267.222 293.64 266.865 293.818L71.7594 315.417ZM163.154 231.342C159.583 231.342 156.192 232.77 153.514 235.269L74.6154 313.275L264.723 291.855L170.472 233.305C168.152 231.877 165.653 231.342 163.154 231.342Z" fill="#243762"/>
<path opacity="0.29" d="M72.1168 314.525L152.801 234.733C157.62 229.914 165.118 229.021 170.83 232.591L266.865 292.212C267.044 292.39 267.044 292.569 266.865 292.569L71.7598 314.525" fill="#243762"/>
<path d="M161.725 352.188L101.033 436.621L266.685 417.878L188.679 348.975C180.646 341.835 168.151 343.263 161.725 352.188Z" fill="#F7A9B4"/>
<path d="M99.249 437.693L161.012 351.654L161.726 352.189L161.012 351.654C164.225 347.191 169.044 344.335 174.399 343.799C179.754 343.264 185.288 344.87 189.215 348.44L268.65 418.593L99.249 437.693ZM176.72 345.406C176.006 345.406 175.47 345.406 174.756 345.584C169.937 346.12 165.474 348.797 162.618 352.725L102.998 435.551L264.723 417.343L188.323 349.869C184.931 347.012 180.826 345.406 176.72 345.406Z" fill="#243762"/>
<path d="M81.9346 256.689L209.565 242.23C217.955 241.338 225.452 246.336 226.166 253.655L234.377 326.484L198.855 359.151L151.908 364.506L105.497 335.588L97.4644 265.079L81.9346 256.689Z" fill="white"/>
<path d="M151.729 365.399L104.783 335.945L96.9283 265.436L84.79 255.44L209.565 241.338C213.849 240.803 217.954 241.874 221.346 244.194C224.737 246.515 226.701 249.906 227.236 253.655L235.448 326.842L199.39 360.044L151.729 365.399ZM106.568 334.874L152.265 363.435L198.497 358.258L233.484 326.128L225.273 253.833C224.916 250.62 223.131 247.764 220.096 245.622C217.062 243.659 213.313 242.766 209.565 243.123L84.79 257.225L98.3564 264.365L106.568 334.874Z" fill="#243762"/>
<path opacity="0.29" d="M161.727 344.87L101.035 436.621L266.687 417.878L188.681 341.836C180.648 334.695 168.153 335.945 161.727 344.87Z" fill="#243762"/>
<path d="M161.725 352.188L101.033 436.621L266.685 417.878L188.679 348.975C180.646 341.835 168.151 343.263 161.725 352.188Z" fill="#F7A9B4"/>
<path d="M99.249 437.693L161.012 351.654L161.726 352.189L161.012 351.654C164.225 347.191 169.044 344.335 174.399 343.799C179.754 343.264 185.288 344.87 189.215 348.44L268.65 418.593L99.249 437.693ZM176.72 345.406C176.006 345.406 175.47 345.406 174.756 345.584C169.937 346.12 165.474 348.797 162.618 352.725L102.998 435.551L264.723 417.343L188.323 349.869C184.931 347.012 180.826 345.406 176.72 345.406Z" fill="#243762"/>
<path opacity="0.35" d="M167.617 370.754L122.991 432.695L244.731 418.95L187.431 368.612C181.541 363.257 172.258 364.328 167.617 370.754Z" fill="#ECF1F7"/>
<path d="M72.6873 313.941L71.7432 315.456L151.582 365.21L152.526 363.695L72.6873 313.941Z" fill="#243762"/>
<path d="M267.063 292.016L200.31 358.308L201.567 359.575L268.321 293.282L267.063 292.016Z" fill="#243762"/>
<path d="M101.212 297.387L79.0776 299.886L75.5075 268.112C74.7935 262.222 79.0776 256.866 84.9682 256.331L86.0392 256.152C91.9299 255.438 97.285 259.723 97.8205 265.613L101.212 297.387Z" fill="#ECF1F7"/>
<path d="M78.186 300.957L74.4374 268.291C74.0804 265.256 74.9729 262.222 76.9364 259.723C78.9 257.224 81.5776 255.796 84.6121 255.439L85.6832 255.26C88.7177 254.903 91.7523 255.796 94.2514 257.759C96.7504 259.723 98.1785 262.4 98.5355 265.435L102.284 298.101L78.186 300.957ZM87.1112 257.045C86.7542 257.045 86.3972 257.045 86.0402 257.045L84.9691 257.224C82.2916 257.581 79.971 258.83 78.3645 260.794C76.7579 262.757 76.0439 265.435 76.2224 267.934L79.614 298.815L100.142 296.495L96.5719 265.613C96.2149 262.936 94.9654 260.615 93.0018 259.009C91.3953 257.759 89.2532 257.045 87.1112 257.045Z" fill="#243762"/>
<path d="M116.387 280.966C115.851 280.966 115.494 280.609 115.494 280.252C115.494 279.716 115.851 279.359 116.208 279.181L208.673 268.828C209.209 268.828 209.566 269.185 209.744 269.542C209.744 270.077 209.387 270.434 209.03 270.613L116.387 280.966Z" fill="#243762"/>
<path d="M119.956 312.382C119.42 312.382 119.063 312.025 119.063 311.668C119.063 311.133 119.42 310.776 119.777 310.597L212.243 300.244C212.778 300.244 213.135 300.601 213.314 300.958C213.314 301.494 212.957 301.851 212.6 302.029L119.956 312.382Z" fill="#243762"/>
<path d="M118.171 296.496C117.635 296.496 117.278 296.139 117.278 295.782C117.278 295.247 117.635 294.89 117.992 294.711L157.977 290.249C158.513 290.249 158.87 290.606 159.048 290.963C159.048 291.498 158.691 291.855 158.334 292.034L118.171 296.496Z" fill="#243762"/>
<path d="M168.51 290.783C167.974 290.783 167.617 290.426 167.617 290.069C167.617 289.534 167.974 289.177 168.331 288.998L210.458 284.178C210.994 284.178 211.351 284.535 211.529 284.893C211.529 285.428 211.172 285.785 210.815 285.964L168.51 290.783C168.688 290.783 168.688 290.783 168.51 290.783Z" fill="#243762"/>
<path d="M121.919 330.233C121.383 330.233 121.026 329.876 121.026 329.519C121.026 328.984 121.383 328.627 121.74 328.448L161.725 323.985C162.261 323.985 162.618 324.342 162.796 324.699C162.796 325.235 162.439 325.592 162.082 325.77L121.919 330.233C121.919 330.233 122.097 330.233 121.919 330.233Z" fill="#243762"/>
</g>
<defs>
<filter id="filter0_d_1296_313" x="13.4502" y="-7.98328" width="563.022" height="491.11" filterUnits="userSpaceOnUse" color-interpolation-filters="sRGB">
<feFlood flood-opacity="0" result="BackgroundImageFix"/>
<feColorMatrix in="SourceAlpha" type="matrix" values="0 0 0 0 0 0 0 0 0 0 0 0 0 0 0 0 0 0 127 0" result="hardAlpha"/>
<feOffset/>
<feGaussianBlur stdDeviation="4"/>
<feComposite in2="hardAlpha" operator="out"/>
<feColorMatrix type="matrix" values="0 0 0 0 0 0 0 0 0 0 0 0 0 0 0 0 0 0 0.25 0"/>
<feBlend mode="normal" in2="BackgroundImageFix" result="effect1_dropShadow_1296_313"/>
<feBlend mode="normal" in="SourceGraphic" in2="effect1_dropShadow_1296_313" result="shape"/>
</filter>
<clipPath id="clip0_1296_313">
<rect width="568.358" height="475" fill="white"/>
</clipPath>
</defs>
</svg>
