<svg width="24" height="24" viewBox="0 0 24 24" fill="none" xmlns="http://www.w3.org/2000/svg">
<path d="M14.44 14.44L6.25 18.25L10.06 10.06L18.25 6.25M12.25 2.25C10.9368 2.25 9.63642 2.50866 8.42317 3.0112C7.20991 3.51375 6.10752 4.25035 5.17893 5.17893C3.30357 7.0543 2.25 9.59784 2.25 12.25C2.25 14.9022 3.30357 17.4457 5.17893 19.3211C6.10752 20.2497 7.20991 20.9862 8.42317 21.4888C9.63642 21.9913 10.9368 22.25 12.25 22.25C14.9022 22.25 17.4457 21.1964 19.3211 19.3211C21.1964 17.4457 22.25 14.9022 22.25 12.25C22.25 10.9368 21.9913 9.63642 21.4888 8.42317C20.9862 7.20991 20.2497 6.10752 19.3211 5.17893C18.3925 4.25035 17.2901 3.51375 16.0768 3.0112C14.8636 2.50866 13.5632 2.25 12.25 2.25M12.25 11.15C11.9583 11.15 11.6785 11.2659 11.4722 11.4722C11.2659 11.6785 11.15 11.9583 11.15 12.25C11.15 12.5417 11.2659 12.8215 11.4722 13.0278C11.6785 13.2341 11.9583 13.35 12.25 13.35C12.5417 13.35 12.8215 13.2341 13.0278 13.0278C13.2341 12.8215 13.35 12.5417 13.35 12.25C13.35 11.9583 13.2341 11.6785 13.0278 11.4722C12.8215 11.2659 12.5417 11.15 12.25 11.15Z" fill="white"/>
</svg>
