<svg width="28" height="28" viewBox="0 0 28 28" fill="none" xmlns="http://www.w3.org/2000/svg">
<path d="M13.9997 2.37988C7.58301 2.37988 2.33301 7.61822 2.33301 14.0699C2.33301 19.9032 6.60301 24.7449 12.1797 25.6199V17.4532H9.21634V14.0699H12.1797V11.4915C12.1797 8.56322 13.918 6.95322 16.5897 6.95322C17.8613 6.95322 19.1913 7.17488 19.1913 7.17488V10.0565H17.7213C16.2747 10.0565 15.8197 10.9549 15.8197 11.8765V14.0699H19.063L18.538 17.4532H15.8197V25.6199C18.5689 25.1857 21.0722 23.783 22.8779 21.665C24.6836 19.5469 25.6726 16.8531 25.6663 14.0699C25.6663 7.61822 20.4163 2.37988 13.9997 2.37988Z" fill="white"/>
</svg>
