<svg width="100" height="94" viewBox="0 0 100 94" fill="none" xmlns="http://www.w3.org/2000/svg">
<circle cx="54" cy="48" r="46" fill="white"/>
<g clip-path="url(#clip0_1214_1439)">
<path d="M30.25 30.25C31.4945 30.25 32.5 31.2555 32.5 32.5V56.125C32.5 56.7437 33.0062 57.25 33.625 57.25H61.75C62.9945 57.25 64 58.2555 64 59.5C64 60.7445 62.9945 61.75 61.75 61.75H33.625C30.5172 61.75 28 59.2328 28 56.125V32.5C28 31.2555 29.0055 30.25 30.25 30.25ZM39.25 43.75C40.4945 43.75 41.5 44.7555 41.5 46V50.5C41.5 51.7445 40.4945 52.75 39.25 52.75C38.0055 52.75 37 51.7445 37 50.5V46C37 44.7555 38.0055 43.75 39.25 43.75ZM48.25 39.25V50.5C48.25 51.7445 47.2445 52.75 46 52.75C44.7555 52.75 43.75 51.7445 43.75 50.5V39.25C43.75 38.0055 44.7555 37 46 37C47.2445 37 48.25 38.0055 48.25 39.25ZM52.75 41.5C53.9945 41.5 55 42.5055 55 43.75V50.5C55 51.7445 53.9945 52.75 52.75 52.75C51.5055 52.75 50.5 51.7445 50.5 50.5V43.75C50.5 42.5055 51.5055 41.5 52.75 41.5ZM61.75 34.75V50.5C61.75 51.7445 60.7445 52.75 59.5 52.75C58.2555 52.75 57.25 51.7445 57.25 50.5V34.75C57.25 33.5055 58.2555 32.5 59.5 32.5C60.7445 32.5 61.75 33.5055 61.75 34.75Z" fill="#494949"/>
</g>
<circle cx="46" cy="46" r="45.5" stroke="#DAC55A"/>
<defs>
<clipPath id="clip0_1214_1439">
<rect width="36" height="36" fill="white" transform="translate(28 28)"/>
</clipPath>
</defs>
</svg>
