<svg width="130" height="40" viewBox="0 0 130 40" fill="none" xmlns="http://www.w3.org/2000/svg">
<path d="M6.75781 17.0078H11.7969C12.9688 17.0078 13.8281 16.8125 14.375 16.4219C14.9219 16.0052 15.1953 15.4193 15.1953 14.6641C15.1953 14.2734 15.4818 14.0781 16.0547 14.0781C16.6536 14.0781 16.9531 14.2734 16.9531 14.6641V21.8516C16.9531 22.2682 16.6536 22.4766 16.0547 22.4766C15.4818 22.4766 15.1953 22.2682 15.1953 21.8516C15.1953 21.1224 14.9089 20.5365 14.3359 20.0938C13.7891 19.625 12.9297 19.3906 11.7578 19.3906H6.75781V32.9062H3.35938V9.19531C3.35938 8.38802 3.26823 7.8151 3.08594 7.47656C2.92969 7.13802 2.65625 6.91667 2.26562 6.8125C1.875 6.70833 1.5625 6.59115 1.32812 6.46094C1.09375 6.30469 0.976562 6.07031 0.976562 5.75781C0.976562 5.1849 1.34115 4.89844 2.07031 4.89844H18.2422L18.4375 9.625C18.4375 10.1719 18.151 10.4583 17.5781 10.4844C17.0312 10.5104 16.6927 10.237 16.5625 9.66406C16.3802 8.90885 16.1068 8.33594 15.7422 7.94531C15.4036 7.52865 14.6354 7.32031 13.4375 7.32031H8.51562C7.34375 7.32031 6.75781 7.8151 6.75781 8.80469V17.0078ZM25.8203 32.9062H22.4609V17.5156C22.4609 16.7344 22.3828 16.1745 22.2266 15.8359C22.0964 15.4714 21.849 15.237 21.4844 15.1328C21.0938 15.0026 20.7682 14.8724 20.5078 14.7422C20.2734 14.612 20.1562 14.4036 20.1562 14.1172C20.1562 13.5182 20.5469 13.2188 21.3281 13.2188H24.5312C25.3906 13.2188 25.8203 13.6484 25.8203 14.5078V32.9062ZM26.2891 6.73438C26.2891 7.4375 26.0417 8.03646 25.5469 8.53125C25.0521 9.02604 24.4531 9.27344 23.75 9.27344C23.0208 9.27344 22.4089 9.02604 21.9141 8.53125C21.4193 8.03646 21.1719 7.4375 21.1719 6.73438C21.1719 6.05729 21.4193 5.47135 21.9141 4.97656C22.4089 4.48177 23.0208 4.23438 23.75 4.23438C24.4531 4.23438 25.0521 4.48177 25.5469 4.97656C26.0417 5.47135 26.2891 6.05729 26.2891 6.73438ZM35.0391 6.65625V13.2188H40.2734V15.6016H35.0781V28.1016C35.0781 29.0911 35.2865 29.7943 35.7031 30.2109C36.1198 30.6016 36.7969 30.7969 37.7344 30.7969C38.2031 30.7969 38.6458 30.7839 39.0625 30.7578C39.4792 30.7318 40 30.6276 40.625 30.4453V32.8672C40.0781 33.0495 39.4271 33.1667 38.6719 33.2188C37.9167 33.2708 37.3568 33.2969 36.9922 33.2969C35.8203 33.2969 34.8828 33.1797 34.1797 32.9453C33.4766 32.6849 32.9297 32.2943 32.5391 31.7734C32.1745 31.2786 31.9531 30.6536 31.875 29.8984C31.7969 29.1172 31.7578 28.2708 31.7578 27.3594V15.6016H28.9062V13.2188H31.7578V9.89844L35.0391 6.65625ZM51.875 25.1719H41.6406V22.75L51.7578 4.625H55.1953V22.5938H58.5938V25.1719H55.1953V32.9453H51.875V25.1719ZM44.9219 22.5938H51.875V9.97656L44.9219 22.5938Z" fill="white"/>
<path d="M72.3438 25.1719C72.2656 24.026 71.7839 23.0104 70.8984 22.125C70.013 21.2396 68.6328 20.3021 66.7578 19.3125C64.7005 18.2708 63.112 17.099 61.9922 15.7969C60.8984 14.4688 60.3776 12.8411 60.4297 10.9141C60.4818 9.01302 61.1979 7.45052 62.5781 6.22656C63.9844 5.0026 65.8464 4.39062 68.1641 4.39062C69.4922 4.39062 70.599 4.48177 71.4844 4.66406C72.3698 4.82031 73.3203 5.04167 74.3359 5.32812V8.45312C73.2682 8.01042 72.2135 7.64583 71.1719 7.35938C70.1562 7.07292 69.1536 6.92969 68.1641 6.92969C67.0443 6.92969 66.0547 7.30729 65.1953 8.0625C64.362 8.79167 63.9453 9.79427 63.9453 11.0703C63.9453 12.2422 64.4271 13.2839 65.3906 14.1953C66.3542 15.0807 67.8385 16.0573 69.8438 17.125C71.875 18.2188 73.3854 19.4167 74.375 20.7188C75.3906 22.0208 75.8984 23.5312 75.8984 25.25C75.8984 27.4115 75.1562 29.2474 73.6719 30.7578C72.1875 32.2422 70.0651 33.0495 67.3047 33.1797C66.2891 33.2318 65.1953 33.1406 64.0234 32.9062C62.8776 32.6719 61.9401 32.3203 61.2109 31.8516C60.7682 31.5651 60.4427 31.2526 60.2344 30.9141C60.026 30.5755 60.026 30.1849 60.2344 29.7422C60.4167 29.3255 60.7292 29.0521 61.1719 28.9219C61.6146 28.7917 62.0443 28.8698 62.4609 29.1562C63.0078 29.4948 63.75 29.7943 64.6875 30.0547C65.651 30.2891 66.5495 30.3802 67.3828 30.3281C69.1276 30.224 70.4167 29.6901 71.25 28.7266C72.0833 27.763 72.4479 26.5781 72.3438 25.1719ZM94.8047 32.9062H91.4844V29.8594C91.0938 30.5104 90.5859 31.0964 89.9609 31.6172C88.737 32.6589 87.2526 33.1797 85.5078 33.1797C83.9974 33.1797 82.6823 32.5938 81.5625 31.4219C80.4427 30.25 79.8828 28.2448 79.8828 25.4062V17.5156C79.8828 16.7344 79.8047 16.1745 79.6484 15.8359C79.4922 15.4714 79.2708 15.25 78.9844 15.1719C78.5677 15.0677 78.2292 14.9505 77.9688 14.8203C77.7083 14.6901 77.5781 14.4557 77.5781 14.1172C77.5781 13.5182 77.9688 13.2188 78.75 13.2188H81.9141C82.7734 13.2188 83.2031 13.6354 83.2031 14.4688V25.4453C83.2031 27.2422 83.4766 28.5052 84.0234 29.2344C84.5703 29.9375 85.2995 30.2891 86.2109 30.2891C87.7214 30.2891 88.9844 29.612 90 28.2578C90.8333 27.0859 91.3281 25.5625 91.4844 23.6875V17.5156C91.4844 16.7344 91.4062 16.1745 91.25 15.8359C91.0938 15.4714 90.8464 15.237 90.5078 15.1328C90.1172 15.0026 89.7917 14.8724 89.5312 14.7422C89.2969 14.612 89.1797 14.4036 89.1797 14.1172C89.1797 13.5182 89.5703 13.2188 90.3516 13.2188H93.5156C94.375 13.2188 94.8047 13.6484 94.8047 14.5078V32.9062ZM100.312 17.5156C100.312 16.7344 100.247 16.1745 100.117 15.8359C99.987 15.4714 99.7266 15.237 99.3359 15.1328C98.9453 15.0286 98.6328 14.9115 98.3984 14.7812C98.1641 14.625 98.0469 14.4036 98.0469 14.1172C98.0469 13.5182 98.4245 13.2188 99.1797 13.2188H102.227C103.112 13.2188 103.555 13.6484 103.555 14.5078V16.0312C103.971 15.276 104.557 14.625 105.312 14.0781C106.354 13.2969 107.656 12.9062 109.219 12.9062H110.703V16.2266C108.62 15.7839 106.849 16.1224 105.391 17.2422C104.531 17.8672 103.919 18.8438 103.555 20.1719V32.9062H100.312V17.5156ZM115.508 23.5312C115.586 25.4323 116.172 27.0599 117.266 28.4141C118.385 29.7682 119.909 30.5495 121.836 30.7578C122.539 30.8359 123.281 30.8099 124.062 30.6797C124.844 30.5234 125.599 30.276 126.328 29.9375C126.745 29.7292 127.096 29.7031 127.383 29.8594C127.695 29.9896 127.891 30.1719 127.969 30.4062C128.047 30.6927 128.008 30.9792 127.852 31.2656C127.721 31.5521 127.513 31.7734 127.227 31.9297C126.497 32.3724 125.599 32.7109 124.531 32.9453C123.49 33.1536 122.331 33.2188 121.055 33.1406C118.581 32.9844 116.445 31.9818 114.648 30.1328C112.852 28.2578 111.953 25.6276 111.953 22.2422C111.953 19.2474 112.76 16.9167 114.375 15.25C115.99 13.5573 118.086 12.7109 120.664 12.7109C122.826 12.7109 124.635 13.4792 126.094 15.0156C127.578 16.5521 128.32 18.8698 128.32 21.9688V23.5312H115.508ZM115.508 21.0703H124.961C124.961 18.987 124.531 17.4766 123.672 16.5391C122.839 15.5755 121.823 15.0938 120.625 15.0938C119.245 15.0938 118.06 15.6536 117.07 16.7734C116.081 17.8672 115.56 19.2995 115.508 21.0703Z" fill="#BD3C2A"/>
</svg>
