<svg width="187" height="54" viewBox="0 0 187 54" fill="none" xmlns="http://www.w3.org/2000/svg">
<path d="M180.074 54H6.92593C3.1184 54 0 50.9608 0 47.25V6.75001C0 3.0392 3.1184 8.58307e-06 6.92593 8.58307e-06H180.074C183.882 8.58307e-06 187 3.0392 187 6.75001V47.25C187 50.9608 183.882 54 180.074 54Z" fill="white"/>
<path d="M180.074 1.08169C183.281 1.08169 185.89 3.62476 185.89 6.75001V47.25C185.89 50.3753 183.281 52.9183 180.074 52.9183H6.92593C3.71922 52.9183 1.10988 50.3753 1.10988 47.25V6.75001C1.10988 3.62476 3.71922 1.08169 6.92593 1.08169H180.074ZM180.074 8.58307e-06H6.92593C3.1184 8.58307e-06 0 3.0392 0 6.75001V47.25C0 50.9608 3.1184 54 6.92593 54H180.074C183.882 54 187 50.9608 187 47.25V6.75001C187 3.0392 183.882 8.58307e-06 180.074 8.58307e-06Z" fill="#A6A6A6"/>
<path d="M14.4568 10.1864C14.0481 10.6014 13.8115 11.2476 13.8115 12.0844V41.9321C13.8115 42.7689 14.0481 43.415 14.4568 43.83L14.5577 43.9211L31.8006 27.2022V26.8075L14.5577 10.0885L14.4568 10.1864Z" fill="url(#paint0_linear_1229_1559)"/>
<path d="M37.5421 32.7775L31.8008 27.2017V26.8069L37.549 21.2311L37.6777 21.3037L44.4852 25.0608C46.4279 26.127 46.4279 27.8816 44.4852 28.9546L37.6777 32.7049L37.5421 32.7775Z" fill="url(#paint1_linear_1229_1559)"/>
<path d="M37.6778 32.7052L31.8009 27.0045L14.457 43.8297C15.1023 44.4877 16.1545 44.567 17.3512 43.909L37.6778 32.7052Z" fill="url(#paint2_linear_1229_1559)"/>
<path d="M37.6778 21.304L17.3512 10.1002C16.1545 9.44895 15.1023 9.52824 14.457 10.1862L31.8009 27.0046L37.6778 21.304Z" fill="url(#paint3_linear_1229_1559)"/>
<path d="M66.2103 13.5822C66.2103 14.7807 65.8423 15.7407 65.1172 16.4566C64.2835 17.3053 63.1978 17.7323 61.8672 17.7323C60.5956 17.7323 59.5098 17.2981 58.6191 16.4422C57.7266 15.5738 57.2812 14.508 57.2812 13.2323C57.2812 11.9566 57.7266 10.8908 58.6191 10.0295C59.5098 9.16651 60.5956 8.7323 61.8672 8.7323C62.5003 8.7323 63.1039 8.85969 63.6799 9.09653C64.2541 9.33517 64.7215 9.65814 65.0601 10.0565L64.2909 10.8136C63.7002 10.1336 62.896 9.79809 61.8672 9.79809C60.9397 9.79809 60.1355 10.1139 59.4528 10.7508C58.7774 11.3896 58.4388 12.2168 58.4388 13.2323C58.4388 14.2479 58.7774 15.0822 59.4528 15.7209C60.1355 16.3507 60.9397 16.6737 61.8672 16.6737C62.8518 16.6737 63.6799 16.3507 64.3332 15.7138C64.7639 15.2921 65.0086 14.7108 65.073 13.9679H61.8672V12.9309H66.1441C66.1956 13.1551 66.2103 13.3723 66.2103 13.5822Z" fill="black" stroke="black" stroke-width="0.0862222" stroke-miterlimit="10"/>
<path d="M72.9955 9.98614H68.9781V12.7134H72.5998V13.7505H68.9781V16.4778H72.9955V17.5346H67.8408V8.92932H72.9955V9.98614Z" fill="black" stroke="black" stroke-width="0.0862222" stroke-miterlimit="10"/>
<path d="M77.7841 17.5346H76.6468V9.98614H74.1826V8.92932H80.25V9.98614H77.7841V17.5346Z" fill="black" stroke="black" stroke-width="0.0862222" stroke-miterlimit="10"/>
<path d="M84.6406 17.5346V8.92932H85.7765V17.5346H84.6406Z" fill="black" stroke="black" stroke-width="0.0862222" stroke-miterlimit="10"/>
<path d="M90.8094 17.5346H89.6813V9.98614H87.208V8.92932H93.2828V9.98614H90.8094V17.5346Z" fill="black" stroke="black" stroke-width="0.0862222" stroke-miterlimit="10"/>
<path d="M104.77 16.4278C103.9 17.298 102.821 17.7322 101.535 17.7322C100.241 17.7322 99.1628 17.298 98.2923 16.4278C97.4237 15.5593 96.9912 14.4935 96.9912 13.2322C96.9912 11.9708 97.4237 10.905 98.2923 10.0366C99.1628 9.16639 100.241 8.73218 101.535 8.73218C102.814 8.73218 103.892 9.16639 104.763 10.0438C105.639 10.9194 106.071 11.978 106.071 13.2322C106.071 14.4935 105.639 15.5593 104.77 16.4278ZM99.1333 15.7065C99.7885 16.3506 100.585 16.6736 101.535 16.6736C102.477 16.6736 103.281 16.3506 103.929 15.7065C104.582 15.0623 104.914 14.2352 104.914 13.2322C104.914 12.2292 104.582 11.402 103.929 10.7579C103.281 10.1138 102.477 9.79079 101.535 9.79079C100.585 9.79079 99.7885 10.1138 99.1333 10.7579C98.48 11.402 98.1488 12.2292 98.1488 13.2322C98.1488 14.2352 98.48 15.0623 99.1333 15.7065Z" fill="black" stroke="black" stroke-width="0.0862222" stroke-miterlimit="10"/>
<path d="M107.666 17.5346V8.92932H109.046L113.338 15.6219H113.387L113.338 13.9676V8.92932H114.473V17.5346H113.288L108.794 10.5119H108.744L108.794 12.1733V17.5346H107.666Z" fill="black" stroke="black" stroke-width="0.0862222" stroke-miterlimit="10"/>
<path d="M94.6364 29.2571C91.3606 29.2571 88.6846 31.686 88.6846 35.0373C88.6846 38.3614 91.3606 40.8158 94.6364 40.8158C97.9191 40.8158 100.595 38.3614 100.595 35.0373C100.595 31.686 97.9191 29.2571 94.6364 29.2571ZM94.6364 38.5397C92.839 38.5397 91.2926 37.0942 91.2926 35.0373C91.2926 32.9532 92.839 31.5332 94.6364 31.5332C96.4338 31.5332 97.9871 32.9532 97.9871 35.0373C97.9871 37.0942 96.4338 38.5397 94.6364 38.5397ZM81.6502 29.2571C78.3675 29.2571 75.6984 31.686 75.6984 35.0373C75.6984 38.3614 78.3675 40.8158 81.6502 40.8158C84.9312 40.8158 87.602 38.3614 87.602 35.0373C87.602 31.686 84.9312 29.2571 81.6502 29.2571ZM81.6502 38.5397C79.8511 38.5397 78.2995 37.0942 78.2995 35.0373C78.2995 32.9532 79.8511 31.5332 81.6502 31.5332C83.4476 31.5332 84.9939 32.9532 84.9939 35.0373C84.9939 37.0942 83.4476 38.5397 81.6502 38.5397ZM66.1972 31.0287V33.4848H72.217C72.0409 34.8572 71.5702 35.8662 70.8484 36.5694C69.9698 37.4187 68.6013 38.3614 66.1972 38.3614C62.4926 38.3614 59.5917 35.4483 59.5917 31.8389C59.5917 28.2295 62.4926 25.3164 66.1972 25.3164C68.2003 25.3164 69.6577 26.0791 70.7334 27.0677L72.5099 25.3368C71.0054 23.9372 69.004 22.862 66.1972 22.862C61.1171 22.862 56.8477 26.8893 56.8477 31.8389C56.8477 36.7885 61.1171 40.8158 66.1972 40.8158C68.943 40.8158 71.0053 39.9393 72.6267 38.2951C74.2881 36.6764 74.8058 34.4003 74.8058 32.5625C74.8058 31.9918 74.757 31.4669 74.6699 31.0287H66.1972ZM129.386 32.9328C128.897 31.6402 127.385 29.2571 124.306 29.2571C121.255 29.2571 118.715 31.5994 118.715 35.0373C118.715 38.2747 121.229 40.8158 124.599 40.8158C127.324 40.8158 128.897 39.1971 129.543 38.2544L127.521 36.9414C126.846 37.9028 125.928 38.5397 124.599 38.5397C123.28 38.5397 122.333 37.9503 121.726 36.7885L129.66 33.5901L129.386 32.9328ZM121.297 34.8572C121.229 32.6287 123.074 31.4873 124.395 31.4873C125.431 31.4873 126.309 31.9918 126.602 32.7137L121.297 34.8572ZM114.849 40.4642H117.457V23.4786H114.849V40.4642ZM110.578 30.5446H110.49C109.905 29.8686 108.787 29.2571 107.372 29.2571C104.401 29.2571 101.685 31.7981 101.685 35.056C101.685 38.2951 104.401 40.8158 107.372 40.8158C108.787 40.8158 109.905 40.1992 110.49 39.5028H110.578V40.3317C110.578 42.5415 109.366 43.7288 107.412 43.7288C105.818 43.7288 104.83 42.6078 104.422 41.6651L102.154 42.5874C102.807 44.1195 104.539 46.0049 107.412 46.0049C110.469 46.0049 113.05 44.252 113.05 39.9869V29.6087H110.578V30.5446ZM107.595 38.5397C105.797 38.5397 104.293 37.0739 104.293 35.056C104.293 33.0194 105.797 31.5332 107.595 31.5332C109.366 31.5332 110.762 33.0194 110.762 35.056C110.762 37.0739 109.366 38.5397 107.595 38.5397ZM141.597 23.4786H135.359V40.4642H137.96V34.0283H141.597C144.486 34.0283 147.318 31.9918 147.318 28.7526C147.318 25.5152 144.479 23.4786 141.597 23.4786ZM141.665 31.6657H137.96V25.8413H141.665C143.607 25.8413 144.716 27.4125 144.716 28.7526C144.716 30.0673 143.607 31.6657 141.665 31.6657ZM157.744 29.2248C155.864 29.2248 153.91 30.0333 153.106 31.8253L155.415 32.768C155.911 31.8253 156.825 31.5196 157.791 31.5196C159.14 31.5196 160.509 32.3094 160.53 33.7039V33.8823C160.059 33.6173 159.051 33.2249 157.812 33.2249C155.326 33.2249 152.793 34.5583 152.793 37.0467C152.793 39.3228 154.829 40.7886 157.118 40.7886C158.868 40.7886 159.834 40.0192 160.441 39.124H160.53V40.437H163.042V33.9213C163.042 30.9098 160.734 29.2248 157.744 29.2248ZM157.43 38.5329C156.579 38.5329 155.394 38.1219 155.394 37.0942C155.394 35.7796 156.872 35.2751 158.152 35.2751C159.297 35.2751 159.834 35.5214 160.53 35.8458C160.326 37.4187 158.936 38.5329 157.43 38.5329ZM172.194 29.5968L169.204 36.9601H169.116L166.025 29.5968H163.22L167.864 39.8867L165.214 45.6125H167.932L175.088 29.5968H172.194ZM148.748 40.4642H151.356V23.4786H148.748V40.4642Z" fill="black"/>
<defs>
<linearGradient id="paint0_linear_1229_1559" x1="30.2697" y1="42.2429" x2="7.62966" y2="18.9026" gradientUnits="userSpaceOnUse">
<stop stop-color="#00A0FF"/>
<stop offset="0.0066" stop-color="#00A1FF"/>
<stop offset="0.2601" stop-color="#00BEFF"/>
<stop offset="0.5122" stop-color="#00D2FF"/>
<stop offset="0.7604" stop-color="#00DFFF"/>
<stop offset="1" stop-color="#00E3FF"/>
</linearGradient>
<linearGradient id="paint1_linear_1229_1559" x1="47.015" y1="27.0024" x2="13.3473" y2="27.0024" gradientUnits="userSpaceOnUse">
<stop stop-color="#FFE000"/>
<stop offset="0.4087" stop-color="#FFBD00"/>
<stop offset="0.7754" stop-color="#FFA500"/>
<stop offset="1" stop-color="#FF9C00"/>
</linearGradient>
<linearGradient id="paint2_linear_1229_1559" x1="34.4821" y1="23.9056" x2="3.78043" y2="-7.74575" gradientUnits="userSpaceOnUse">
<stop stop-color="#FF3A44"/>
<stop offset="1" stop-color="#C31162"/>
</linearGradient>
<linearGradient id="paint3_linear_1229_1559" x1="10.0912" y1="53.76" x2="23.8009" y2="39.6264" gradientUnits="userSpaceOnUse">
<stop stop-color="#32A071"/>
<stop offset="0.0685" stop-color="#2DA771"/>
<stop offset="0.4762" stop-color="#15CF74"/>
<stop offset="0.8009" stop-color="#06E775"/>
<stop offset="1" stop-color="#00F076"/>
</linearGradient>
</defs>
</svg>
