<svg width="589" height="126" viewBox="0 0 589 126" fill="none" xmlns="http://www.w3.org/2000/svg">
<path d="M531.33 11.9475L531.33 11.9475C531.971 9.11222 532.64 6.39062 533.201 4.29196C533.388 3.59244 533.562 2.96522 533.719 2.42794C533.812 2.68155 533.911 2.96048 534.014 3.26408C534.721 5.33499 535.598 8.39283 536.47 11.9356C540.62 28.7934 544.291 36.2288 552.142 43.114L552.142 43.114C555.331 45.9102 560.473 48.8455 566.11 51.3236C571.76 53.8075 577.995 55.87 583.414 56.8833L584.534 57.0926L579.137 58.5653C567.446 61.7559 558.913 65.5511 552.576 70.8996C546.218 76.2657 542.149 83.1278 539.262 92.3003C537.421 98.1521 535.449 105.708 534.885 109.111L534.885 109.111C534.622 110.7 534.367 111.807 534.126 112.49C534.073 112.381 534.016 112.256 533.955 112.113C533.736 111.595 533.494 110.909 533.229 110.04C532.7 108.303 532.099 105.905 531.405 102.808L530.429 103.027L531.405 102.808C528.542 90.0343 524.934 81.1241 518.89 74.4634C512.843 67.799 504.46 63.4995 492.296 59.7217L492.296 59.7217L483.701 57.0528L486.824 56.269C500.498 52.8388 510.168 48.418 517.16 41.4592C524.156 34.4949 528.36 25.098 531.33 11.9475Z" stroke="#DDC99C" stroke-width="2"/>
<rect x="133" y="97" width="143" height="27" fill="#E8DDAC"/>
<path d="M17.292 50.44C14.3 50.44 11.6747 49.78 9.416 48.46C7.18667 47.14 5.456 45.292 4.224 42.916C2.992 40.5107 2.376 37.6947 2.376 34.468C2.376 32.0333 2.728 29.848 3.432 27.912C4.136 25.9467 5.13333 24.2747 6.424 22.896C7.744 21.488 9.31333 20.4173 11.132 19.684C12.98 18.9213 15.0333 18.54 17.292 18.54C20.3133 18.54 22.9387 19.2 25.168 20.52C27.3973 21.8107 29.128 23.644 30.36 26.02C31.592 28.396 32.208 31.1973 32.208 34.424C32.208 36.8587 31.856 39.0587 31.152 41.024C30.448 42.9893 29.436 44.676 28.116 46.084C26.8253 47.492 25.256 48.5773 23.408 49.34C21.5893 50.0733 19.5507 50.44 17.292 50.44ZM17.292 45.6C19.1987 45.6 20.812 45.16 22.132 44.28C23.4813 43.4 24.508 42.124 25.212 40.452C25.9453 38.78 26.312 36.7853 26.312 34.468C26.312 30.948 25.52 28.22 23.936 26.284C22.3813 24.348 20.1667 23.38 17.292 23.38C15.4147 23.38 13.8013 23.82 12.452 24.7C11.1027 25.5507 10.0613 26.812 9.328 28.484C8.624 30.1267 8.272 32.1213 8.272 34.468C8.272 37.9587 9.064 40.6867 10.648 42.652C12.232 44.6173 14.4467 45.6 17.292 45.6ZM40.1349 50.352C39.2549 50.352 38.5802 50.1173 38.1109 49.648C37.6415 49.1493 37.4069 48.4453 37.4069 47.536V30.904C37.4069 29.9947 37.6415 29.3053 38.1109 28.836C38.5802 28.3667 39.2402 28.132 40.0909 28.132C40.9415 28.132 41.6015 28.3667 42.0709 28.836C42.5402 29.3053 42.7749 29.9947 42.7749 30.904V33.896L42.2909 32.796C42.9362 31.2413 43.9335 30.068 45.2829 29.276C46.6615 28.4547 48.2162 28.044 49.9469 28.044C51.6775 28.044 53.1002 28.3667 54.2149 29.012C55.3295 29.6573 56.1655 30.64 56.7229 31.96C57.2802 33.2507 57.5589 34.8933 57.5589 36.888V47.536C57.5589 48.4453 57.3242 49.1493 56.8549 49.648C56.3855 50.1173 55.7109 50.352 54.8309 50.352C53.9509 50.352 53.2615 50.1173 52.7629 49.648C52.2935 49.1493 52.0589 48.4453 52.0589 47.536V37.152C52.0589 35.48 51.7362 34.2627 51.0909 33.5C50.4749 32.7373 49.5069 32.356 48.1869 32.356C46.5735 32.356 45.2829 32.8693 44.3149 33.896C43.3762 34.8933 42.9069 36.228 42.9069 37.9V47.536C42.9069 49.4133 41.9829 50.352 40.1349 50.352ZM70.4932 50.44C68.0585 50.44 66.2252 49.7507 64.9932 48.372C63.7612 46.964 63.1452 44.9107 63.1452 42.212V21.4C63.1452 20.4907 63.3798 19.8013 63.8492 19.332C64.3185 18.8627 64.9932 18.628 65.8732 18.628C66.7532 18.628 67.4278 18.8627 67.8972 19.332C68.3958 19.8013 68.6452 20.4907 68.6452 21.4V41.948C68.6452 43.2973 68.9238 44.2947 69.4812 44.94C70.0678 45.5853 70.8892 45.908 71.9452 45.908C72.1798 45.908 72.3998 45.908 72.6052 45.908C72.8105 45.8787 73.0158 45.8493 73.2212 45.82C73.6318 45.7613 73.9105 45.8787 74.0572 46.172C74.2038 46.436 74.2772 46.9933 74.2772 47.844C74.2772 48.5773 74.1305 49.1493 73.8372 49.56C73.5438 49.9707 73.0598 50.22 72.3852 50.308C72.0918 50.3373 71.7838 50.3667 71.4612 50.396C71.1385 50.4253 70.8158 50.44 70.4932 50.44ZM82.0933 58.272C81.448 58.272 80.92 58.096 80.5093 57.744C80.0987 57.4213 79.8493 56.9813 79.7613 56.424C79.7027 55.8667 79.8053 55.28 80.0693 54.664L83.0613 48.02V50.308L75.0533 31.784C74.7893 31.1387 74.7013 30.5373 74.7893 29.98C74.8773 29.4227 75.1413 28.9827 75.5813 28.66C76.0507 28.308 76.6813 28.132 77.4733 28.132C78.148 28.132 78.6907 28.2933 79.1013 28.616C79.512 28.9093 79.8787 29.4813 80.2013 30.332L86.1413 45.16H84.8213L90.8933 30.288C91.216 29.4667 91.5973 28.9093 92.0373 28.616C92.4773 28.2933 93.064 28.132 93.7973 28.132C94.4427 28.132 94.956 28.308 95.3373 28.66C95.7187 28.9827 95.9533 29.4227 96.0413 29.98C96.1293 30.508 96.0267 31.0947 95.7333 31.74L85.0413 56.16C84.66 56.9813 84.2493 57.5387 83.8093 57.832C83.3693 58.1253 82.7973 58.272 82.0933 58.272ZM120.059 50.352C119.325 50.352 118.695 50.176 118.167 49.824C117.639 49.4427 117.213 48.856 116.891 48.064L110.511 31.784C110.247 31.08 110.159 30.464 110.247 29.936C110.364 29.3787 110.643 28.9387 111.083 28.616C111.523 28.2933 112.109 28.132 112.843 28.132C113.488 28.132 114.016 28.2933 114.427 28.616C114.837 28.9093 115.189 29.4813 115.483 30.332L120.807 44.984H119.795L125.295 29.98C125.529 29.3347 125.837 28.8653 126.219 28.572C126.629 28.2787 127.157 28.132 127.803 28.132C128.448 28.132 128.976 28.2933 129.387 28.616C129.797 28.9093 130.105 29.364 130.311 29.98L135.723 44.984H134.799L140.167 30.2C140.46 29.408 140.827 28.8653 141.267 28.572C141.736 28.2787 142.249 28.132 142.807 28.132C143.511 28.132 144.053 28.308 144.435 28.66C144.816 29.012 145.036 29.4667 145.095 30.024C145.153 30.552 145.051 31.1387 144.787 31.784L138.451 48.064C138.157 48.8267 137.732 49.3987 137.175 49.78C136.647 50.1613 136.016 50.352 135.283 50.352C134.549 50.352 133.904 50.1613 133.347 49.78C132.819 49.3987 132.408 48.8267 132.115 48.064L126.351 32.796H128.859L123.227 48.02C122.933 48.812 122.523 49.3987 121.995 49.78C121.467 50.1613 120.821 50.352 120.059 50.352ZM158.637 50.44C156.408 50.44 154.472 49.9853 152.829 49.076C151.186 48.1667 149.91 46.876 149.001 45.204C148.092 43.5027 147.637 41.508 147.637 39.22C147.637 37.4893 147.886 35.9493 148.385 34.6C148.913 33.2213 149.661 32.048 150.629 31.08C151.597 30.0827 152.756 29.3347 154.105 28.836C155.454 28.308 156.965 28.044 158.637 28.044C160.866 28.044 162.802 28.4987 164.445 29.408C166.088 30.3173 167.364 31.608 168.273 33.28C169.182 34.952 169.637 36.932 169.637 39.22C169.637 40.9507 169.373 42.5053 168.845 43.884C168.346 45.2627 167.613 46.4507 166.645 47.448C165.677 48.416 164.518 49.164 163.169 49.692C161.82 50.1907 160.309 50.44 158.637 50.44ZM158.637 46.26C159.722 46.26 160.676 45.996 161.497 45.468C162.318 44.94 162.949 44.1627 163.389 43.136C163.858 42.08 164.093 40.7747 164.093 39.22C164.093 36.8733 163.594 35.128 162.597 33.984C161.6 32.8107 160.28 32.224 158.637 32.224C157.552 32.224 156.598 32.488 155.777 33.016C154.956 33.5147 154.31 34.292 153.841 35.348C153.401 36.3747 153.181 37.6653 153.181 39.22C153.181 41.5373 153.68 43.2973 154.677 44.5C155.674 45.6733 156.994 46.26 158.637 46.26ZM176.992 50.352C176.083 50.352 175.379 50.1173 174.88 49.648C174.411 49.1493 174.176 48.4453 174.176 47.536V30.904C174.176 29.9947 174.411 29.3053 174.88 28.836C175.35 28.3667 176.01 28.132 176.86 28.132C177.711 28.132 178.371 28.3667 178.84 28.836C179.31 29.3053 179.544 29.9947 179.544 30.904V33.676H179.104C179.515 31.916 180.322 30.5813 181.524 29.672C182.727 28.7627 184.326 28.22 186.32 28.044C186.936 27.9853 187.42 28.1467 187.772 28.528C188.154 28.88 188.374 29.4373 188.432 30.2C188.491 30.9333 188.315 31.5347 187.904 32.004C187.523 32.444 186.936 32.708 186.144 32.796L185.176 32.884C183.387 33.06 182.038 33.6173 181.128 34.556C180.219 35.4653 179.764 36.756 179.764 38.428V47.536C179.764 48.4453 179.53 49.1493 179.06 49.648C178.591 50.1173 177.902 50.352 176.992 50.352ZM194.135 50.352C193.255 50.352 192.58 50.1173 192.111 49.648C191.642 49.1493 191.407 48.4453 191.407 47.536V21.4C191.407 20.4907 191.642 19.8013 192.111 19.332C192.58 18.8627 193.255 18.628 194.135 18.628C195.015 18.628 195.69 18.8627 196.159 19.332C196.658 19.8013 196.907 20.4907 196.907 21.4V37.636H196.995L204.255 29.98C204.842 29.3933 205.355 28.9387 205.795 28.616C206.235 28.2933 206.836 28.132 207.599 28.132C208.362 28.132 208.934 28.3373 209.315 28.748C209.726 29.1293 209.931 29.5987 209.931 30.156C209.931 30.7133 209.667 31.2707 209.139 31.828L201.483 39.924V37.636L209.887 46.7C210.415 47.2573 210.65 47.8293 210.591 48.416C210.562 48.9733 210.327 49.4427 209.887 49.824C209.447 50.176 208.89 50.352 208.215 50.352C207.394 50.352 206.734 50.1907 206.235 49.868C205.766 49.5453 205.238 49.0613 204.651 48.416L196.995 40.408H196.907V47.536C196.907 49.4133 195.983 50.352 194.135 50.352ZM224.379 50.44C222.15 50.44 220.214 49.9853 218.571 49.076C216.928 48.1667 215.652 46.876 214.743 45.204C213.834 43.5027 213.379 41.508 213.379 39.22C213.379 37.4893 213.628 35.9493 214.127 34.6C214.655 33.2213 215.403 32.048 216.371 31.08C217.339 30.0827 218.498 29.3347 219.847 28.836C221.196 28.308 222.707 28.044 224.379 28.044C226.608 28.044 228.544 28.4987 230.187 29.408C231.83 30.3173 233.106 31.608 234.015 33.28C234.924 34.952 235.379 36.932 235.379 39.22C235.379 40.9507 235.115 42.5053 234.587 43.884C234.088 45.2627 233.355 46.4507 232.387 47.448C231.419 48.416 230.26 49.164 228.911 49.692C227.562 50.1907 226.051 50.44 224.379 50.44ZM224.379 46.26C225.464 46.26 226.418 45.996 227.239 45.468C228.06 44.94 228.691 44.1627 229.131 43.136C229.6 42.08 229.835 40.7747 229.835 39.22C229.835 36.8733 229.336 35.128 228.339 33.984C227.342 32.8107 226.022 32.224 224.379 32.224C223.294 32.224 222.34 32.488 221.519 33.016C220.698 33.5147 220.052 34.292 219.583 35.348C219.143 36.3747 218.923 37.6653 218.923 39.22C218.923 41.5373 219.422 43.2973 220.419 44.5C221.416 45.6733 222.736 46.26 224.379 46.26ZM247.707 50.44C245.917 50.44 244.436 50.1173 243.263 49.472C242.089 48.7973 241.209 47.8 240.623 46.48C240.065 45.16 239.787 43.5173 239.787 41.552V30.904C239.787 29.9653 240.021 29.276 240.491 28.836C240.96 28.3667 241.635 28.132 242.515 28.132C243.395 28.132 244.069 28.3667 244.539 28.836C245.037 29.276 245.287 29.9653 245.287 30.904V41.64C245.287 43.1653 245.595 44.2947 246.211 45.028C246.827 45.7613 247.809 46.128 249.159 46.128C250.625 46.128 251.828 45.6293 252.767 44.632C253.705 43.6053 254.175 42.256 254.175 40.584V30.904C254.175 29.9653 254.409 29.276 254.879 28.836C255.348 28.3667 256.023 28.132 256.903 28.132C257.783 28.132 258.457 28.3667 258.927 28.836C259.425 29.276 259.675 29.9653 259.675 30.904V47.536C259.675 49.4133 258.78 50.352 256.991 50.352C256.14 50.352 255.48 50.1173 255.011 49.648C254.541 49.1493 254.307 48.4453 254.307 47.536V44.192L254.923 45.512C254.307 47.096 253.368 48.3133 252.107 49.164C250.875 50.0147 249.408 50.44 247.707 50.44ZM275.255 50.44C273.348 50.44 271.75 50.1173 270.459 49.472C269.198 48.8267 268.259 47.888 267.643 46.656C267.027 45.3947 266.719 43.84 266.719 41.992V32.62H264.431C263.727 32.62 263.184 32.444 262.803 32.092C262.422 31.7107 262.231 31.1973 262.231 30.552C262.231 29.8773 262.422 29.364 262.803 29.012C263.184 28.66 263.727 28.484 264.431 28.484H266.719V24.48C266.719 23.5707 266.954 22.8813 267.423 22.412C267.922 21.9427 268.611 21.708 269.491 21.708C270.371 21.708 271.046 21.9427 271.515 22.412C271.984 22.8813 272.219 23.5707 272.219 24.48V28.484H276.883C277.587 28.484 278.13 28.66 278.511 29.012C278.892 29.364 279.083 29.8773 279.083 30.552C279.083 31.1973 278.892 31.7107 278.511 32.092C278.13 32.444 277.587 32.62 276.883 32.62H272.219V41.684C272.219 43.092 272.527 44.148 273.143 44.852C273.759 45.556 274.756 45.908 276.135 45.908C276.634 45.908 277.074 45.864 277.455 45.776C277.836 45.688 278.174 45.6293 278.467 45.6C278.819 45.5707 279.112 45.688 279.347 45.952C279.582 46.1867 279.699 46.6853 279.699 47.448C279.699 48.0347 279.596 48.5627 279.391 49.032C279.215 49.472 278.878 49.78 278.379 49.956C277.998 50.0733 277.499 50.176 276.883 50.264C276.267 50.3813 275.724 50.44 275.255 50.44ZM285.012 41.068C284.454 41.068 284.014 40.892 283.692 40.54C283.398 40.188 283.222 39.6893 283.164 39.044L281.844 22.236C281.756 21.1507 281.99 20.2853 282.548 19.64C283.105 18.9653 283.926 18.628 285.012 18.628C286.068 18.628 286.86 18.9653 287.388 19.64C287.945 20.2853 288.18 21.1507 288.092 22.236L286.772 39.044C286.742 39.6893 286.566 40.188 286.244 40.54C285.95 40.892 285.54 41.068 285.012 41.068ZM285.012 50.22C284.014 50.22 283.208 49.912 282.592 49.296C282.005 48.68 281.712 47.888 281.712 46.92C281.712 45.9813 282.005 45.2187 282.592 44.632C283.208 44.016 284.014 43.708 285.012 43.708C286.038 43.708 286.83 44.016 287.388 44.632C287.974 45.2187 288.268 45.9813 288.268 46.92C288.268 47.888 287.974 48.68 287.388 49.296C286.83 49.912 286.038 50.22 285.012 50.22ZM300.023 41.024C299.466 41.024 299.026 40.848 298.703 40.496C298.41 40.1147 298.263 39.616 298.263 39C298.263 38.0907 298.366 37.24 298.571 36.448C298.806 35.6267 299.172 34.8053 299.671 33.984C300.17 33.1627 300.83 32.2973 301.651 31.388C302.267 30.684 302.751 30.068 303.103 29.54C303.484 28.9827 303.748 28.4547 303.895 27.956C304.071 27.4573 304.159 26.944 304.159 26.416C304.159 25.448 303.807 24.6853 303.103 24.128C302.399 23.5707 301.402 23.292 300.111 23.292C298.938 23.292 297.867 23.4533 296.899 23.776C295.96 24.0693 295.007 24.4947 294.039 25.052C293.394 25.4333 292.807 25.6093 292.279 25.58C291.78 25.5213 291.37 25.3307 291.047 25.008C290.724 24.6853 290.519 24.2893 290.431 23.82C290.343 23.3507 290.416 22.8667 290.651 22.368C290.886 21.8693 291.311 21.4147 291.927 21.004C293.13 20.212 294.508 19.6107 296.063 19.2C297.618 18.76 299.084 18.54 300.463 18.54C302.311 18.54 303.924 18.848 305.303 19.464C306.711 20.08 307.796 20.9307 308.559 22.016C309.351 23.1013 309.747 24.3773 309.747 25.844C309.747 26.7533 309.615 27.6187 309.351 28.44C309.087 29.232 308.662 30.0387 308.075 30.86C307.488 31.652 306.682 32.5173 305.655 33.456C304.746 34.2773 304.012 35.0253 303.455 35.7C302.927 36.3747 302.531 37.02 302.267 37.636C302.032 38.252 301.871 38.912 301.783 39.616C301.754 40.0267 301.578 40.364 301.255 40.628C300.962 40.892 300.551 41.024 300.023 41.024ZM299.935 50.22C298.938 50.22 298.131 49.912 297.515 49.296C296.928 48.68 296.635 47.888 296.635 46.92C296.635 45.9813 296.928 45.2187 297.515 44.632C298.131 44.016 298.938 43.708 299.935 43.708C300.962 43.708 301.754 44.016 302.311 44.632C302.898 45.2187 303.191 45.9813 303.191 46.92C303.191 47.888 302.898 48.68 302.311 49.296C301.754 49.912 300.962 50.22 299.935 50.22ZM328.38 50.352C327.529 50.352 326.869 50.1173 326.4 49.648C325.96 49.1787 325.74 48.504 325.74 47.624V21.444C325.74 20.5347 325.96 19.8453 326.4 19.376C326.869 18.8773 327.47 18.628 328.204 18.628C328.878 18.628 329.377 18.76 329.7 19.024C330.052 19.2587 330.462 19.6693 330.932 20.256L347.784 42.124H346.64V21.312C346.64 20.4613 346.86 19.8013 347.3 19.332C347.769 18.8627 348.429 18.628 349.28 18.628C350.13 18.628 350.776 18.8627 351.216 19.332C351.656 19.8013 351.876 20.4613 351.876 21.312V47.712C351.876 48.5333 351.67 49.1787 351.26 49.648C350.849 50.1173 350.292 50.352 349.588 50.352C348.913 50.352 348.37 50.22 347.96 49.956C347.578 49.692 347.153 49.2667 346.684 48.68L329.876 26.812H330.976V47.624C330.976 48.504 330.756 49.1787 330.316 49.648C329.876 50.1173 329.23 50.352 328.38 50.352ZM367.938 50.44C365.708 50.44 363.772 49.9853 362.13 49.076C360.487 48.1667 359.211 46.876 358.302 45.204C357.392 43.5027 356.938 41.508 356.938 39.22C356.938 37.4893 357.187 35.9493 357.686 34.6C358.214 33.2213 358.962 32.048 359.93 31.08C360.898 30.0827 362.056 29.3347 363.406 28.836C364.755 28.308 366.266 28.044 367.938 28.044C370.167 28.044 372.103 28.4987 373.746 29.408C375.388 30.3173 376.664 31.608 377.574 33.28C378.483 34.952 378.938 36.932 378.938 39.22C378.938 40.9507 378.674 42.5053 378.146 43.884C377.647 45.2627 376.914 46.4507 375.946 47.448C374.978 48.416 373.819 49.164 372.47 49.692C371.12 50.1907 369.61 50.44 367.938 50.44ZM367.938 46.26C369.023 46.26 369.976 45.996 370.798 45.468C371.619 44.94 372.25 44.1627 372.69 43.136C373.159 42.08 373.394 40.7747 373.394 39.22C373.394 36.8733 372.895 35.128 371.898 33.984C370.9 32.8107 369.58 32.224 367.938 32.224C366.852 32.224 365.899 32.488 365.078 33.016C364.256 33.5147 363.611 34.292 363.142 35.348C362.702 36.3747 362.482 37.6653 362.482 39.22C362.482 41.5373 362.98 43.2973 363.978 44.5C364.975 45.6733 366.295 46.26 367.938 46.26ZM386.005 54.708C385.623 55.1773 385.213 55.4413 384.773 55.5C384.362 55.588 383.995 55.5147 383.673 55.28C383.35 55.0453 383.174 54.708 383.145 54.268C383.115 53.8573 383.306 53.4027 383.717 52.904C384.303 52.1707 384.699 51.4373 384.905 50.704C385.11 49.9707 385.213 49.3107 385.213 48.724L385.433 50.22C384.406 50.22 383.57 49.9267 382.925 49.34C382.309 48.724 382.001 47.9173 382.001 46.92C382.001 45.9813 382.294 45.2187 382.881 44.632C383.467 44.016 384.259 43.708 385.257 43.708C386.283 43.708 387.09 44.06 387.677 44.764C388.263 45.4387 388.557 46.4213 388.557 47.712C388.557 48.416 388.483 49.1493 388.337 49.912C388.219 50.6453 387.97 51.408 387.589 52.2C387.237 53.0213 386.709 53.8573 386.005 54.708ZM408.864 50.352C407.955 50.352 407.251 50.1027 406.752 49.604C406.283 49.076 406.048 48.3573 406.048 47.448V21.532C406.048 20.5933 406.283 19.8747 406.752 19.376C407.251 18.8773 407.955 18.628 408.864 18.628C409.773 18.628 410.463 18.8773 410.932 19.376C411.431 19.8747 411.68 20.5933 411.68 21.532V47.448C411.68 48.3573 411.445 49.076 410.976 49.604C410.507 50.1027 409.803 50.352 408.864 50.352ZM427.794 50.44C425.887 50.44 424.289 50.1173 422.998 49.472C421.737 48.8267 420.798 47.888 420.182 46.656C419.566 45.3947 419.258 43.84 419.258 41.992V32.62H416.97C416.266 32.62 415.723 32.444 415.342 32.092C414.961 31.7107 414.77 31.1973 414.77 30.552C414.77 29.8773 414.961 29.364 415.342 29.012C415.723 28.66 416.266 28.484 416.97 28.484H419.258V24.48C419.258 23.5707 419.493 22.8813 419.962 22.412C420.461 21.9427 421.15 21.708 422.03 21.708C422.91 21.708 423.585 21.9427 424.054 22.412C424.523 22.8813 424.758 23.5707 424.758 24.48V28.484H429.422C430.126 28.484 430.669 28.66 431.05 29.012C431.431 29.364 431.622 29.8773 431.622 30.552C431.622 31.1973 431.431 31.7107 431.05 32.092C430.669 32.444 430.126 32.62 429.422 32.62H424.758V41.684C424.758 43.092 425.066 44.148 425.682 44.852C426.298 45.556 427.295 45.908 428.674 45.908C429.173 45.908 429.613 45.864 429.994 45.776C430.375 45.688 430.713 45.6293 431.006 45.6C431.358 45.5707 431.651 45.688 431.886 45.952C432.121 46.1867 432.238 46.6853 432.238 47.448C432.238 48.0347 432.135 48.5627 431.93 49.032C431.754 49.472 431.417 49.78 430.918 49.956C430.537 50.0733 430.038 50.176 429.422 50.264C428.806 50.3813 428.263 50.44 427.794 50.44ZM438.169 29.76C437.788 30.2293 437.377 30.4933 436.937 30.552C436.526 30.6107 436.16 30.5373 435.837 30.332C435.514 30.0973 435.338 29.7747 435.309 29.364C435.28 28.924 435.47 28.4547 435.881 27.956C436.468 27.2227 436.864 26.4893 437.069 25.756C437.274 25.0227 437.377 24.3773 437.377 23.82L437.597 25.272C436.57 25.272 435.734 24.9787 435.089 24.392C434.473 23.8053 434.165 23.0133 434.165 22.016C434.165 21.048 434.458 20.2707 435.045 19.684C435.632 19.068 436.424 18.76 437.421 18.76C438.448 18.76 439.254 19.112 439.841 19.816C440.428 20.4907 440.721 21.4733 440.721 22.764C440.721 23.468 440.648 24.2013 440.501 24.964C440.384 25.6973 440.134 26.4747 439.753 27.296C439.401 28.088 438.873 28.9093 438.169 29.76ZM452.369 50.44C451.107 50.44 449.773 50.308 448.365 50.044C446.957 49.78 445.695 49.3253 444.581 48.68C444.111 48.3867 443.774 48.0493 443.569 47.668C443.393 47.2573 443.319 46.8613 443.349 46.48C443.407 46.0693 443.554 45.7173 443.789 45.424C444.053 45.1307 444.375 44.94 444.757 44.852C445.167 44.764 445.607 44.8373 446.077 45.072C447.25 45.6293 448.35 46.0253 449.377 46.26C450.403 46.4653 451.415 46.568 452.413 46.568C453.821 46.568 454.862 46.3333 455.537 45.864C456.241 45.3653 456.593 44.72 456.593 43.928C456.593 43.2533 456.358 42.74 455.889 42.388C455.449 42.0067 454.774 41.728 453.865 41.552L449.465 40.716C447.646 40.364 446.253 39.704 445.285 38.736C444.346 37.7387 443.877 36.4627 443.877 34.908C443.877 33.5 444.258 32.2827 445.021 31.256C445.813 30.2293 446.898 29.4373 448.277 28.88C449.655 28.3227 451.239 28.044 453.029 28.044C454.319 28.044 455.522 28.1907 456.637 28.484C457.781 28.748 458.881 29.1733 459.937 29.76C460.377 29.9947 460.67 30.3027 460.817 30.684C460.993 31.0653 461.037 31.4613 460.949 31.872C460.861 32.2533 460.685 32.6053 460.421 32.928C460.157 33.2213 459.819 33.412 459.409 33.5C459.027 33.5587 458.587 33.4707 458.089 33.236C457.179 32.7667 456.299 32.4293 455.449 32.224C454.627 32.0187 453.835 31.916 453.073 31.916C451.635 31.916 450.565 32.1653 449.861 32.664C449.186 33.1627 448.849 33.8227 448.849 34.644C448.849 35.26 449.054 35.7733 449.465 36.184C449.875 36.5947 450.506 36.8733 451.357 37.02L455.757 37.856C457.663 38.208 459.101 38.8533 460.069 39.792C461.066 40.7307 461.565 41.992 461.565 43.576C461.565 45.7173 460.729 47.404 459.057 48.636C457.385 49.8387 455.155 50.44 452.369 50.44ZM485.007 50.44C483.452 50.44 482.059 50.1467 480.827 49.56C479.624 48.944 478.671 48.1227 477.966 47.096C477.292 46.0693 476.955 44.9107 476.955 43.62C476.955 42.036 477.365 40.7893 478.187 39.88C479.008 38.9413 480.343 38.2667 482.191 37.856C484.039 37.4453 486.517 37.24 489.627 37.24H491.827V40.408H489.671C487.852 40.408 486.4 40.496 485.315 40.672C484.229 40.848 483.452 41.156 482.983 41.596C482.543 42.0067 482.323 42.5933 482.323 43.356C482.323 44.324 482.66 45.116 483.335 45.732C484.009 46.348 484.948 46.656 486.151 46.656C487.119 46.656 487.969 46.436 488.703 45.996C489.465 45.5267 490.067 44.896 490.507 44.104C490.947 43.312 491.167 42.4027 491.167 41.376V36.316C491.167 34.8493 490.844 33.7933 490.199 33.148C489.553 32.5027 488.468 32.18 486.943 32.18C486.092 32.18 485.168 32.2827 484.171 32.488C483.203 32.6933 482.176 33.0453 481.091 33.544C480.533 33.808 480.035 33.8813 479.595 33.764C479.184 33.6467 478.861 33.412 478.627 33.06C478.392 32.6787 478.275 32.268 478.275 31.828C478.275 31.388 478.392 30.9627 478.627 30.552C478.861 30.112 479.257 29.7893 479.815 29.584C481.164 29.0267 482.455 28.6307 483.687 28.396C484.948 28.1613 486.092 28.044 487.119 28.044C489.231 28.044 490.961 28.3667 492.311 29.012C493.689 29.6573 494.716 30.64 495.391 31.96C496.065 33.2507 496.403 34.9227 496.403 36.976V47.536C496.403 48.4453 496.183 49.1493 495.743 49.648C495.303 50.1173 494.672 50.352 493.851 50.352C493.029 50.352 492.384 50.1173 491.915 49.648C491.475 49.1493 491.255 48.4453 491.255 47.536V45.424H491.607C491.401 46.4507 490.991 47.3453 490.375 48.108C489.788 48.8413 489.04 49.4133 488.131 49.824C487.221 50.2347 486.18 50.44 485.007 50.44ZM509.333 50.44C506.898 50.44 505.065 49.7507 503.833 48.372C502.601 46.964 501.985 44.9107 501.985 42.212V21.4C501.985 20.4907 502.22 19.8013 502.689 19.332C503.158 18.8627 503.833 18.628 504.713 18.628C505.593 18.628 506.268 18.8627 506.737 19.332C507.236 19.8013 507.485 20.4907 507.485 21.4V41.948C507.485 43.2973 507.764 44.2947 508.321 44.94C508.908 45.5853 509.729 45.908 510.785 45.908C511.02 45.908 511.24 45.908 511.445 45.908C511.65 45.8787 511.856 45.8493 512.061 45.82C512.472 45.7613 512.75 45.8787 512.897 46.172C513.044 46.436 513.117 46.9933 513.117 47.844C513.117 48.5773 512.97 49.1493 512.677 49.56C512.384 49.9707 511.9 50.22 511.225 50.308C510.932 50.3373 510.624 50.3667 510.301 50.396C509.978 50.4253 509.656 50.44 509.333 50.44ZM523.384 50.44C520.949 50.44 519.116 49.7507 517.884 48.372C516.652 46.964 516.036 44.9107 516.036 42.212V21.4C516.036 20.4907 516.27 19.8013 516.74 19.332C517.209 18.8627 517.884 18.628 518.764 18.628C519.644 18.628 520.318 18.8627 520.788 19.332C521.286 19.8013 521.536 20.4907 521.536 21.4V41.948C521.536 43.2973 521.814 44.2947 522.372 44.94C522.958 45.5853 523.78 45.908 524.836 45.908C525.07 45.908 525.29 45.908 525.496 45.908C525.701 45.8787 525.906 45.8493 526.112 45.82C526.522 45.7613 526.801 45.8787 526.948 46.172C527.094 46.436 527.168 46.9933 527.168 47.844C527.168 48.5773 527.021 49.1493 526.728 49.56C526.434 49.9707 525.95 50.22 525.276 50.308C524.982 50.3373 524.674 50.3667 524.352 50.396C524.029 50.4253 523.706 50.44 523.384 50.44ZM9.944 110.44C8.38933 110.44 6.996 110.147 5.764 109.56C4.56133 108.944 3.608 108.123 2.904 107.096C2.22933 106.069 1.892 104.911 1.892 103.62C1.892 102.036 2.30267 100.789 3.124 99.88C3.94533 98.9413 5.28 98.2667 7.128 97.856C8.976 97.4453 11.4547 97.24 14.564 97.24H16.764V100.408H14.608C12.7893 100.408 11.3373 100.496 10.252 100.672C9.16667 100.848 8.38933 101.156 7.92 101.596C7.48 102.007 7.26 102.593 7.26 103.356C7.26 104.324 7.59733 105.116 8.272 105.732C8.94667 106.348 9.88533 106.656 11.088 106.656C12.056 106.656 12.9067 106.436 13.64 105.996C14.4027 105.527 15.004 104.896 15.444 104.104C15.884 103.312 16.104 102.403 16.104 101.376V96.316C16.104 94.8493 15.7813 93.7933 15.136 93.148C14.4907 92.5027 13.4053 92.18 11.88 92.18C11.0293 92.18 10.1053 92.2827 9.108 92.488C8.14 92.6933 7.11333 93.0453 6.028 93.544C5.47067 93.808 4.972 93.8813 4.532 93.764C4.12133 93.6467 3.79867 93.412 3.564 93.06C3.32933 92.6787 3.212 92.268 3.212 91.828C3.212 91.388 3.32933 90.9627 3.564 90.552C3.79867 90.112 4.19467 89.7893 4.752 89.584C6.10133 89.0267 7.392 88.6307 8.624 88.396C9.88533 88.1613 11.0293 88.044 12.056 88.044C14.168 88.044 15.8987 88.3667 17.248 89.012C18.6267 89.6573 19.6533 90.64 20.328 91.96C21.0027 93.2507 21.34 94.9227 21.34 96.976V107.536C21.34 108.445 21.12 109.149 20.68 109.648C20.24 110.117 19.6093 110.352 18.788 110.352C17.9667 110.352 17.3213 110.117 16.852 109.648C16.412 109.149 16.192 108.445 16.192 107.536V105.424H16.544C16.3387 106.451 15.928 107.345 15.312 108.108C14.7253 108.841 13.9773 109.413 13.068 109.824C12.1587 110.235 11.1173 110.44 9.944 110.44ZM39.3305 110.44C37.5118 110.44 35.9132 109.985 34.5345 109.076C33.1852 108.167 32.2905 106.949 31.8505 105.424L32.3345 104.324V107.536C32.3345 108.445 32.0998 109.149 31.6305 109.648C31.1612 110.117 30.5012 110.352 29.6505 110.352C28.7705 110.352 28.0958 110.117 27.6265 109.648C27.1572 109.149 26.9225 108.445 26.9225 107.536V81.4C26.9225 80.4907 27.1572 79.8013 27.6265 79.332C28.0958 78.8627 28.7705 78.628 29.6505 78.628C30.5305 78.628 31.2052 78.8627 31.6745 79.332C32.1732 79.8013 32.4225 80.4907 32.4225 81.4V92.84H31.8945C32.3638 91.4027 33.2732 90.244 34.6225 89.364C35.9718 88.484 37.5412 88.044 39.3305 88.044C41.2372 88.044 42.8945 88.4987 44.3025 89.408C45.7105 90.3173 46.8105 91.608 47.6025 93.28C48.3945 94.9227 48.7905 96.9027 48.7905 99.22C48.7905 101.508 48.3945 103.503 47.6025 105.204C46.8105 106.876 45.6958 108.167 44.2585 109.076C42.8505 109.985 41.2078 110.44 39.3305 110.44ZM37.7905 106.26C38.8758 106.26 39.8292 105.996 40.6505 105.468C41.4718 104.94 42.1025 104.163 42.5425 103.136C43.0118 102.08 43.2465 100.775 43.2465 99.22C43.2465 96.8733 42.7478 95.128 41.7505 93.984C40.7532 92.8107 39.4332 92.224 37.7905 92.224C36.7052 92.224 35.7518 92.488 34.9305 93.016C34.1092 93.5147 33.4638 94.292 32.9945 95.348C32.5545 96.3747 32.3345 97.6653 32.3345 99.22C32.3345 101.537 32.8332 103.297 33.8305 104.5C34.8278 105.673 36.1478 106.26 37.7905 106.26ZM63.1173 110.44C60.888 110.44 58.952 109.985 57.3093 109.076C55.6666 108.167 54.3906 106.876 53.4813 105.204C52.572 103.503 52.1173 101.508 52.1173 99.22C52.1173 97.4893 52.3666 95.9493 52.8653 94.6C53.3933 93.2213 54.1413 92.048 55.1093 91.08C56.0773 90.0827 57.236 89.3347 58.5853 88.836C59.9346 88.308 61.4453 88.044 63.1173 88.044C65.3466 88.044 67.2826 88.4987 68.9253 89.408C70.568 90.3173 71.844 91.608 72.7533 93.28C73.6626 94.952 74.1173 96.932 74.1173 99.22C74.1173 100.951 73.8533 102.505 73.3253 103.884C72.8266 105.263 72.0933 106.451 71.1253 107.448C70.1573 108.416 68.9986 109.164 67.6493 109.692C66.3 110.191 64.7893 110.44 63.1173 110.44ZM63.1173 106.26C64.2026 106.26 65.156 105.996 65.9773 105.468C66.7986 104.94 67.4293 104.163 67.8693 103.136C68.3386 102.08 68.5733 100.775 68.5733 99.22C68.5733 96.8733 68.0746 95.128 67.0773 93.984C66.08 92.8107 64.76 92.224 63.1173 92.224C62.032 92.224 61.0786 92.488 60.2573 93.016C59.436 93.5147 58.7906 94.292 58.3213 95.348C57.8813 96.3747 57.6613 97.6653 57.6613 99.22C57.6613 101.537 58.16 103.297 59.1573 104.5C60.1546 105.673 61.4746 106.26 63.1173 106.26ZM86.4449 110.44C84.6555 110.44 83.1742 110.117 82.0009 109.472C80.8275 108.797 79.9475 107.8 79.3609 106.48C78.8035 105.16 78.5249 103.517 78.5249 101.552V90.904C78.5249 89.9653 78.7595 89.276 79.2289 88.836C79.6982 88.3667 80.3729 88.132 81.2529 88.132C82.1329 88.132 82.8075 88.3667 83.2769 88.836C83.7755 89.276 84.0249 89.9653 84.0249 90.904V101.64C84.0249 103.165 84.3329 104.295 84.9489 105.028C85.5649 105.761 86.5475 106.128 87.8969 106.128C89.3635 106.128 90.5662 105.629 91.5049 104.632C92.4435 103.605 92.9129 102.256 92.9129 100.584V90.904C92.9129 89.9653 93.1475 89.276 93.6169 88.836C94.0862 88.3667 94.7609 88.132 95.6409 88.132C96.5209 88.132 97.1955 88.3667 97.6649 88.836C98.1635 89.276 98.4129 89.9653 98.4129 90.904V107.536C98.4129 109.413 97.5182 110.352 95.7289 110.352C94.8782 110.352 94.2182 110.117 93.7489 109.648C93.2795 109.149 93.0449 108.445 93.0449 107.536V104.192L93.6609 105.512C93.0449 107.096 92.1062 108.313 90.8449 109.164C89.6129 110.015 88.1462 110.44 86.4449 110.44ZM113.993 110.44C112.087 110.44 110.488 110.117 109.197 109.472C107.936 108.827 106.997 107.888 106.381 106.656C105.765 105.395 105.457 103.84 105.457 101.992V92.62H103.169C102.465 92.62 101.923 92.444 101.541 92.092C101.16 91.7107 100.969 91.1973 100.969 90.552C100.969 89.8773 101.16 89.364 101.541 89.012C101.923 88.66 102.465 88.484 103.169 88.484H105.457V84.48C105.457 83.5707 105.692 82.8813 106.161 82.412C106.66 81.9427 107.349 81.708 108.229 81.708C109.109 81.708 109.784 81.9427 110.253 82.412C110.723 82.8813 110.957 83.5707 110.957 84.48V88.484H115.621C116.325 88.484 116.868 88.66 117.249 89.012C117.631 89.364 117.821 89.8773 117.821 90.552C117.821 91.1973 117.631 91.7107 117.249 92.092C116.868 92.444 116.325 92.62 115.621 92.62H110.957V101.684C110.957 103.092 111.265 104.148 111.881 104.852C112.497 105.556 113.495 105.908 114.873 105.908C115.372 105.908 115.812 105.864 116.193 105.776C116.575 105.688 116.912 105.629 117.205 105.6C117.557 105.571 117.851 105.688 118.085 105.952C118.32 106.187 118.437 106.685 118.437 107.448C118.437 108.035 118.335 108.563 118.129 109.032C117.953 109.472 117.616 109.78 117.117 109.956C116.736 110.073 116.237 110.176 115.621 110.264C115.005 110.381 114.463 110.44 113.993 110.44ZM136.401 110.352C135.492 110.352 134.773 110.103 134.245 109.604C133.747 109.076 133.497 108.328 133.497 107.36V81.972C133.497 81.004 133.747 80.2707 134.245 79.772C134.773 79.244 135.521 78.98 136.489 78.98H151.845C152.608 78.98 153.18 79.1707 153.561 79.552C153.943 79.9333 154.133 80.476 154.133 81.18C154.133 81.9133 153.943 82.4853 153.561 82.896C153.18 83.2773 152.608 83.468 151.845 83.468H139.129V92.224H150.921C151.655 92.224 152.212 92.4147 152.593 92.796C153.004 93.1773 153.209 93.72 153.209 94.424C153.209 95.1573 153.004 95.7293 152.593 96.14C152.212 96.5213 151.655 96.712 150.921 96.712H139.129V107.36C139.129 109.355 138.22 110.352 136.401 110.352ZM162.166 110.308C161.286 110.308 160.611 110.044 160.142 109.516C159.673 108.988 159.438 108.255 159.438 107.316V91.168C159.438 90.2 159.673 89.4667 160.142 88.968C160.611 88.44 161.286 88.176 162.166 88.176C163.046 88.176 163.721 88.44 164.19 88.968C164.689 89.4667 164.938 90.2 164.938 91.168V107.316C164.938 108.255 164.703 108.988 164.234 109.516C163.765 110.044 163.075 110.308 162.166 110.308ZM162.166 84.084C161.139 84.084 160.333 83.8347 159.746 83.336C159.189 82.808 158.91 82.0893 158.91 81.18C158.91 80.2413 159.189 79.5227 159.746 79.024C160.333 78.5253 161.139 78.276 162.166 78.276C163.222 78.276 164.029 78.5253 164.586 79.024C165.143 79.5227 165.422 80.2413 165.422 81.18C165.422 82.0893 165.143 82.808 164.586 83.336C164.029 83.8347 163.222 84.084 162.166 84.084ZM180.509 110.44C178.602 110.44 177.004 110.117 175.713 109.472C174.452 108.827 173.513 107.888 172.897 106.656C172.281 105.395 171.973 103.84 171.973 101.992V92.62H169.685C168.981 92.62 168.438 92.444 168.057 92.092C167.676 91.7107 167.485 91.1973 167.485 90.552C167.485 89.8773 167.676 89.364 168.057 89.012C168.438 88.66 168.981 88.484 169.685 88.484H171.973V84.48C171.973 83.5707 172.208 82.8813 172.677 82.412C173.176 81.9427 173.865 81.708 174.745 81.708C175.625 81.708 176.3 81.9427 176.769 82.412C177.238 82.8813 177.473 83.5707 177.473 84.48V88.484H182.137C182.841 88.484 183.384 88.66 183.765 89.012C184.146 89.364 184.337 89.8773 184.337 90.552C184.337 91.1973 184.146 91.7107 183.765 92.092C183.384 92.444 182.841 92.62 182.137 92.62H177.473V101.684C177.473 103.092 177.781 104.148 178.397 104.852C179.013 105.556 180.01 105.908 181.389 105.908C181.888 105.908 182.328 105.864 182.709 105.776C183.09 105.688 183.428 105.629 183.721 105.6C184.073 105.571 184.366 105.688 184.601 105.952C184.836 106.187 184.953 106.685 184.953 107.448C184.953 108.035 184.85 108.563 184.645 109.032C184.469 109.472 184.132 109.78 183.633 109.956C183.252 110.073 182.753 110.176 182.137 110.264C181.521 110.381 180.978 110.44 180.509 110.44ZM190.268 110.352C189.388 110.352 188.713 110.117 188.244 109.648C187.774 109.149 187.54 108.445 187.54 107.536V90.904C187.54 89.9947 187.774 89.3053 188.244 88.836C188.713 88.3667 189.373 88.132 190.224 88.132C191.074 88.132 191.734 88.3667 192.204 88.836C192.673 89.3053 192.908 89.9947 192.908 90.904V93.896L192.424 92.796C193.069 91.2413 194.066 90.068 195.416 89.276C196.794 88.4547 198.349 88.044 200.08 88.044C201.81 88.044 203.233 88.3667 204.348 89.012C205.462 89.6573 206.298 90.64 206.856 91.96C207.413 93.2507 207.692 94.8933 207.692 96.888V107.536C207.692 108.445 207.457 109.149 206.988 109.648C206.518 110.117 205.844 110.352 204.964 110.352C204.084 110.352 203.394 110.117 202.896 109.648C202.426 109.149 202.192 108.445 202.192 107.536V97.152C202.192 95.48 201.869 94.2627 201.224 93.5C200.608 92.7373 199.64 92.356 198.32 92.356C196.706 92.356 195.416 92.8693 194.448 93.896C193.509 94.8933 193.04 96.228 193.04 97.9V107.536C193.04 109.413 192.116 110.352 190.268 110.352ZM223.882 110.44C221.447 110.44 219.35 109.985 217.59 109.076C215.83 108.167 214.466 106.876 213.498 105.204C212.559 103.532 212.09 101.552 212.09 99.264C212.09 97.0347 212.545 95.084 213.454 93.412C214.393 91.74 215.669 90.4347 217.282 89.496C218.925 88.528 220.787 88.044 222.87 88.044C224.395 88.044 225.759 88.2933 226.962 88.792C228.194 89.2907 229.235 90.0093 230.086 90.948C230.966 91.8867 231.626 93.0307 232.066 94.38C232.535 95.7 232.77 97.196 232.77 98.868C232.77 99.396 232.579 99.8067 232.198 100.1C231.846 100.364 231.333 100.496 230.658 100.496H216.534V97.328H228.898L228.194 97.988C228.194 96.6387 227.989 95.5093 227.578 94.6C227.197 93.6907 226.625 93.0013 225.862 92.532C225.129 92.0333 224.205 91.784 223.09 91.784C221.858 91.784 220.802 92.0773 219.922 92.664C219.071 93.2213 218.411 94.028 217.942 95.084C217.502 96.1107 217.282 97.3427 217.282 98.78V99.088C217.282 101.493 217.839 103.297 218.954 104.5C220.098 105.673 221.77 106.26 223.97 106.26C224.733 106.26 225.583 106.172 226.522 105.996C227.49 105.791 228.399 105.453 229.25 104.984C229.866 104.632 230.409 104.485 230.878 104.544C231.347 104.573 231.714 104.735 231.978 105.028C232.271 105.321 232.447 105.688 232.506 106.128C232.565 106.539 232.477 106.964 232.242 107.404C232.037 107.844 231.67 108.225 231.142 108.548C230.115 109.193 228.927 109.677 227.578 110C226.258 110.293 225.026 110.44 223.882 110.44ZM245.002 110.44C243.74 110.44 242.406 110.308 240.998 110.044C239.59 109.78 238.328 109.325 237.214 108.68C236.744 108.387 236.407 108.049 236.202 107.668C236.026 107.257 235.952 106.861 235.982 106.48C236.04 106.069 236.187 105.717 236.422 105.424C236.686 105.131 237.008 104.94 237.39 104.852C237.8 104.764 238.24 104.837 238.71 105.072C239.883 105.629 240.983 106.025 242.01 106.26C243.036 106.465 244.048 106.568 245.046 106.568C246.454 106.568 247.495 106.333 248.17 105.864C248.874 105.365 249.226 104.72 249.226 103.928C249.226 103.253 248.991 102.74 248.522 102.388C248.082 102.007 247.407 101.728 246.498 101.552L242.098 100.716C240.279 100.364 238.886 99.704 237.918 98.736C236.979 97.7387 236.51 96.4627 236.51 94.908C236.51 93.5 236.891 92.2827 237.654 91.256C238.446 90.2293 239.531 89.4373 240.91 88.88C242.288 88.3227 243.872 88.044 245.662 88.044C246.952 88.044 248.155 88.1907 249.27 88.484C250.414 88.748 251.514 89.1733 252.57 89.76C253.01 89.9947 253.303 90.3027 253.45 90.684C253.626 91.0653 253.67 91.4613 253.582 91.872C253.494 92.2533 253.318 92.6053 253.054 92.928C252.79 93.2213 252.452 93.412 252.042 93.5C251.66 93.5587 251.22 93.4707 250.722 93.236C249.812 92.7667 248.932 92.4293 248.082 92.224C247.26 92.0187 246.468 91.916 245.706 91.916C244.268 91.916 243.198 92.1653 242.494 92.664C241.819 93.1627 241.482 93.8227 241.482 94.644C241.482 95.26 241.687 95.7733 242.098 96.184C242.508 96.5947 243.139 96.8733 243.99 97.02L248.39 97.856C250.296 98.208 251.734 98.8533 252.702 99.792C253.699 100.731 254.198 101.992 254.198 103.576C254.198 105.717 253.362 107.404 251.69 108.636C250.018 109.839 247.788 110.44 245.002 110.44ZM266.486 110.44C265.225 110.44 263.89 110.308 262.482 110.044C261.074 109.78 259.813 109.325 258.698 108.68C258.229 108.387 257.891 108.049 257.686 107.668C257.51 107.257 257.437 106.861 257.466 106.48C257.525 106.069 257.671 105.717 257.906 105.424C258.17 105.131 258.493 104.94 258.874 104.852C259.285 104.764 259.725 104.837 260.194 105.072C261.367 105.629 262.467 106.025 263.494 106.26C264.521 106.465 265.533 106.568 266.53 106.568C267.938 106.568 268.979 106.333 269.654 105.864C270.358 105.365 270.71 104.72 270.71 103.928C270.71 103.253 270.475 102.74 270.006 102.388C269.566 102.007 268.891 101.728 267.982 101.552L263.582 100.716C261.763 100.364 260.37 99.704 259.402 98.736C258.463 97.7387 257.994 96.4627 257.994 94.908C257.994 93.5 258.375 92.2827 259.138 91.256C259.93 90.2293 261.015 89.4373 262.394 88.88C263.773 88.3227 265.357 88.044 267.146 88.044C268.437 88.044 269.639 88.1907 270.754 88.484C271.898 88.748 272.998 89.1733 274.054 89.76C274.494 89.9947 274.787 90.3027 274.934 90.684C275.11 91.0653 275.154 91.4613 275.066 91.872C274.978 92.2533 274.802 92.6053 274.538 92.928C274.274 93.2213 273.937 93.412 273.526 93.5C273.145 93.5587 272.705 93.4707 272.206 93.236C271.297 92.7667 270.417 92.4293 269.566 92.224C268.745 92.0187 267.953 91.916 267.19 91.916C265.753 91.916 264.682 92.1653 263.978 92.664C263.303 93.1627 262.966 93.8227 262.966 94.644C262.966 95.26 263.171 95.7733 263.582 96.184C263.993 96.5947 264.623 96.8733 265.474 97.02L269.874 97.856C271.781 98.208 273.218 98.8533 274.186 99.792C275.183 100.731 275.682 101.992 275.682 103.576C275.682 105.717 274.846 107.404 273.174 108.636C271.502 109.839 269.273 110.44 266.486 110.44ZM282.52 110.22C281.522 110.22 280.716 109.912 280.1 109.296C279.513 108.68 279.22 107.888 279.22 106.92C279.22 105.981 279.513 105.219 280.1 104.632C280.716 104.016 281.522 103.708 282.52 103.708C283.546 103.708 284.338 104.016 284.896 104.632C285.482 105.219 285.776 105.981 285.776 106.92C285.776 107.888 285.482 108.68 284.896 109.296C284.338 109.912 283.546 110.22 282.52 110.22ZM293.434 110.22C292.436 110.22 291.63 109.912 291.014 109.296C290.427 108.68 290.134 107.888 290.134 106.92C290.134 105.981 290.427 105.219 291.014 104.632C291.63 104.016 292.436 103.708 293.434 103.708C294.46 103.708 295.252 104.016 295.81 104.632C296.396 105.219 296.69 105.981 296.69 106.92C296.69 107.888 296.396 108.68 295.81 109.296C295.252 109.912 294.46 110.22 293.434 110.22Z" fill="#1F1704"/>
</svg>
