<svg width="29" height="28" viewBox="0 0 29 28" fill="none" xmlns="http://www.w3.org/2000/svg">
<path d="M9.76667 2.33325H19.5667C23.3 2.33325 26.3333 5.36659 26.3333 9.09992V18.8999C26.3333 20.6946 25.6204 22.4157 24.3514 23.6847C23.0824 24.9537 21.3613 25.6666 19.5667 25.6666H9.76667C6.03333 25.6666 3 22.6333 3 18.8999V9.09992C3 7.30529 3.71291 5.58416 4.98191 4.31516C6.25091 3.04617 7.97204 2.33325 9.76667 2.33325M9.53333 4.66659C8.41942 4.66659 7.35114 5.10908 6.56349 5.89674C5.77583 6.68439 5.33333 7.75268 5.33333 8.86659V19.1333C5.33333 21.4549 7.21167 23.3333 9.53333 23.3333H19.8C20.9139 23.3333 21.9822 22.8908 22.7699 22.1031C23.5575 21.3154 24 20.2472 24 19.1333V8.86659C24 6.54492 22.1217 4.66659 19.8 4.66659H9.53333ZM20.7917 6.41659C21.1784 6.41659 21.5494 6.57023 21.8229 6.84372C22.0964 7.11721 22.25 7.48814 22.25 7.87492C22.25 8.26169 22.0964 8.63263 21.8229 8.90612C21.5494 9.17961 21.1784 9.33325 20.7917 9.33325C20.4049 9.33325 20.034 9.17961 19.7605 8.90612C19.487 8.63263 19.3333 8.26169 19.3333 7.87492C19.3333 7.48814 19.487 7.11721 19.7605 6.84372C20.034 6.57023 20.4049 6.41659 20.7917 6.41659ZM14.6667 8.16659C16.2138 8.16659 17.6975 8.78117 18.7915 9.87513C19.8854 10.9691 20.5 12.4528 20.5 13.9999C20.5 15.547 19.8854 17.0307 18.7915 18.1247C17.6975 19.2187 16.2138 19.8333 14.6667 19.8333C13.1196 19.8333 11.6358 19.2187 10.5419 18.1247C9.44792 17.0307 8.83333 15.547 8.83333 13.9999C8.83333 12.4528 9.44792 10.9691 10.5419 9.87513C11.6358 8.78117 13.1196 8.16659 14.6667 8.16659M14.6667 10.4999C13.7384 10.4999 12.8482 10.8687 12.1918 11.525C11.5354 12.1814 11.1667 13.0717 11.1667 13.9999C11.1667 14.9282 11.5354 15.8184 12.1918 16.4748C12.8482 17.1312 13.7384 17.4999 14.6667 17.4999C15.5949 17.4999 16.4852 17.1312 17.1415 16.4748C17.7979 15.8184 18.1667 14.9282 18.1667 13.9999C18.1667 13.0717 17.7979 12.1814 17.1415 11.525C16.4852 10.8687 15.5949 10.4999 14.6667 10.4999Z" fill="#BD3C2A"/>
</svg>
