<svg width="25" height="25" viewBox="0 0 25 25" fill="none" xmlns="http://www.w3.org/2000/svg">
<path d="M14.6806 16.0714L17.2706 13.4814H7.60059V11.4814H17.2706L14.6806 8.89145L16.1006 7.48145L21.1006 12.4814L16.1006 17.4814L14.6806 16.0714ZM19.6006 3.48145C20.131 3.48145 20.6397 3.69216 21.0148 4.06723C21.3899 4.4423 21.6006 4.95101 21.6006 5.48145V10.1514L19.6006 8.15145V5.48145H5.60059V19.4814H19.6006V16.8114L21.6006 14.8114V19.4814C21.6006 20.0119 21.3899 20.5206 21.0148 20.8957C20.6397 21.2707 20.131 21.4814 19.6006 21.4814H5.60059C4.49059 21.4814 3.60059 20.5814 3.60059 19.4814V5.48145C3.60059 4.37145 4.49059 3.48145 5.60059 3.48145H19.6006Z" fill="white"/>
</svg>
