<svg width="64" height="64" viewBox="0 0 64 64" fill="none" xmlns="http://www.w3.org/2000/svg">
<g clip-path="url(#clip0_1000_1984)">
<path d="M59.7304 51.036H17.7607C16.7993 51.036 16.0195 50.2565 16.0195 49.2949C16.0195 48.3333 16.7992 47.5538 17.7607 47.5538H59.7304C60.1655 47.5538 60.5192 47.1306 60.5192 46.6106V17.3911C60.5192 16.8711 60.1655 16.448 59.7304 16.448H20.2907C19.8555 16.448 19.5018 16.8711 19.5018 17.3911V38.3694C19.5018 39.331 18.7222 40.1105 17.7607 40.1105C16.7993 40.1105 16.0195 39.331 16.0195 38.3694V17.3911C16.0195 14.9509 17.9355 12.9658 20.2905 12.9658H59.7301C62.0851 12.9658 64.0011 14.9509 64.0011 17.3911V46.6105C64.0014 49.0508 62.0854 51.036 59.7304 51.036Z" fill="#466B95"/>
<path d="M17.7578 17.3903C17.7578 18.2471 18.1434 19.0526 18.7957 19.5579L40.0079 35.9946L61.22 19.5579C61.8723 19.0526 62.2579 18.2473 62.2579 17.3903C62.2579 15.9078 61.1252 14.7061 59.7279 14.7061H20.2878C18.8906 14.7062 17.7578 15.9079 17.7578 17.3903Z" fill="#466B95"/>
<path d="M40.0105 37.7362C39.6342 37.7362 39.2579 37.6145 38.9441 37.3715L17.7319 20.9348C16.6598 20.104 16.0195 18.7792 16.0195 17.3911C16.0195 14.9509 17.9355 12.9658 20.2905 12.9658H59.7301C62.0851 12.9658 64.0011 14.9509 64.0011 17.3911C64.0011 18.7792 63.3609 20.1041 62.2886 20.9348L41.0768 37.3715C40.763 37.6147 40.3867 37.7362 40.0105 37.7362ZM20.2907 16.4477C19.8558 16.4477 19.5018 16.8708 19.5018 17.3908C19.5018 17.7102 19.6374 18.006 19.8648 18.1822L40.0105 33.7926L60.156 18.1822C60.3834 18.006 60.5191 17.7102 60.5191 17.3908C60.5191 16.8708 60.1651 16.4477 59.7302 16.4477H20.2907Z" fill="#466B95"/>
<path d="M17.5852 24.3972H1.74113C0.779627 24.3972 0 23.6177 0 22.6562C0 21.6947 0.779627 20.915 1.74113 20.915H17.5852C18.5465 20.915 19.3263 21.6945 19.3263 22.6562C19.3263 23.6178 18.5465 24.3972 17.5852 24.3972Z" fill="#466B95"/>
<path d="M17.5841 32.3192H6.96378C6.00241 32.3192 5.22266 31.5397 5.22266 30.578C5.22266 29.6164 6.00228 28.8369 6.96378 28.8369H17.5841C18.5454 28.8369 19.3252 29.6164 19.3252 30.578C19.3252 31.5397 18.5454 32.3192 17.5841 32.3192Z" fill="#466B95"/>
<path d="M17.5869 40.241H12.1903C11.229 40.241 10.4492 39.4615 10.4492 38.4999C10.4492 37.5383 11.2288 36.7588 12.1903 36.7588H17.5869C18.5482 36.7588 19.328 37.5383 19.328 38.4999C19.328 39.4615 18.5482 40.241 17.5869 40.241Z" fill="#466B95"/>
</g>
<defs>
<clipPath id="clip0_1000_1984">
<rect width="64" height="64" fill="white"/>
</clipPath>
</defs>
</svg>
