<svg width="56" height="56" viewBox="0 0 56 56" fill="none" xmlns="http://www.w3.org/2000/svg">
<g clip-path="url(#clip0_1000_1977)">
<path d="M52.3319 5.07812H3.66812C1.64234 5.07812 0 6.72047 0 8.74625V39.5585C0 41.5843 1.64234 43.2266 3.66812 43.2266H19.8201L25.1929 49.6144C25.8899 50.443 26.9173 50.9215 28.0001 50.9215C29.083 50.9215 30.1104 50.4431 30.8073 49.6145L36.1802 43.2267H52.3319C54.3578 43.2267 56 41.5844 56 39.5586V8.74637C56 6.72034 54.3578 5.07812 52.3319 5.07812ZM10.4422 15.5281H27.1933C28.2061 15.5281 29.0273 16.3493 29.0273 17.3622C29.0273 18.3751 28.2061 19.1962 27.1933 19.1962H10.4422C9.42927 19.1962 8.6081 18.3751 8.6081 17.3622C8.6081 16.3493 9.42927 15.5281 10.4422 15.5281ZM45.4847 30.4451H10.5153C9.50239 30.4451 8.68122 29.624 8.68122 28.6111C8.68122 27.5982 9.50239 26.777 10.5153 26.777H45.4847C46.4976 26.777 47.3188 27.5982 47.3188 28.6111C47.3188 29.624 46.4976 30.4451 45.4847 30.4451Z" fill="#D1A132"/>
</g>
<defs>
<clipPath id="clip0_1000_1977">
<rect width="56" height="56" fill="white"/>
</clipPath>
</defs>
</svg>
