<svg width="22" height="22" viewBox="0 0 22 22" fill="none" xmlns="http://www.w3.org/2000/svg">
<path d="M6.06833 9.89083C7.38833 12.485 9.515 14.6117 12.1092 15.9317L14.1258 13.915C14.3825 13.6583 14.74 13.585 15.0608 13.6858C16.0875 14.025 17.1875 14.2083 18.3333 14.2083C18.5764 14.2083 18.8096 14.3049 18.9815 14.4768C19.1534 14.6487 19.25 14.8819 19.25 15.125V18.3333C19.25 18.5764 19.1534 18.8096 18.9815 18.9815C18.8096 19.1534 18.5764 19.25 18.3333 19.25C14.2004 19.25 10.2367 17.6082 7.31425 14.6857C4.39181 11.7633 2.75 7.79962 2.75 3.66667C2.75 3.42355 2.84658 3.19039 3.01849 3.01849C3.19039 2.84658 3.42355 2.75 3.66667 2.75H6.875C7.11812 2.75 7.35127 2.84658 7.52318 3.01849C7.69509 3.19039 7.79167 3.42355 7.79167 3.66667C7.79167 4.8125 7.975 5.9125 8.31417 6.93917C8.415 7.26 8.34167 7.6175 8.085 7.87417L6.06833 9.89083Z" fill="white"/>
</svg>
