<svg width="431" height="447" viewBox="0 0 431 447" fill="none" xmlns="http://www.w3.org/2000/svg">
<g clip-path="url(#clip0_1334_528)">
<rect width="431" height="447" rx="10" fill="white"/>
<path d="M143.489 219.511L133.47 260.516C135.758 259.836 147.014 256.657 173.732 249.383C207.013 266.824 242.754 256.62 244.238 255.506C245.722 254.393 298.416 233.056 299.158 183.516C299.9 133.977 270.399 113.382 267.059 110.228C263.72 107.074 214.737 72.0063 162.414 113.382C120.556 146.482 132.357 197.927 143.489 219.511Z" fill="#E8A59C"/>
<path d="M203.274 154.109C213.274 148.509 206.44 135.109 201.774 129.109C214.974 123.909 222.94 131.275 225.273 135.609C228.273 142.775 232.073 159.309 223.273 168.109C214.473 176.909 213.94 193.775 214.773 201.109H225.273C224.94 199.609 224.473 194.209 225.273 184.609C226.273 172.609 243.773 169.109 250.273 154.109C256.773 139.109 250.773 131.109 250.273 129.109C249.773 127.109 240.273 112.609 220.773 114.109C203.641 115.426 201.774 118.609 193.774 123.609C185.774 128.609 184 140.5 185.274 146.109C185.87 148.734 190.774 161.109 203.274 154.109Z" fill="white"/>
<path fill-rule="evenodd" clip-rule="evenodd" d="M180.652 80.3809C180.404 80.7821 182.577 83.3177 183.169 83.3177C183.998 83.3177 183.836 82.0705 182.877 81.0689C181.781 79.9249 181.07 79.7052 180.652 80.3809ZM188.534 81.0188C187.467 82.1328 187.294 82.7525 187.94 83.1518C188.489 83.491 190.868 81.1298 190.622 80.4897C190.32 79.7015 189.628 79.877 188.534 81.0188ZM207.204 87.1851C182.254 90.376 161.284 102.854 147.102 122.948C139.283 134.025 133.937 148.079 132.255 161.977C131.704 166.534 131.796 177.339 132.435 183.139C133.127 189.418 133.863 194.014 134.133 193.744C134.247 193.631 134.794 195.144 135.348 197.106C135.902 199.069 136.266 200.765 136.156 200.875C136.046 200.984 135.957 200.852 135.957 200.58C135.957 200.308 135.874 200.168 135.772 200.269C135.671 200.37 135.849 201.333 136.168 202.409C136.488 203.484 136.822 204.291 136.911 204.202C137 204.113 136.886 203.503 136.657 202.847C135.91 200.704 136.605 201.214 137.427 203.412C138.749 206.943 142.558 214.252 145.125 218.182C147.369 221.617 147.516 221.971 147.288 223.377C145.275 235.795 142.277 255.949 142.124 258.097C142.015 259.628 141.813 261.671 141.675 262.638C141.405 264.52 141.853 265.521 142.96 265.516C143.292 265.514 148.072 263.745 153.583 261.584C159.093 259.422 165.272 257.023 167.313 256.253C169.354 255.482 172.517 254.245 174.343 253.505C176.168 252.766 177.922 252.151 178.239 252.141C178.557 252.13 178.219 251.873 177.488 251.57C176.161 251.018 176.156 251.02 161.532 256.729C143.622 263.721 143.396 263.806 143.215 263.624C143.134 263.543 143.217 262.643 143.4 261.622C143.582 260.602 143.826 259.225 143.943 258.561C144.103 257.649 144.353 257.345 144.972 257.312C145.617 257.278 145.65 257.233 145.13 257.097C144.613 256.962 144.513 256.669 144.67 255.749C145.06 253.464 146.305 245.156 148.042 233.259C149.589 222.66 149.737 221.124 149.279 220.401C146.118 215.405 142.274 208.769 141.276 206.586C139.633 202.99 136.496 193.792 135.772 190.447C134.059 182.524 133.639 178.026 133.859 169.965C133.986 165.279 134.358 160.249 134.79 157.349C137.11 141.782 145.047 126.011 156.527 114.156C170.035 100.206 186.39 91.8269 205.589 89.019C211.493 88.1555 222.891 88.1696 228.541 89.0475C247.689 92.0214 263.88 100.383 277.163 114.156C288.996 126.427 296.399 141.371 299.477 159.204C300.409 164.602 300.407 178.82 299.475 184.438C299.102 186.683 298.492 189.438 298.121 190.56C297.749 191.683 297.021 194.355 296.501 196.498C294.841 203.351 292.674 209.497 290.516 213.474C289.734 214.914 289.489 215.585 289.94 215.052C291.399 213.325 295.832 203.916 297.335 199.359C300.689 189.187 301.827 182.211 301.827 171.821C301.827 152.814 296.142 135.616 284.929 120.7C276.728 109.791 266.222 101.165 253.866 95.1953C245.815 91.306 239.319 89.2398 230.397 87.7302C224.615 86.7524 212.767 86.4737 207.204 87.1851ZM181.443 88.1117C180.44 89.1585 180.406 89.9971 181.367 89.9971C181.949 89.9971 183.826 88.0701 183.826 87.4719C183.826 86.6578 182.493 87.0155 181.443 88.1117ZM187.537 87.4719C187.537 88.0701 189.414 89.9971 189.996 89.9971C190.9 89.9971 190.87 89.3047 189.919 88.1733C188.964 87.0385 187.537 86.6184 187.537 87.4719ZM260.145 94.3266C260.009 94.4624 259.898 94.9541 259.898 95.4186C259.898 96.4517 261.19 97.4188 262.571 97.4188C264.028 97.4188 264.459 95.7356 263.252 94.7585C262.428 94.0905 260.631 93.8408 260.145 94.3266ZM212.678 94.7262C214.362 94.7949 217.117 94.7949 218.801 94.7262C220.485 94.6576 219.107 94.6012 215.739 94.6012C212.372 94.6012 210.994 94.6576 212.678 94.7262ZM206.931 95.0876C207.495 95.1726 208.33 95.1704 208.787 95.0825C209.243 94.9945 208.781 94.9247 207.761 94.9273C206.74 94.9303 206.367 95.0023 206.931 95.0876ZM222.697 95.0832C223.156 95.1715 223.907 95.1715 224.367 95.0832C224.826 94.9945 224.45 94.9221 223.532 94.9221C222.613 94.9221 222.238 94.9945 222.697 95.0832ZM203.964 95.4494C204.325 95.5437 204.826 95.5374 205.078 95.4357C205.329 95.334 205.033 95.2572 204.421 95.2647C203.809 95.2721 203.603 95.3552 203.964 95.4494ZM226.229 95.4494C226.59 95.5437 227.091 95.5374 227.343 95.4357C227.594 95.334 227.298 95.2572 226.686 95.2647C226.074 95.2721 225.868 95.3552 226.229 95.4494ZM201.738 95.8205C202.099 95.9148 202.6 95.9085 202.851 95.8068C203.102 95.7051 202.807 95.6283 202.195 95.6357C201.582 95.6432 201.377 95.7263 201.738 95.8205ZM228.827 95.8205C229.188 95.9148 229.689 95.9085 229.94 95.8068C230.191 95.7051 229.896 95.6283 229.284 95.6357C228.671 95.6432 228.466 95.7263 228.827 95.8205ZM199.713 96.1879C199.981 96.2951 200.301 96.2818 200.424 96.1586C200.547 96.0354 200.328 95.9478 199.937 95.9638C199.505 95.9816 199.417 96.0695 199.713 96.1879ZM230.861 96.1801C231.116 96.2833 231.534 96.2833 231.788 96.1801C232.044 96.0773 231.835 95.9931 231.325 95.9931C230.814 95.9931 230.606 96.0773 230.861 96.1801ZM197.858 96.559C198.125 96.6662 198.446 96.6529 198.569 96.5297C198.692 96.4065 198.473 96.3189 198.082 96.3349C197.65 96.3527 197.562 96.4406 197.858 96.559ZM232.74 96.559C233.007 96.6662 233.327 96.6529 233.451 96.5297C233.574 96.4065 233.355 96.3189 232.964 96.3349C232.531 96.3527 232.443 96.4406 232.74 96.559ZM266.856 96.5764C266.158 96.7427 265.609 98.2374 266.009 98.8846C266.144 99.1016 266.745 99.5339 267.346 99.8445C269.761 101.093 271.006 98.3383 268.618 97.0314C268.006 96.6963 267.213 96.4914 266.856 96.5764ZM196.373 96.9301C196.641 97.0373 196.961 97.0239 197.084 96.9007C197.208 96.7776 196.989 96.69 196.598 96.7059C196.165 96.7237 196.077 96.8117 196.373 96.9301ZM183.269 100.92C182.249 101.411 181.525 101.826 181.662 101.842C182.053 101.889 185.31 100.436 185.31 100.215C185.31 99.9347 185.324 99.9303 183.269 100.92ZM245.797 100.387C246.103 100.585 246.52 100.747 246.724 100.747C246.929 100.747 246.845 100.585 246.539 100.387C246.233 100.19 245.815 100.028 245.611 100.028C245.407 100.028 245.491 100.19 245.797 100.387ZM271.476 100.462C270.793 101.144 270.942 102.031 271.889 102.92C273.11 104.067 274.66 103.996 274.965 102.779C275.415 100.987 272.732 99.2055 271.476 100.462ZM248.023 101.315C248.534 101.607 249.118 101.845 249.322 101.845C249.526 101.845 249.276 101.607 248.765 101.315C248.255 101.023 247.671 100.785 247.467 100.785C247.263 100.785 247.513 101.023 248.023 101.315ZM276.318 103.973C275.546 104.284 275.788 106.133 276.713 107.002C277.676 107.907 278.459 108.025 279.12 107.364C280.571 105.913 278.305 103.171 276.318 103.973ZM260.269 107.573C260.269 107.675 260.77 108.115 261.382 108.551C261.995 108.987 262.495 109.26 262.495 109.158C262.495 109.056 261.995 108.616 261.382 108.18C260.77 107.744 260.269 107.471 260.269 107.573ZM280.382 108.625C279.678 109.329 279.86 110.577 280.795 111.455C281.758 112.36 282.541 112.478 283.202 111.817C283.856 111.162 283.747 110.262 282.878 109.158C282.054 108.11 281.101 107.906 280.382 108.625ZM211.843 109.888C197.312 111.363 187.789 116.215 181.97 125.109C179.724 128.541 178.755 131.02 178.146 134.898C176.835 143.239 179.32 148.955 185.602 152.048C187.695 153.078 188.437 153.248 190.85 153.252C196.184 153.26 199.863 151.075 201.806 146.745C202.739 144.667 202.822 144.142 202.675 141.25C202.487 137.564 201.313 134.636 197.988 129.563C196.934 127.955 196.072 126.214 196.072 125.695C196.072 124.379 198.855 121.798 201.101 121.033C204.011 120.041 207.061 120.228 209.727 121.561C212.203 122.798 215.103 125.695 216.019 127.847C216.648 129.326 216.82 129.649 218.163 131.857C218.697 132.735 219.369 134.488 219.657 135.753L220.18 138.052L220.008 135.632C219.658 130.694 217.455 125.887 214.078 122.694C211.228 119.998 208.518 118.818 205.18 118.818C201.536 118.819 199.098 119.718 196.636 121.968C193.477 124.855 193.508 125.926 196.896 130.931C201.012 137.009 202.185 141.916 200.438 145.734C198.611 149.725 195.56 151.6 190.903 151.593C186.811 151.587 183.087 149.256 181.125 145.474C180.468 144.205 180.352 143.29 180.33 139.166C180.308 135.009 180.429 133.961 181.208 131.589C183.645 124.174 190.634 117.684 199.447 114.651C205.995 112.398 217.924 111.613 224.623 112.995C228.7 113.836 232.167 115.139 231.82 115.701C231.684 115.921 231.759 115.977 231.996 115.831C232.503 115.518 234.925 116.993 237.555 119.219C239.845 121.156 243.694 126.074 244.681 128.324C245.687 130.617 246.54 135.22 246.533 138.315C246.51 147.828 241.888 155.441 229.84 165.808C221.853 172.681 219.024 175.877 217.629 179.606C217.215 180.714 216.605 183.84 216.274 186.554C215.943 189.268 215.5 191.697 215.289 191.952C215.079 192.207 214.447 192.416 213.887 192.416C212.61 192.416 212.464 191.729 212.149 184.236C211.928 178.994 211.956 178.701 213.136 174.031C213.804 171.387 214.517 168.889 214.719 168.481C214.955 168.005 214.957 167.872 214.723 168.11C214.523 168.314 213.5 170.348 212.451 172.629L210.544 176.777L210.547 181.72C210.551 187.845 211.119 193.204 211.821 193.733C212.105 193.947 213.365 194.096 214.622 194.063C217.861 193.98 218.078 193.672 218.2 188.995C218.375 182.273 218.494 181.512 219.779 178.901C221.17 176.075 224.118 172.927 230.211 167.763C240.681 158.888 245.651 152.136 247.517 144.255C248.426 140.413 248.025 131.849 246.785 128.59C245.436 125.05 244.37 123.212 242.073 120.474C237.735 115.303 231.888 111.972 224.67 110.561C221.833 110.007 214.477 109.621 211.843 109.888ZM263.98 110.176C263.98 110.253 264.272 110.545 264.629 110.825C265.218 111.286 265.231 111.273 264.769 110.685C264.284 110.067 263.98 109.87 263.98 110.176ZM291.316 112.881C290.749 113.448 291.154 114.421 292.512 115.747C295.101 118.275 296.711 116.665 294.183 114.076C292.857 112.719 291.884 112.313 291.316 112.881ZM302.036 114.143C300.613 115.719 300.528 116.213 301.572 116.871C302.082 117.193 302.51 116.954 303.885 115.578C305.065 114.398 305.5 113.701 305.332 113.262C304.909 112.159 303.485 112.54 302.036 114.143ZM268.094 113.468C268.18 113.519 268.835 114.062 269.548 114.674L270.845 115.787L269.755 114.581C269.156 113.918 268.501 113.375 268.301 113.375C268.101 113.375 268.008 113.417 268.094 113.468ZM283.629 114.151C283.119 115.104 283.765 116.924 284.811 117.484C285.733 117.978 286.987 117.299 286.987 116.306C286.987 113.961 284.564 112.405 283.629 114.151ZM220.123 115.855C220.39 115.962 220.711 115.949 220.834 115.826C220.957 115.703 220.738 115.615 220.347 115.631C219.915 115.649 219.827 115.737 220.123 115.855ZM224.947 116.226C225.214 116.334 225.535 116.32 225.658 116.197C225.781 116.074 225.562 115.986 225.171 116.002C224.739 116.02 224.651 116.108 224.947 116.226ZM271.401 116.113C271.401 116.19 271.694 116.482 272.051 116.763C272.639 117.224 272.652 117.211 272.191 116.622C271.706 116.004 271.401 115.808 271.401 116.113ZM230.125 117.52C230.341 117.736 230.736 117.839 231.004 117.75C231.282 117.657 231.114 117.489 230.612 117.357C229.995 117.196 229.85 117.244 230.125 117.52ZM195.979 119.154C194.54 119.934 194.703 120.204 196.165 119.461C197.564 118.749 197.811 118.565 197.34 118.585C197.153 118.593 196.54 118.849 195.979 119.154ZM235.221 119.582C235.425 119.777 236.26 120.311 237.076 120.769C237.893 121.228 238.227 121.325 237.819 120.986C236.99 120.297 234.639 119.026 235.221 119.582ZM275.854 120.611C276.334 121.122 276.81 121.539 276.912 121.539C277.014 121.539 276.705 121.122 276.225 120.611C275.746 120.101 275.27 119.684 275.168 119.684C275.066 119.684 275.375 120.101 275.854 120.611ZM154.482 121.031C153.624 121.963 153.621 121.984 154.411 121.503C154.866 121.226 155.32 120.786 155.419 120.527C155.685 119.834 155.487 119.941 154.482 121.031ZM192.896 121.003C192.204 121.557 192.208 121.564 193.01 121.175C193.47 120.953 193.845 120.693 193.845 120.598C193.845 120.315 193.653 120.397 192.896 121.003ZM292.421 123.71C290.923 125.245 290.733 126.438 291.949 126.672C292.895 126.854 295.583 124.192 295.443 123.213C295.258 121.923 293.958 122.137 292.421 123.71ZM301.162 122.727C300.504 123.385 300.588 123.621 302.059 125.249C303.483 126.825 304.911 127.202 305.329 126.112C305.493 125.686 305.073 124.987 303.993 123.886C302.329 122.19 301.882 122.007 301.162 122.727ZM278.638 123.766C279.007 124.174 279.393 124.508 279.495 124.508C279.597 124.508 279.378 124.174 279.009 123.766C278.639 123.357 278.253 123.023 278.151 123.023C278.049 123.023 278.268 123.357 278.638 123.766ZM150.579 125.714L149.872 126.549L150.707 125.842C151.491 125.178 151.711 124.879 151.414 124.879C151.343 124.879 150.968 125.254 150.579 125.714ZM208.41 125.877C208.767 125.97 209.352 125.97 209.709 125.877C210.066 125.784 209.774 125.707 209.06 125.707C208.345 125.707 208.053 125.784 208.41 125.877ZM214.231 127.822C214.933 128.44 215.589 128.864 215.689 128.764C215.892 128.561 214.834 127.667 213.698 127.081C213.29 126.87 213.53 127.204 214.231 127.822ZM147.784 129.239C147.322 129.828 147.335 129.841 147.924 129.379C148.542 128.894 148.738 128.59 148.433 128.59C148.356 128.59 148.064 128.882 147.784 129.239ZM284.76 131.929C284.979 132.338 285.241 132.672 285.343 132.672C285.445 132.672 285.35 132.338 285.131 131.929C284.913 131.521 284.651 131.187 284.549 131.187C284.447 131.187 284.542 131.521 284.76 131.929ZM182.512 131.954C182.377 132.172 182.347 132.43 182.444 132.527C182.541 132.624 182.72 132.446 182.841 132.131C183.092 131.477 182.878 131.362 182.512 131.954ZM181.46 134.356C181.102 135.289 181.207 135.53 181.645 134.777C181.862 134.405 181.961 134.022 181.865 133.927C181.77 133.831 181.587 134.024 181.46 134.356ZM202.638 135.45C202.978 136.162 203.321 136.678 203.402 136.598C203.571 136.428 202.445 134.156 202.191 134.156C202.098 134.156 202.299 134.738 202.638 135.45ZM143.749 135.64C143.531 136.048 143.436 136.382 143.538 136.382C143.64 136.382 143.902 136.048 144.12 135.64C144.339 135.232 144.434 134.898 144.332 134.898C144.23 134.898 143.968 135.232 143.749 135.64ZM180.516 137.341C180.533 137.773 180.621 137.861 180.74 137.565C180.847 137.297 180.834 136.977 180.71 136.854C180.587 136.731 180.5 136.95 180.516 137.341ZM220.251 139.351C220.251 139.861 220.335 140.07 220.438 139.815C220.541 139.56 220.541 139.142 220.438 138.887C220.335 138.632 220.251 138.841 220.251 139.351ZM250.279 139.196C250.297 139.629 250.385 139.717 250.503 139.421C250.61 139.153 250.597 138.833 250.474 138.709C250.351 138.586 250.263 138.805 250.279 139.196ZM204.67 140.093C204.676 140.399 204.814 141.067 204.978 141.578C205.217 142.323 205.277 142.36 205.286 141.763C205.292 141.355 205.153 140.687 204.978 140.279C204.782 139.824 204.663 139.752 204.67 140.093ZM250.727 142.134C250.73 143.155 250.802 143.528 250.887 142.964C250.972 142.4 250.97 141.565 250.882 141.108C250.794 140.652 250.724 141.114 250.727 142.134ZM220.708 145.474C220.708 148.127 220.767 149.164 220.839 147.778C220.91 146.392 220.91 144.221 220.837 142.954C220.765 141.687 220.707 142.821 220.708 145.474ZM289.956 141.185C289.956 141.377 290.121 141.636 290.323 141.76C290.533 141.89 290.595 141.742 290.468 141.411C290.222 140.769 289.956 140.651 289.956 141.185ZM205.468 144.917C205.468 146.244 205.535 146.786 205.617 146.123C205.7 145.46 205.7 144.374 205.617 143.711C205.535 143.048 205.468 143.591 205.468 144.917ZM291.095 143.247C291.095 143.451 291.334 144.036 291.625 144.546C291.917 145.056 292.156 145.307 292.156 145.103C292.156 144.899 291.917 144.314 291.625 143.804C291.334 143.294 291.095 143.043 291.095 143.247ZM250.732 146.773C250.732 147.895 250.802 148.354 250.887 147.793C250.972 147.232 250.972 146.313 250.887 145.752C250.802 145.191 250.732 145.65 250.732 146.773ZM292.194 145.845C292.194 146.049 292.355 146.467 292.553 146.773C292.751 147.079 292.913 147.162 292.913 146.958C292.913 146.754 292.751 146.337 292.553 146.031C292.355 145.724 292.194 145.641 292.194 145.845ZM293.151 148.443C293.456 149.807 293.668 150.103 293.661 149.154C293.657 148.763 293.486 148.192 293.278 147.886C293.003 147.48 292.969 147.63 293.151 148.443ZM137.672 148.457C137.314 149.39 137.42 149.631 137.857 148.879C138.074 148.506 138.173 148.123 138.077 148.028C137.982 147.932 137.799 148.125 137.672 148.457ZM204.445 150.004C204.244 150.532 204.286 150.575 204.653 150.211C204.907 149.96 205.02 149.66 204.906 149.546C204.792 149.432 204.584 149.638 204.445 150.004ZM250.279 149.958C250.297 150.39 250.385 150.478 250.503 150.182C250.61 149.914 250.597 149.594 250.474 149.471C250.351 149.348 250.263 149.567 250.279 149.958ZM182.16 150.994C182.511 151.53 182.868 151.968 182.954 151.968C183.223 151.968 182.358 150.538 181.93 150.273C181.706 150.134 181.81 150.459 182.16 150.994ZM220.251 152.339C220.251 152.849 220.335 153.058 220.438 152.803C220.541 152.548 220.541 152.13 220.438 151.875C220.335 151.62 220.251 151.829 220.251 152.339ZM136.168 152.922C136.032 153.466 135.992 153.982 136.079 154.07C136.167 154.157 136.35 153.784 136.487 153.24C136.623 152.696 136.663 152.18 136.576 152.092C136.488 152.005 136.305 152.378 136.168 152.922ZM249.537 153.297C249.555 153.73 249.643 153.818 249.761 153.522C249.868 153.254 249.855 152.934 249.732 152.811C249.609 152.687 249.521 152.906 249.537 153.297ZM199.04 155.679C198.706 155.895 198.66 156.04 198.926 156.044C199.169 156.047 199.471 155.883 199.597 155.679C199.882 155.218 199.753 155.218 199.04 155.679ZM188.18 156.096C188.432 156.35 188.731 156.463 188.845 156.349C188.96 156.235 188.754 156.027 188.388 155.888C187.859 155.687 187.816 155.729 188.18 156.096ZM295.551 156.266C295.569 156.698 295.657 156.786 295.775 156.491C295.882 156.223 295.869 155.902 295.746 155.779C295.623 155.656 295.535 155.875 295.551 156.266ZM197 156.421C196.51 156.631 196.447 156.747 196.814 156.76C197.12 156.771 197.621 156.619 197.927 156.421C198.606 155.983 198.02 155.983 197 156.421ZM189.694 156.674C189.962 156.781 190.282 156.768 190.405 156.645C190.528 156.522 190.309 156.434 189.918 156.45C189.486 156.468 189.398 156.556 189.694 156.674ZM192.083 157.062C192.848 157.142 194.101 157.142 194.866 157.062C195.631 156.982 195.005 156.917 193.474 156.917C191.944 156.917 191.318 156.982 192.083 157.062ZM296.293 159.235C296.311 159.667 296.399 159.755 296.517 159.459C296.625 159.191 296.611 158.871 296.488 158.748C296.365 158.625 296.277 158.844 296.293 159.235ZM296.664 160.719C296.682 161.151 296.77 161.239 296.888 160.944C296.996 160.676 296.982 160.355 296.859 160.232C296.736 160.109 296.648 160.328 296.664 160.719ZM244.636 162.265C244.175 162.854 244.188 162.867 244.776 162.406C245.133 162.125 245.426 161.833 245.426 161.756C245.426 161.451 245.121 161.647 244.636 162.265ZM297.065 162.729C297.065 163.239 297.149 163.448 297.252 163.193C297.355 162.938 297.355 162.521 297.252 162.265C297.149 162.01 297.065 162.219 297.065 162.729ZM297.45 164.77C297.457 165.382 297.54 165.588 297.634 165.227C297.729 164.866 297.722 164.365 297.621 164.114C297.519 163.862 297.442 164.158 297.45 164.77ZM215.998 165.303C215.652 165.889 215.369 166.51 215.37 166.683C215.37 166.855 215.713 166.435 216.132 165.749C216.55 165.063 216.833 164.441 216.76 164.369C216.687 164.296 216.344 164.716 215.998 165.303ZM297.834 167.553C297.834 168.268 297.911 168.56 298.004 168.203C298.097 167.846 298.097 167.261 298.004 166.904C297.911 166.547 297.834 166.839 297.834 167.553ZM120 167.997C120 168.595 121.877 170.522 122.46 170.522C123.42 170.522 123.386 169.683 122.383 168.636C121.333 167.54 120 167.183 120 167.997ZM127.857 168.412C126.849 169.485 126.805 170.522 127.766 170.522C128.532 170.522 130.019 168.897 130.019 168.06C130.019 167.261 128.744 167.469 127.857 168.412ZM237.412 169.501L236.705 170.336L237.54 169.629C238.325 168.965 238.544 168.667 238.247 168.667C238.177 168.667 237.801 169.042 237.412 169.501ZM298.231 171.264C298.231 172.387 298.3 172.846 298.385 172.285C298.47 171.723 298.47 170.805 298.385 170.244C298.3 169.683 298.231 170.142 298.231 171.264ZM120.96 175.312C119.941 176.376 119.835 177.572 120.759 177.572C121.405 177.572 123.418 175.394 123.247 174.88C122.962 174.025 122.024 174.202 120.96 175.312ZM127.051 174.906C127.051 175.758 129.083 177.736 129.618 177.405C130.285 176.994 130.075 176.28 128.978 175.23C127.77 174.072 127.051 173.951 127.051 174.906ZM298.626 177.758C298.627 179.799 298.689 180.586 298.764 179.508C298.84 178.43 298.839 176.76 298.763 175.797C298.686 174.835 298.625 175.717 298.626 177.758ZM227.057 177.049L225.944 178.005L227.15 177.207C227.813 176.768 228.356 176.336 228.356 176.248C228.356 175.971 228.199 176.067 227.057 177.049ZM209.291 178.886C208.933 179.819 209.039 180.059 209.476 179.307C209.693 178.935 209.792 178.552 209.696 178.456C209.601 178.361 209.418 178.554 209.291 178.886ZM223.484 179.706C223.023 180.295 223.036 180.308 223.625 179.846C224.243 179.361 224.439 179.057 224.134 179.057C224.057 179.057 223.765 179.349 223.484 179.706ZM208.158 182.237C208.022 182.781 207.982 183.298 208.069 183.385C208.157 183.473 208.34 183.099 208.477 182.556C208.613 182.012 208.653 181.495 208.566 181.408C208.478 181.32 208.295 181.694 208.158 182.237ZM298.234 184.066C298.236 185.291 298.306 185.747 298.388 185.08C298.471 184.413 298.469 183.411 298.385 182.854C298.3 182.296 298.232 182.842 298.234 184.066ZM207.634 184.623C207.634 185.133 207.718 185.342 207.821 185.087C207.924 184.832 207.924 184.414 207.821 184.159C207.718 183.904 207.634 184.113 207.634 184.623ZM207.29 187.592C207.29 188.306 207.367 188.598 207.46 188.241C207.553 187.884 207.553 187.299 207.46 186.942C207.367 186.585 207.29 186.877 207.29 187.592ZM297.834 187.592C297.834 188.306 297.911 188.598 298.004 188.241C298.097 187.884 298.097 187.299 298.004 186.942C297.911 186.585 297.834 186.877 297.834 187.592ZM297.436 189.818C297.436 190.328 297.52 190.537 297.623 190.282C297.726 190.027 297.726 189.61 297.623 189.354C297.52 189.099 297.436 189.308 297.436 189.818ZM206.97 194.642C206.97 196.785 207.032 197.662 207.107 196.59C207.182 195.519 207.182 193.765 207.107 192.694C207.032 191.623 206.97 192.499 206.97 194.642ZM134.13 195.23C134.148 195.662 134.236 195.75 134.355 195.454C134.462 195.186 134.448 194.866 134.325 194.743C134.202 194.62 134.114 194.839 134.13 195.23ZM215.026 195.601C215.044 196.033 215.132 196.121 215.25 195.825C215.358 195.557 215.344 195.237 215.221 195.114C215.098 194.991 215.01 195.21 215.026 195.601ZM134.704 197.24C134.834 197.954 135.086 198.873 135.264 199.281C135.487 199.79 135.515 199.616 135.354 198.724C135.224 198.01 134.972 197.091 134.793 196.683C134.571 196.174 134.542 196.348 134.704 197.24ZM207.204 198.864C207.204 198.941 207.497 199.234 207.854 199.514C208.442 199.975 208.455 199.962 207.994 199.374C207.509 198.755 207.204 198.559 207.204 198.864ZM209.709 200.106C210.373 200.188 211.458 200.188 212.121 200.106C212.785 200.024 212.242 199.956 210.915 199.956C209.588 199.956 209.046 200.024 209.709 200.106ZM214.255 203.03C210.567 204.017 208.321 205.489 205.498 208.767C205.07 209.264 204.402 209.883 204.014 210.142C203.384 210.563 203.398 210.572 204.143 210.222C205.159 209.745 205.158 209.726 204.215 211.858C201.639 217.682 203.047 224.611 207.711 229.065C212.354 233.499 217.158 234.523 223.787 232.492C228.046 231.188 230.283 229.139 232.702 224.329C233.635 222.472 233.728 221.92 233.732 218.206C233.736 214.577 233.63 213.898 232.773 212.083C231.461 209.305 228.677 205.994 226.658 204.811C222.828 202.566 218.376 201.927 214.255 203.03ZM223.646 205.88C226.446 207.161 229.538 210.125 230.621 212.565C231.837 215.303 231.876 220.753 230.699 223.302C229.516 225.862 227.944 227.828 227.561 227.224C227.342 226.88 227.252 226.962 227.248 227.511C227.242 228.455 226.108 229.531 223.903 230.686C222.458 231.444 221.708 231.562 218.337 231.563C213.748 231.565 212.139 230.959 208.918 228.016C205.443 224.839 203.834 219.449 204.959 214.757C205.517 212.431 207.71 208.868 208.796 208.524C209.246 208.381 209.817 207.996 210.067 207.669C210.316 207.341 210.526 207.191 210.532 207.334C210.539 207.477 210.963 207.206 211.476 206.731C213.848 204.532 219.794 204.116 223.646 205.88ZM215.654 208.576C216.729 208.866 218.125 209.37 218.756 209.696C219.387 210.022 219.798 210.119 219.669 209.911C219.349 209.394 215.531 207.996 214.519 208.026C214.068 208.039 214.578 208.287 215.654 208.576ZM223.532 213.337C223.532 213.413 223.824 213.706 224.181 213.986C224.77 214.447 224.783 214.434 224.322 213.846C223.837 213.228 223.532 213.031 223.532 213.337ZM141.169 214.866C141.162 215.07 141.467 215.708 141.847 216.284C142.412 217.141 142.578 217.221 142.768 216.728C142.896 216.394 142.843 216.223 142.649 216.342C142.457 216.461 142.049 216.094 141.741 215.527C141.433 214.959 141.176 214.662 141.169 214.866ZM225.206 215.563C225.557 216.098 225.914 216.536 226 216.536C226.268 216.536 225.404 215.106 224.976 214.841C224.752 214.703 224.855 215.027 225.206 215.563ZM142.845 218.129C142.985 218.495 143.192 218.701 143.307 218.587C143.421 218.473 143.307 218.173 143.053 217.921C142.686 217.558 142.644 217.6 142.845 218.129ZM143.239 220.293C142.93 221.84 143.229 222.14 143.564 220.618C143.705 219.976 143.743 219.375 143.648 219.28C143.553 219.185 143.369 219.641 143.239 220.293ZM196.472 219.721C196.49 220.153 196.578 220.241 196.696 219.946C196.804 219.678 196.79 219.357 196.667 219.234C196.544 219.111 196.456 219.33 196.472 219.721ZM196.144 221.546C196.152 222.158 196.235 222.364 196.329 222.002C196.423 221.641 196.417 221.14 196.315 220.889C196.214 220.638 196.137 220.933 196.144 221.546ZM227.733 223.958C227.733 225.284 227.8 225.827 227.882 225.164C227.964 224.5 227.964 223.415 227.882 222.752C227.8 222.088 227.733 222.631 227.733 223.958ZM142.665 222.69C142.683 223.122 142.771 223.21 142.889 222.914C142.997 222.646 142.983 222.326 142.86 222.203C142.737 222.08 142.649 222.299 142.665 222.69ZM284.902 222.937C284.751 223.193 284.39 223.819 284.099 224.329C283.59 225.219 283.594 225.227 284.192 224.514C284.946 223.616 285.595 222.473 285.352 222.473C285.255 222.473 285.052 222.682 284.902 222.937ZM138.294 223.662C137.11 225.163 137.499 227.297 138.957 227.297C140.514 227.297 140.979 223.509 139.449 223.291C139.023 223.23 138.504 223.397 138.294 223.662ZM141.923 225.287C141.941 225.72 142.029 225.808 142.147 225.512C142.255 225.244 142.241 224.924 142.118 224.8C141.995 224.677 141.907 224.896 141.923 225.287ZM196.158 226.184C196.158 226.899 196.234 227.191 196.327 226.834C196.421 226.477 196.421 225.892 196.327 225.535C196.234 225.178 196.158 225.47 196.158 226.184ZM141.566 226.618C141.542 226.958 141.427 227.543 141.309 227.916C141.107 228.561 141.118 228.562 141.52 227.935C141.753 227.572 141.868 226.987 141.776 226.637C141.626 226.062 141.605 226.06 141.566 226.618ZM140.81 229.369C140.828 229.802 140.916 229.889 141.034 229.594C141.141 229.326 141.128 229.006 141.005 228.882C140.882 228.759 140.794 228.978 140.81 229.369ZM136.311 230.495C135.808 231.819 135.981 232.872 136.784 233.376C137.723 233.964 138.639 232.888 138.694 231.133C138.736 229.843 138.644 229.698 137.719 229.592C136.896 229.497 136.624 229.672 136.311 230.495ZM279.147 230.916C278.685 231.504 278.698 231.517 279.287 231.056C279.905 230.571 280.101 230.266 279.796 230.266C279.719 230.266 279.427 230.559 279.147 230.916ZM224.227 233.513C223.765 234.102 223.778 234.115 224.367 233.653C224.985 233.168 225.181 232.864 224.876 232.864C224.799 232.864 224.507 233.156 224.227 233.513ZM135.3 235.771C134.719 236.141 134.071 238.292 134.335 238.979C134.802 240.195 136.523 239.99 136.899 238.674C137.026 238.234 137.204 237.599 137.297 237.263C137.39 236.927 137.198 236.385 136.87 236.057C136.2 235.386 135.972 235.345 135.3 235.771ZM220.009 237.313C219.879 237.523 220.028 237.585 220.358 237.458C221.001 237.212 221.119 236.946 220.585 236.946C220.393 236.946 220.134 237.111 220.009 237.313ZM206.091 238.801C206.397 238.999 206.898 239.152 207.204 239.14C207.571 239.127 207.508 239.011 207.019 238.801C205.999 238.363 205.413 238.363 206.091 238.801ZM215.925 238.997C214.763 239.38 214.642 239.489 215.368 239.502C215.878 239.51 216.713 239.278 217.223 238.987C218.352 238.341 217.904 238.345 215.925 238.997ZM274.575 238.769C274.253 239.29 276.198 241.399 277.001 241.399C277.924 241.399 277.901 240.629 276.941 239.408C276.179 238.439 274.979 238.115 274.575 238.769ZM282.377 239.513C281.374 240.56 281.34 241.399 282.301 241.399C282.998 241.399 284.879 239.293 284.593 238.831C284.177 238.158 283.465 238.377 282.377 239.513ZM138.212 239.76C138.23 240.192 138.318 240.28 138.436 239.984C138.544 239.716 138.53 239.396 138.407 239.273C138.284 239.149 138.196 239.368 138.212 239.76ZM208.248 239.426C208.516 239.533 208.836 239.519 208.959 239.396C209.082 239.273 208.863 239.185 208.472 239.201C208.04 239.219 207.952 239.307 208.248 239.426ZM210.443 239.811C211.102 239.893 212.271 239.894 213.041 239.814C213.81 239.734 213.271 239.667 211.843 239.665C210.414 239.663 209.784 239.729 210.443 239.811ZM133.002 242.477C132.757 243.07 132.611 243.946 132.679 244.425C132.777 245.117 133.03 245.295 133.916 245.295C134.887 245.295 135.071 245.123 135.362 243.944C135.791 242.211 135.466 241.399 134.343 241.399C133.706 241.399 133.321 241.708 133.002 242.477ZM266.901 242.79C266.44 243.379 266.453 243.392 267.041 242.93C267.659 242.445 267.856 242.141 267.55 242.141C267.474 242.141 267.181 242.433 266.901 242.79ZM264.351 244.784C263.058 245.917 263.057 245.919 264.247 245.128C264.904 244.69 265.54 244.174 265.66 243.979C266.018 243.4 265.721 243.582 264.351 244.784ZM136.728 244.955C136.746 245.387 136.834 245.475 136.952 245.179C137.059 244.911 137.046 244.591 136.923 244.468C136.8 244.345 136.712 244.564 136.728 244.955ZM275.54 246.35C274.461 247.463 274.399 247.64 274.933 248.083C275.443 248.507 275.689 248.415 276.671 247.433C277.393 246.711 277.731 246.071 277.588 245.699C277.26 244.842 276.886 244.961 275.54 246.35ZM281.542 245.699C281.399 246.071 281.735 246.708 282.448 247.422C283.161 248.135 283.799 248.47 284.171 248.328C285.032 247.997 284.898 247.416 283.676 246.194C282.453 244.972 281.873 244.837 281.542 245.699ZM136.168 246.806C136.032 247.35 135.992 247.866 136.079 247.954C136.167 248.041 136.35 247.668 136.487 247.124C136.623 246.58 136.663 246.063 136.576 245.976C136.488 245.889 136.305 246.262 136.168 246.806ZM131.932 248.004C130.913 248.895 130.621 250.483 131.344 251.206C132.297 252.158 133.088 251.809 133.716 250.155C134.464 248.189 133.31 246.798 131.932 248.004ZM135.615 249.037C135.633 249.469 135.721 249.557 135.839 249.261C135.946 248.993 135.933 248.673 135.81 248.55C135.686 248.426 135.599 248.645 135.615 249.037ZM257.093 249.397C256.401 249.952 256.406 249.958 257.208 249.57C257.667 249.347 258.042 249.087 258.042 248.993C258.042 248.709 257.85 248.791 257.093 249.397ZM173.436 249.337C173.436 249.417 173.695 249.582 174.012 249.704C174.342 249.831 174.491 249.768 174.361 249.558C174.143 249.205 173.436 249.037 173.436 249.337ZM171.395 249.933C170.927 250.135 170.859 250.252 171.209 250.252C171.515 250.252 172.1 250.109 172.508 249.933C172.976 249.732 173.044 249.615 172.694 249.615C172.387 249.615 171.803 249.758 171.395 249.933ZM135.055 250.888C134.919 251.432 134.879 251.948 134.966 252.036C135.054 252.123 135.237 251.75 135.374 251.206C135.51 250.662 135.55 250.145 135.463 250.058C135.375 249.971 135.192 250.344 135.055 250.888ZM175.192 250.351C175.444 250.604 175.744 250.718 175.857 250.604C175.972 250.49 175.766 250.282 175.4 250.143C174.871 249.942 174.828 249.984 175.192 250.351ZM168.797 250.676C168.329 250.877 168.261 250.994 168.612 250.994C168.918 250.994 169.502 250.851 169.911 250.676C170.378 250.475 170.447 250.357 170.096 250.357C169.79 250.357 169.205 250.5 168.797 250.676ZM254.239 250.888C252.852 251.64 252.936 251.954 254.332 251.232C254.944 250.916 255.445 250.577 255.445 250.48C255.445 250.242 255.405 250.255 254.239 250.888ZM166.014 251.418C165.268 251.657 165.232 251.717 165.829 251.726C166.237 251.732 166.905 251.593 167.313 251.418C168.258 251.011 167.283 251.011 166.014 251.418ZM161.492 252.784C161.759 252.892 162.08 252.878 162.203 252.755C162.326 252.632 162.107 252.544 161.716 252.56C161.284 252.578 161.196 252.666 161.492 252.784ZM250.438 252.898C250.308 253.108 250.457 253.17 250.787 253.044C251.43 252.797 251.547 252.531 251.014 252.531C250.822 252.531 250.563 252.696 250.438 252.898ZM130.059 254.153C129.827 254.432 129.598 255.309 129.55 256.101C129.473 257.375 129.567 257.555 130.37 257.669C131.502 257.829 132.246 256.883 132.246 255.283C132.246 253.756 130.946 253.084 130.059 254.153ZM133.574 256.457C133.211 257.998 132.983 259.33 133.069 259.416C133.155 259.501 133.523 258.311 133.886 256.769C134.25 255.228 134.477 253.896 134.391 253.81C134.305 253.724 133.937 254.915 133.574 256.457ZM149.988 255.753C150.256 255.86 150.576 255.847 150.699 255.724C150.822 255.601 150.604 255.513 150.212 255.529C149.78 255.547 149.692 255.635 149.988 255.753ZM188.094 256.014C188.706 256.293 189.624 256.624 190.134 256.749C190.88 256.932 190.843 256.876 189.949 256.469C189.337 256.191 188.418 255.86 187.908 255.735C187.163 255.552 187.2 255.607 188.094 256.014ZM147.391 256.495C147.658 256.603 147.978 256.589 148.102 256.466C148.225 256.343 148.006 256.255 147.615 256.271C147.182 256.289 147.095 256.377 147.391 256.495ZM238.746 257.17C238.032 257.445 237.698 257.67 238.004 257.67C238.31 257.67 239.145 257.445 239.859 257.17C240.574 256.895 240.908 256.669 240.602 256.669C240.295 256.669 239.461 256.895 238.746 257.17ZM191.804 257.355C192.213 257.531 192.797 257.674 193.103 257.674C193.454 257.674 193.386 257.556 192.918 257.355C192.509 257.18 191.925 257.036 191.619 257.036C191.268 257.036 191.336 257.154 191.804 257.355ZM195.144 258.293C195.96 258.562 196.962 258.78 197.371 258.778C197.779 258.775 197.278 258.541 196.257 258.257C193.936 257.611 193.151 257.636 195.144 258.293ZM236.45 257.98C236.718 258.087 237.038 258.074 237.161 257.95C237.285 257.827 237.066 257.74 236.674 257.756C236.242 257.773 236.154 257.861 236.45 257.98ZM140.711 258.351C140.979 258.458 141.299 258.445 141.422 258.321C141.545 258.198 141.326 258.111 140.935 258.127C140.503 258.144 140.415 258.232 140.711 258.351ZM234.966 258.351C235.234 258.458 235.554 258.445 235.677 258.321C235.8 258.198 235.581 258.111 235.19 258.127C234.758 258.144 234.67 258.232 234.966 258.351ZM233.482 258.722C233.749 258.829 234.069 258.816 234.193 258.692C234.316 258.569 234.097 258.482 233.706 258.498C233.274 258.515 233.186 258.603 233.482 258.722ZM138.114 259.093C138.381 259.2 138.701 259.187 138.825 259.064C138.948 258.94 138.729 258.853 138.338 258.869C137.905 258.887 137.818 258.975 138.114 259.093ZM198.577 259.085C198.832 259.188 199.249 259.188 199.504 259.085C199.76 258.982 199.551 258.898 199.04 258.898C198.53 258.898 198.322 258.982 198.577 259.085ZM231.997 259.093C232.265 259.2 232.585 259.187 232.708 259.064C232.832 258.94 232.613 258.853 232.221 258.869C231.789 258.887 231.701 258.975 231.997 259.093ZM200.432 259.456C200.687 259.559 201.105 259.559 201.36 259.456C201.615 259.353 201.406 259.269 200.896 259.269C200.386 259.269 200.177 259.353 200.432 259.456ZM152.284 263.367C152.284 264.097 154.558 266.22 155.112 266.007C155.877 265.713 155.736 265.12 154.627 263.962C153.609 262.9 152.284 262.564 152.284 263.367ZM160.246 263.832C159.17 264.907 159.059 265.89 160.012 265.89C160.845 265.89 162.303 264.399 162.303 263.547C162.303 262.64 161.298 262.78 160.246 263.832ZM153.361 270.753C152.136 272.064 152.034 272.497 152.874 272.819C153.699 273.136 155.734 271.061 155.414 270.228C155.067 269.324 154.58 269.448 153.361 270.753ZM159.46 270.18C159.213 270.824 161.019 272.941 161.816 272.941C162.656 272.941 162.348 271.638 161.262 270.598C160.062 269.448 159.767 269.379 159.46 270.18Z" fill="url(#paint0_linear_1334_528)"/>
<path d="M14.5416 25.1124L14.5416 25.1124C14.8956 23.5431 15.2645 22.0343 15.5805 20.8377C15.9377 21.9766 16.3471 23.4517 16.7558 25.1131C19.2 35.051 21.3818 39.5193 26.0859 43.6486L26.0859 43.6486C28.0043 45.3324 31.0675 47.0776 34.3936 48.5411C37.3698 49.8507 40.6256 50.965 43.5782 51.6185L42.1 52.0223C35.2099 53.9045 30.1336 56.1552 26.3467 59.3543C22.5389 62.571 20.1138 66.6787 18.4024 72.1232C17.3189 75.5687 16.1549 80.0309 15.8187 82.0593L15.8187 82.0595C15.7787 82.3011 15.7394 82.5214 15.7009 82.7214C15.6837 82.6667 15.6664 82.6105 15.6488 82.5528C15.3426 81.5468 14.9922 80.1493 14.5855 78.3322L14.5855 78.3322C12.8991 70.7995 10.7605 65.48 7.14051 61.4869C3.51721 57.49 -1.48738 54.935 -8.65752 52.7059L-8.65758 52.7059L-12.3022 51.5732L-11.8925 51.4702C-3.83277 49.4464 1.92887 46.8241 6.11005 42.6582C10.2966 38.487 12.7892 32.878 14.5416 25.1124Z" stroke="#DDC99C" stroke-width="2"/>
<path d="M47.7578 76.618L47.7578 76.618C47.7789 76.526 47.8 76.4345 47.8212 76.3437C47.8452 76.4371 47.8692 76.5319 47.8932 76.6281C49.1252 81.5623 50.2503 83.8847 52.7187 86.0191L52.7188 86.0192C53.7339 86.8968 55.3185 87.7803 57.0005 88.5093C57.919 88.9075 58.8923 89.2707 59.8546 89.5684C56.904 90.4454 54.6223 91.5065 52.8564 92.9761C50.861 94.6366 49.603 96.7516 48.7255 99.5014C48.4035 100.51 48.0653 101.701 47.8067 102.719C47.7979 102.68 47.789 102.641 47.78 102.602L47.78 102.602C46.9292 98.8587 45.8343 96.1357 43.9356 94.0725C42.0351 92.0074 39.4331 90.716 35.8156 89.6081L35.8156 89.6081L35.6956 89.5714C38.9955 88.6176 41.5014 87.3758 43.4026 85.5099C45.5931 83.3599 46.8708 80.4902 47.7578 76.618Z" stroke="#BD3C2A" stroke-width="2"/>
<rect x="165" y="421" width="14" height="4" rx="2" fill="#77BFA1"/>
<rect x="183" y="421" width="14" height="4" rx="2" fill="#77BFA1"/>
<rect x="201" y="421" width="14" height="4" rx="2" fill="#77BFA1"/>
<rect x="219" y="421" width="14" height="4" rx="2" fill="#77BFA1"/>
<rect x="237" y="421" width="14" height="4" rx="2" fill="#77BFA1"/>
<path d="M256 413L263.879 420.879C265.05 422.05 265.05 423.95 263.879 425.121L256 433" stroke="#77BFA1" stroke-width="3" stroke-linecap="round"/>
</g>
<defs>
<linearGradient id="paint0_linear_1334_528" x1="212.683" y1="80" x2="212.683" y2="272.941" gradientUnits="userSpaceOnUse">
<stop stop-color="#BD3C2A"/>
<stop offset="1"/>
</linearGradient>
<clipPath id="clip0_1334_528">
<rect width="431" height="447" rx="10" fill="white"/>
</clipPath>
</defs>
</svg>
