<svg width="53" height="53" viewBox="0 0 53 53" fill="none" xmlns="http://www.w3.org/2000/svg">
<path d="M26.4998 6.625C14.354 6.625 4.4165 14.575 4.4165 24.2917C4.4165 28.9292 6.62484 33.3458 10.5998 36.4375C10.5998 37.7625 9.7165 41.2958 4.4165 46.375C4.4165 46.375 12.1457 46.375 18.7707 40.8542C21.1998 41.5167 23.8498 41.9583 26.4998 41.9583C38.6457 41.9583 48.5832 34.0083 48.5832 24.2917C48.5832 14.575 38.6457 6.625 26.4998 6.625ZM28.7082 33.125H24.2915V28.7083H28.7082V33.125ZM32.6832 22.0833C32.0207 22.9667 31.1373 23.4083 30.254 23.85C29.5915 24.2917 29.3707 24.5125 29.1498 24.9542C28.7082 25.3958 28.7082 25.8375 28.7082 26.5H24.2915C24.2915 25.3958 24.5123 24.7333 24.954 24.0708C25.3957 23.6292 26.279 22.9667 27.3832 22.3042C28.0457 22.0833 28.4873 21.6417 28.7082 21.2C28.929 20.7583 29.1498 20.0958 29.1498 19.6542C29.1498 18.9917 28.929 18.55 28.4873 18.1083C28.0457 17.6667 27.3832 17.4458 26.7207 17.4458C26.0582 17.4458 25.6165 17.6667 25.1748 17.8875C24.7332 18.1083 24.5123 18.55 24.5123 19.2125H20.0957C20.3165 17.6667 20.979 16.3417 22.0832 15.4583C23.1873 14.575 24.7332 14.3542 26.7207 14.3542C28.7082 14.3542 30.4748 14.7958 31.579 15.6792C32.6832 16.5625 33.3457 17.8875 33.3457 19.4333C33.5665 20.3167 33.3457 21.2 32.6832 22.0833Z" fill="#BD3C2A"/>
</svg>
