<svg width="24" height="24" viewBox="0 0 24 24" fill="none" xmlns="http://www.w3.org/2000/svg">
<path d="M15.9623 16.848C16.0624 17.2785 15.5957 17.6176 15.2172 17.3894L13.0326 16.0725C12.3974 15.6896 11.6026 15.6896 10.9674 16.0725L8.78349 17.389C8.4049 17.6173 7.93812 17.278 8.03837 16.8474L8.6163 14.3654C8.78463 13.6425 8.53876 12.8858 7.97766 12.4L6.05545 10.7354C5.72115 10.4459 5.89961 9.89686 6.34023 9.85925L8.87797 9.64261C9.61728 9.5795 10.2609 9.11227 10.5499 8.42887L11.54 6.08772C11.712 5.6809 12.2885 5.68067 12.4609 6.08735L13.4496 8.42024C13.739 9.10289 14.3822 9.56946 15.121 9.63252L17.6598 9.84925C18.1004 9.88686 18.2789 10.4359 17.9446 10.7254L16.0219 12.3904C15.461 12.876 15.2151 13.6323 15.383 14.3549L15.9623 16.848ZM12 2C6.47 2 2 6.5 2 12C2 14.6522 3.05357 17.1957 4.92893 19.0711C5.85752 19.9997 6.95991 20.7362 8.17317 21.2388C9.38642 21.7413 10.6868 22 12 22C14.6522 22 17.1957 20.9464 19.0711 19.0711C20.9464 17.1957 22 14.6522 22 12C22 10.6868 21.7413 9.38642 21.2388 8.17316C20.7362 6.95991 19.9997 5.85752 19.0711 4.92893C18.1425 4.00035 17.0401 3.26375 15.8268 2.7612C14.6136 2.25866 13.3132 2 12 2Z" fill="white"/>
</svg>
