<svg width="124" height="124" viewBox="0 0 124 124" fill="none" xmlns="http://www.w3.org/2000/svg">
<rect width="124" height="124" rx="11.1404" fill="#F2EEE5"/>
<path d="M0 11.1404C0 4.98771 4.98771 0 11.1404 0H62V124H11.1404C4.98771 124 0 119.012 0 112.86V11.1404Z" fill="#E9E0CC"/>
<circle cx="61.9998" cy="62.0002" r="47.3026" stroke="white" stroke-width="1.11404"/>
<circle cx="62.0003" cy="61.9999" r="44.5965" fill="#D5C7A8"/>
<path fill-rule="evenodd" clip-rule="evenodd" d="M42.7904 29.5135C42.5255 29.6286 41.9537 29.7348 41.5198 29.7494C41.0225 29.7661 40.55 29.882 40.2422 30.0631C39.7934 30.327 39.7545 30.404 39.7627 31.0121C39.7676 31.3761 39.7243 31.674 39.6664 31.674C39.3948 31.674 39.115 32.1692 39.115 32.6501C39.115 33.0303 39.2564 33.3798 39.6118 33.8784L40.1087 34.5754V36.675V38.7746L40.5164 39.153C40.7405 39.3611 41.0624 39.627 41.2316 39.7438C41.8276 40.1551 42.3484 42.9729 42.4747 46.4687C42.5595 48.8136 42.3841 52.7355 42.0758 55.388C41.85 57.3314 41.8967 61.2327 42.1674 63.0331C42.4242 64.7409 42.7861 66.3002 44.0901 71.3153C45.7183 77.5779 46.926 82.2894 48.1363 87.101C49.5054 92.5439 49.8481 93.5202 50.5865 94.081C51.0583 94.4394 51.1781 94.4624 52.5191 94.4538C53.6749 94.4464 54.3456 94.3451 56.0191 93.9246C58.041 93.4167 62.3437 92.1685 63.1588 91.8533C64.3202 91.4042 64.9414 90.4851 64.9469 89.2074C64.9499 88.5297 64.8182 87.931 63.9076 84.4819C63.1402 81.5749 61.7492 76.1245 59.7887 68.3422C58.6609 63.8648 57.6284 59.883 57.4942 59.4937C56.9247 57.8394 55.2929 54.9525 52.9727 51.4946C49.6411 46.5294 47.2643 41.8231 46.793 39.2586C46.6519 38.4909 46.6628 38.3971 46.9225 38.1559C47.5232 37.5978 47.0309 35.73 45.7954 33.8792C45.3672 33.238 45.2669 32.9817 45.3691 32.7911C45.4426 32.6541 45.5028 32.1875 45.5028 31.7541C45.5028 30.8612 45.1891 30.3998 44.582 30.3998C44.3157 30.3998 44.1802 30.2831 44.0301 29.9249C43.7902 29.3523 43.4334 29.2339 42.7904 29.5135ZM43.257 30.7672L43.1974 31.276L43.8888 31.2273L44.5801 31.1785L44.6241 31.7861C44.6592 32.2723 44.6061 32.4436 44.3577 32.6443L44.0472 32.8949L44.6383 33.6648C45.2574 34.4711 46.2832 36.4237 46.4368 37.088C46.5061 37.3876 46.4665 37.4977 46.2631 37.5716C46.0296 37.6563 45.1072 38.3006 44.7221 38.648C44.6368 38.7249 44.8422 38.7378 45.2362 38.6803L45.8925 38.5844L45.9941 39.2603C46.4059 41.9997 48.7215 46.5696 52.9106 52.9104C54.6812 55.5904 55.9335 57.77 56.509 59.1732C56.709 59.6609 58.0467 64.7108 59.4817 70.395C61.938 80.1253 62.6287 82.8243 63.666 86.7471C64.3204 89.2218 64.2326 90.289 63.3287 90.8457C62.3316 91.4597 55.0887 93.4657 52.7935 93.7636C51.7895 93.8939 51.1116 93.6478 50.686 92.9987C50.4572 92.6497 49.9762 91.0271 49.2107 88.0213C47.8058 82.5058 46.633 77.9292 45.9813 75.421C44.0946 68.1586 43.2022 64.5124 43.028 63.3545C42.6442 60.8044 42.6209 58.6158 42.9366 54.7648C43.2603 50.8196 43.3258 45.8498 43.0841 43.5962C42.9589 42.4281 42.6821 41.0818 42.3024 39.7951C42.2311 39.5532 42.2917 39.4663 42.604 39.3625C42.9673 39.2418 42.9307 39.2174 42.0841 39.0175C40.8653 38.7297 40.8231 38.6306 40.8206 36.0494C40.8186 34.1307 40.7971 33.9638 40.52 33.7137C40.1574 33.3865 39.7862 32.7001 39.8852 32.5403C39.925 32.4763 40.2498 32.3125 40.6069 32.1764L41.2565 31.9291L40.8955 31.4571C40.6969 31.1974 40.5345 30.9514 40.5345 30.9104C40.5345 30.8694 40.7797 30.7626 41.0793 30.673C41.527 30.5394 41.7006 30.5499 42.054 30.7321C42.4658 30.9444 42.4977 30.9392 42.8116 30.6061C43.2515 30.139 43.3273 30.1665 43.257 30.7672ZM41.3974 36.1771C41.3848 36.7047 41.6518 37.8753 41.8065 37.9707C41.8988 38.0276 41.6033 36.1847 41.4666 35.8505C41.4348 35.7726 41.4035 35.9196 41.3974 36.1771ZM34.6711 44.7344C33.187 46.4765 32.8548 47.4303 33.4293 48.2997C33.786 48.8392 34.2313 49.0766 34.8991 49.0829C35.9335 49.0925 36.7019 48.3829 36.7019 47.4181C36.7019 47.1928 36.5825 46.6626 36.4367 46.2399C36.1663 45.456 35.4662 43.9911 35.3618 43.9911C35.3302 43.9911 35.0193 44.3256 34.6711 44.7344ZM61.1828 44.4247C61.1316 44.5076 61.2016 44.6987 61.3384 44.8495C61.5756 45.1108 61.5756 45.1366 61.3384 45.3979C60.9134 45.8663 61.3542 46.1876 61.8311 45.7573C62.0455 45.5637 62.089 45.5637 62.25 45.7573C62.3488 45.876 62.5139 45.9732 62.6168 45.9732C62.9385 45.9732 63.0014 45.6841 62.7417 45.3979C62.5045 45.1366 62.5045 45.1108 62.7417 44.8495C63.0014 44.5633 62.9385 44.2742 62.6168 44.2742C62.5139 44.2742 62.3488 44.3714 62.25 44.4901C62.089 44.6837 62.0455 44.6837 61.8311 44.4901C61.5512 44.2374 61.3137 44.2135 61.1828 44.4247ZM35.7722 46.1535C36.2238 47.35 36.2263 47.7345 35.7856 48.174C35.0857 48.8721 33.9276 48.5009 33.7777 47.5305C33.7112 47.101 33.7992 46.8969 34.4382 45.9977C34.8436 45.4271 35.2281 45.013 35.2928 45.0775C35.3574 45.142 35.5732 45.6263 35.7722 46.1535ZM49.8488 49.2648C50.5465 50.6435 51.4977 52.2648 52.5272 53.8306C53.9175 55.9451 55.3672 58.3822 55.7125 59.1853C56.0987 60.0842 56.1897 60.0261 55.8391 59.1043C55.3258 57.755 54.1602 55.64 52.7599 53.5168C52.0006 52.3656 50.9771 50.7707 50.4856 49.9727C49.994 49.1746 49.565 48.5215 49.5322 48.5215C49.4994 48.5215 49.6419 48.8561 49.8488 49.2648ZM43.746 51.8194C43.6782 52.7378 43.6567 53.5233 43.6985 53.5649C43.8187 53.6847 43.9669 51.9342 43.9158 50.9991C43.8777 50.3028 43.8471 50.4509 43.746 51.8194ZM92.6305 51.3413C92.6305 51.4905 92.7104 51.6419 92.8079 51.6775C92.9499 51.7294 92.9499 51.7799 92.8079 51.93C92.4079 52.353 92.7452 52.8809 93.1547 52.4725C93.2668 52.3606 93.3899 52.3606 93.5996 52.4725C93.759 52.5576 93.9255 52.6272 93.9696 52.6272C94.1083 52.6272 94.0569 52.0819 93.9096 51.9911C93.8231 51.9378 93.8534 51.7765 93.9882 51.5711C94.2525 51.1689 94.0535 50.9823 93.6118 51.218C93.3933 51.3346 93.2668 51.3365 93.1547 51.2246C92.9105 50.9811 92.6305 51.0436 92.6305 51.3413ZM78.672 53.4296C78.6199 53.4814 78.5773 53.6682 78.5773 53.8448C78.5773 54.0894 78.4848 54.1764 78.1882 54.2106C77.9535 54.2375 77.7803 54.3538 77.7519 54.5031C77.7153 54.6955 77.8023 54.7509 78.1411 54.7509C78.5058 54.7509 78.5773 54.8061 78.5773 55.0875C78.5773 55.5236 78.8886 55.7995 79.1202 55.5686C79.212 55.477 79.2871 55.2598 79.2871 55.0858C79.2871 54.8462 79.3815 54.7588 79.6775 54.7248C80.1859 54.6665 80.1984 54.2705 79.6936 54.2122C79.4077 54.1791 79.2997 54.0705 79.2358 53.7521C79.1579 53.3636 78.891 53.211 78.672 53.4296ZM27.2421 56.8049C27.1968 56.9222 27.2678 57.1825 27.3997 57.3831C27.6181 57.7159 27.6196 57.7696 27.4151 57.9948C26.9116 58.5498 27.3437 59.0409 27.9306 58.5807C28.2524 58.3281 28.2717 58.3281 28.5852 58.5814C29.1708 59.0544 29.5961 58.5455 29.0855 57.9829C28.8669 57.742 28.8669 57.706 29.0855 57.465C29.6127 56.884 29.2342 56.3923 28.6126 56.8507C28.2196 57.1405 28.2133 57.1407 27.9653 56.8673C27.6661 56.5376 27.3552 56.5107 27.2421 56.8049ZM43.3094 58.4844C43.1432 60.3119 43.297 63.0945 43.6511 64.6612C43.9994 66.2031 44.9373 69.6525 45.0368 69.758C45.1665 69.8956 44.561 66.1394 44.1408 64.2011C44.0184 63.6365 43.8071 61.8368 43.6711 60.2016L43.4238 57.2285L43.3094 58.4844ZM62.4705 58.9628C62.3411 59.3327 62.1996 60.0812 62.1559 60.6263C62.0808 61.5641 62.0971 61.6377 62.459 61.9977C63.1805 62.7151 64.2258 62.6413 64.7726 61.8344C65.3718 60.9502 65.1403 60.2994 63.795 59.0851C63.3107 58.6479 62.8674 58.2903 62.81 58.2903C62.7525 58.2903 62.5998 58.5928 62.4705 58.9628ZM63.866 59.8415C64.3665 60.3753 64.5242 60.6523 64.5242 60.9984C64.5242 61.9473 63.4868 62.3244 62.8209 61.6175C62.4984 61.2751 62.4935 61.2332 62.6628 60.316C62.93 58.87 62.9481 58.863 63.866 59.8415ZM71.5092 59.8832C71.428 59.9806 71.2308 60.7292 71.0708 61.5467C70.9109 62.3641 70.487 64.4347 70.1289 66.1478C69.7707 67.8608 69.3558 69.8677 69.2067 70.6074C69.0578 71.3471 68.6429 73.354 68.2849 75.0671C67.132 80.584 67.0577 81.0034 67.1245 81.6317C67.1669 82.0311 67.3087 82.3666 67.525 82.5794C68.0799 83.125 77.2133 86.0392 78.3687 86.0392C79.2513 86.0392 79.6953 85.5757 80.4711 83.8448C81.2222 82.1688 83.4028 77.2462 87.2998 68.4293L88.6692 65.3307L88.3624 65.005C87.2058 63.7771 80.0237 61.1514 75.0323 60.1315C72.7967 59.6748 71.7443 59.6006 71.5092 59.8832ZM76.4193 61.2608C78.8179 61.8506 82.2912 62.964 84.2486 63.7704C85.7393 64.3847 87.1448 65.0828 87.0602 65.1672C86.9106 65.3164 81.4662 64.0966 78.8656 63.3311C78.2044 63.1364 77.6441 62.9963 77.6207 63.0198C77.534 63.1063 79.6932 63.9397 81.2868 64.4347C82.1913 64.7157 83.9479 65.1741 85.1904 65.4533C86.4328 65.7325 87.4579 65.9711 87.4686 65.9835C87.4893 66.0079 87.3225 66.3884 84.5126 72.7311C81.1241 80.3797 79.8938 83.1281 79.4109 84.1279C78.9366 85.1099 78.9267 85.1194 78.3184 85.163C77.8933 85.1936 77.0433 85.005 75.5504 84.5491C72.4869 83.6136 68.3176 82.2083 68.1085 82.0408C67.7303 81.7381 67.7718 81.489 69.9929 70.749C70.2585 69.4642 70.7702 67.0114 71.1299 65.2983C71.4896 63.5852 71.8199 61.9432 71.8639 61.6493C71.9637 60.9831 72.0432 60.9345 72.6358 61.1774C72.8979 61.2848 73.3358 61.4153 73.6091 61.4675C74.0697 61.5555 74.0498 61.5308 73.3358 61.1285C72.9122 60.8899 72.529 60.6549 72.4841 60.6063C72.302 60.4093 74.3231 60.7454 76.4193 61.2608ZM79.2871 62.3443C79.8563 62.5757 80.9905 62.9341 80.9905 62.8827C80.9905 62.7819 80.0585 62.4311 79.5558 62.3426C79.2909 62.2959 79.17 62.2967 79.2871 62.3443ZM71.4987 64.6258C71.425 64.9179 71.3282 65.4116 71.2836 65.723L71.2027 66.2893L71.3949 65.7869C71.6179 65.2039 71.8249 64.0949 71.7106 64.0949C71.6677 64.0949 71.5723 64.3339 71.4987 64.6258ZM34.6809 64.8642C31.6654 66.5823 30.8965 67.5271 31.2995 69.0198C31.7165 70.5644 33.4306 71.333 34.8487 70.6114C36.0411 70.0047 36.369 68.9716 36.2135 66.3121C36.1164 64.653 36.0475 64.2355 35.8704 64.2375C35.8202 64.2382 35.2849 64.5202 34.6809 64.8642ZM35.3983 67.4719C35.3378 69.0889 35.2173 69.4264 34.5624 69.8123C33.9063 70.1988 33.2231 70.1089 32.6186 69.5565C32.1564 69.134 32.0885 68.9899 32.0885 68.4332C32.0885 67.6288 32.4876 67.1801 34.0701 66.206C35.4542 65.3538 35.4767 65.3753 35.3983 67.4719ZM94.6375 70.1415C94.1756 71.849 94.1225 72.4714 94.3907 73.0352C95.1514 74.634 97.5746 74.1041 97.5938 72.3346C97.6023 71.5393 97.3012 71.1437 95.381 69.4278L94.9377 69.0315L94.6375 70.1415ZM97.0309 72.2973C97.0309 73.3112 95.8154 73.7968 95.0895 73.0728C94.7616 72.7458 94.7308 72.6277 94.7995 71.9634C94.8418 71.5546 94.9582 70.9479 95.058 70.6153L95.2397 70.0107L96.1354 70.9306C96.8507 71.6654 97.0309 71.9405 97.0309 72.2973ZM69.6457 73.9462C69.6525 74.1111 69.6861 74.1447 69.7314 74.0319C69.7724 73.9296 69.7673 73.8075 69.7202 73.7605C69.673 73.7135 69.6395 73.797 69.6457 73.9462ZM82.7291 75.5252C80.7121 79.8063 79.5011 82.1129 79.1981 82.2506C78.8232 82.4209 76.4181 81.7687 72.0476 80.3113C70.5252 79.8036 69.2635 79.3877 69.2441 79.3867C69.2246 79.3858 69.2086 79.484 69.2086 79.6047C69.2086 79.7255 69.4404 79.9209 69.7236 80.0389C70.5409 80.3796 77.5686 82.5879 78.4783 82.7899C79.2405 82.9592 79.321 82.9527 79.5615 82.701C79.8115 82.4391 83.5817 74.1356 83.4914 74.0456C83.467 74.0212 83.124 74.6871 82.7291 75.5252ZM69.0703 76.7469C68.8076 78.0944 68.6368 79.3121 68.6909 79.4528C68.8551 79.8795 68.9846 79.5624 69.0837 78.4915C69.1353 77.9319 69.2854 76.7832 69.4171 75.9393C69.5487 75.0954 69.6322 74.3804 69.6024 74.3508C69.5725 74.3211 69.3332 75.3993 69.0703 76.7469ZM60.2769 76.2114C60.2837 76.3764 60.3174 76.4099 60.3626 76.2971C60.4037 76.1949 60.3986 76.0727 60.3514 76.0257C60.3043 75.9787 60.2708 76.0622 60.2769 76.2114ZM60.4076 76.5747C60.4076 76.6925 61.3478 80.7528 62.0391 83.6201C63.0146 87.6665 63.0512 87.5961 59.4258 88.6533C56.2604 89.5763 53.2272 90.2865 52.4523 90.2859C51.9339 90.2856 51.5269 90.1938 51.222 90.0083C50.5103 89.5755 50.4367 89.3859 48.8983 84.0195C48.7248 83.4147 48.5618 82.941 48.5361 82.9667C48.4274 83.0752 50.2811 89.9801 50.5144 90.3349C50.8488 90.844 51.3865 91.0357 52.1745 90.927C54.9296 90.5464 62.0421 88.5513 62.6397 87.9914C63.0821 87.5769 63.1771 86.8894 62.9247 85.9292C62.8075 85.4835 62.2192 83.2077 61.6175 80.8717C60.67 77.194 60.4076 76.2621 60.4076 76.5747ZM40.0662 77.7757C40.0116 77.8303 39.9667 78.0873 39.9667 78.347C39.9667 78.7697 39.9253 78.8188 39.568 78.8188C38.6021 78.8188 38.4271 79.617 39.3756 79.6959C39.8668 79.7367 39.8983 79.7692 39.9403 80.2786C39.9786 80.742 40.0288 80.8119 40.2952 80.7741C40.5405 80.7393 40.6146 80.6205 40.6491 80.2073C40.69 79.7163 40.7245 79.6817 41.2157 79.641C42.1139 79.5664 41.9872 78.8262 41.0754 78.821C40.7374 78.8191 40.6885 78.7582 40.6495 78.2891C40.6075 77.7838 40.3156 77.5269 40.0662 77.7757ZM74.1769 83.8289C74.1769 83.942 76.4844 84.626 76.8103 84.6094C76.9624 84.6018 76.6397 84.45 76.0932 84.2722C74.9312 83.8942 74.1769 83.7198 74.1769 83.8289ZM86.9524 86.5952C86.9524 86.9842 86.9074 87.0302 86.5266 87.0302C86.1954 87.0302 86.1007 87.0931 86.1007 87.3134C86.1007 87.5337 86.1954 87.5966 86.5266 87.5966C86.9074 87.5966 86.9524 87.6426 86.9524 88.0316C86.9524 88.3696 87.0079 88.4563 87.2008 88.4198C87.3489 88.3918 87.467 88.2195 87.4934 87.9932C87.5273 87.7008 87.6247 87.6036 87.918 87.5698C88.1448 87.5435 88.3176 87.4257 88.3457 87.278C88.382 87.0866 88.2957 87.0302 87.966 87.0302C87.6061 87.0302 87.532 86.9692 87.4941 86.6422C87.4671 86.408 87.3506 86.2353 87.2008 86.207C87.0079 86.1705 86.9524 86.2572 86.9524 86.5952ZM37.1277 87.9222C37.1277 88.0234 37.2044 88.1827 37.298 88.2761C37.4305 88.4082 37.4305 88.4838 37.298 88.6159C37.1173 88.7961 37.0623 89.2955 37.223 89.2955C37.2753 89.2955 37.435 89.19 37.5778 89.0612C37.8199 88.8427 37.8569 88.8444 38.1248 89.0861C38.3459 89.2858 38.4505 89.3069 38.58 89.1778C38.7093 89.0488 38.6946 88.957 38.5157 88.7786C38.3055 88.5689 38.3042 88.5155 38.5016 88.2148C38.6994 87.9138 38.6982 87.8743 38.4899 87.7945C38.3632 87.7461 38.162 87.7874 38.0426 87.8862C37.8781 88.0223 37.7855 88.0261 37.6612 87.9021C37.4406 87.6821 37.1277 87.694 37.1277 87.9222ZM55.5103 92.6177C53.6379 93.0522 53.0302 93.2313 53.3811 93.2456C53.7242 93.2595 56.5027 92.6344 57.0008 92.4312C57.5751 92.1971 57.0289 92.2653 55.5103 92.6177Z" fill="black"/>
<path d="M69.613 73.9657L83.2115 73.9654L79.4044 82.6665L69.0688 79.4035L69.613 73.9657Z" fill="#C2E3EA"/>
<path d="M46.228 74.5087L60.3678 76.1404L63.0871 87.5605L51.1228 90.8245L46.228 74.5087Z" fill="#C2E3EA"/>
<path opacity="0.3" d="M83.2107 73.9652H69.6143C70.702 68.5266 72.7686 58.302 72.3336 60.9125C74.0739 62.6529 83.2107 64.9008 87.5616 65.8073L83.2107 73.9652Z" fill="#D9D9D9"/>
</svg>
