<svg width="29" height="28" viewBox="0 0 29 28" fill="none" xmlns="http://www.w3.org/2000/svg">
<path d="M26.537 7.00008C25.6387 7.40841 24.6704 7.67675 23.667 7.80508C24.6937 7.18675 25.487 6.20675 25.8604 5.02841C24.892 5.61175 23.8187 6.02008 22.687 6.25341C21.7654 5.25008 20.4704 4.66675 19.0004 4.66675C16.2587 4.66675 14.0187 6.90675 14.0187 9.67175C14.0187 10.0684 14.0654 10.4534 14.147 10.8151C9.9937 10.6051 6.29537 8.61008 3.8337 5.58841C3.40204 6.32341 3.15704 7.18675 3.15704 8.09675C3.15704 9.83508 4.03204 11.3751 5.38537 12.2501C4.55704 12.2501 3.78704 12.0167 3.11037 11.6667C3.11037 11.6667 3.11037 11.6667 3.11037 11.7017C3.11037 14.1284 4.83704 16.1584 7.1237 16.6134C6.7037 16.7301 6.26037 16.7884 5.80537 16.7884C5.49037 16.7884 5.17537 16.7534 4.87204 16.6951C5.50204 18.6667 7.3337 20.1368 9.5387 20.1718C7.83537 21.5251 5.67704 22.3184 3.32037 22.3184C2.9237 22.3184 2.52704 22.2951 2.13037 22.2484C4.34704 23.6717 6.9837 24.5001 9.80704 24.5001C19.0004 24.5001 24.052 16.8701 24.052 10.2551C24.052 10.0334 24.052 9.82341 24.0404 9.60175C25.0204 8.90175 25.8604 8.01508 26.537 7.00008Z" fill="#BD3C2A"/>
</svg>
