<svg width="29" height="28" viewBox="0 0 29 28" fill="none" xmlns="http://www.w3.org/2000/svg">
<path d="M26.5365 6.99984C25.6382 7.40817 24.6699 7.6765 23.6665 7.80484C24.6932 7.1865 25.4865 6.2065 25.8599 5.02817C24.8915 5.6115 23.8182 6.01984 22.6865 6.25317C21.7649 5.24984 20.4699 4.6665 18.9999 4.6665C16.2582 4.6665 14.0182 6.9065 14.0182 9.6715C14.0182 10.0682 14.0649 10.4532 14.1465 10.8148C9.99322 10.6048 6.29488 8.60984 3.83322 5.58817C3.40155 6.32317 3.15655 7.1865 3.15655 8.0965C3.15655 9.83484 4.03155 11.3748 5.38488 12.2498C4.55655 12.2498 3.78655 12.0165 3.10988 11.6665C3.10988 11.6665 3.10988 11.6665 3.10988 11.7015C3.10988 14.1282 4.83655 16.1582 7.12322 16.6132C6.70322 16.7298 6.25988 16.7882 5.80488 16.7882C5.48988 16.7882 5.17488 16.7532 4.87155 16.6948C5.50155 18.6665 7.33322 20.1365 9.53822 20.1715C7.83488 21.5248 5.67655 22.3182 3.31988 22.3182C2.92322 22.3182 2.52655 22.2948 2.12988 22.2482C4.34655 23.6715 6.98322 24.4998 9.80655 24.4998C18.9999 24.4998 24.0515 16.8698 24.0515 10.2548C24.0515 10.0332 24.0515 9.82317 24.0399 9.6015C25.0199 8.9015 25.8599 8.01484 26.5365 6.99984Z" fill="white"/>
</svg>
