<svg width="64" height="64" viewBox="0 0 64 64" fill="none" xmlns="http://www.w3.org/2000/svg">
<g clip-path="url(#clip0_1000_1969)">
<path d="M54.5756 9.30052C48.5857 3.30648 40.6209 0.0036571 32.135 0C14.6484 0 0.417873 14.226 0.410872 31.7118C0.408835 37.3012 1.86927 42.7572 4.64516 47.5666L0.144531 64L16.9618 59.5903C21.5953 62.1172 26.8123 63.4488 32.1213 63.4509H32.1348H32.135C49.6187 63.4509 63.8514 49.2224 63.8588 31.7375C63.8617 23.263 60.5647 15.295 54.5756 9.30052ZM32.135 58.0947H32.1247C27.3925 58.0922 22.752 56.8217 18.7043 54.4199L17.741 53.8488L7.76127 56.4654L10.4257 46.7388L9.79811 45.7416C7.15847 41.5445 5.76496 36.6942 5.76695 31.7138C5.77275 17.1802 17.6006 5.35644 32.1449 5.35644C39.1881 5.35937 45.8078 8.1047 50.7864 13.0868C55.7647 18.0688 58.5043 24.6917 58.5023 31.7352C58.4961 46.2693 46.6678 58.0947 32.135 58.0947Z" fill="#E0E0E0"/>
<path d="M1.59766 62.1757L5.89271 46.4931C3.24293 41.9033 1.84947 36.6961 1.85115 31.363C1.85809 14.6763 15.4387 1.10059 32.125 1.10059C40.2237 1.10424 47.8249 4.25603 53.5398 9.97641C59.2561 15.6967 62.4022 23.3003 62.3989 31.3867C62.3919 48.0738 48.8105 61.6508 32.1262 61.6508C32.125 61.6508 32.1271 61.6508 32.1262 61.6508H32.1128C27.0463 61.6492 22.068 60.3773 17.6465 57.9676L1.59766 62.1757Z" fill="url(#paint0_linear_1000_1969)"/>
<path fill-rule="evenodd" clip-rule="evenodd" d="M24.2923 18.2482C23.7054 16.9433 23.0875 16.9172 22.5291 16.8944C22.0724 16.8748 21.5495 16.876 21.0275 16.876C20.505 16.876 19.6561 17.0723 18.9381 17.8564C18.2198 18.6405 16.1953 20.536 16.1953 24.391C16.1953 28.2465 19.0034 31.9717 19.3949 32.495C19.7867 33.0174 24.8156 41.1814 32.78 44.3222C39.3991 46.9323 40.746 46.4131 42.1827 46.2825C43.6195 46.1519 46.8186 44.3875 47.4716 42.5577C48.1247 40.7283 48.1247 39.1602 47.9288 38.8324C47.7328 38.5059 47.2104 38.31 46.4267 37.9181C45.6431 37.5263 41.7909 35.6304 41.0725 35.3692C40.3542 35.108 39.8317 34.9774 39.3093 35.7619C38.7869 36.5455 37.286 38.31 36.8289 38.8324C36.3718 39.356 35.9146 39.4214 35.131 39.0295C34.3473 38.6365 31.8236 37.8099 28.8298 35.1406C26.5005 33.0639 24.9278 30.499 24.4707 29.7145C24.0136 28.9309 24.4217 28.5064 24.8148 28.1158C25.1666 27.7647 25.5984 27.2011 25.9903 26.7435C26.3813 26.286 26.5119 25.9594 26.7731 25.437C27.0343 24.9137 26.9037 24.4562 26.7078 24.0644C26.5119 23.6725 24.9891 19.7976 24.2923 18.2482Z" fill="white"/>
<path d="M54.314 9.19964C48.3929 3.27441 40.5195 0.00956871 32.1311 0.00585938C14.8452 0.00585938 0.77802 14.0685 0.771071 31.3536C0.769034 36.8789 2.2127 42.2723 4.95672 47.0265L0.507812 63.2712L17.1321 58.912C21.7124 61.4099 26.8695 62.7262 32.1176 62.7283H32.1309H32.1311C49.4141 62.7283 63.4833 48.6631 63.4907 31.3789C63.4935 23.0019 60.2344 15.1253 54.314 9.19964ZM32.1311 57.4337H32.1209C27.443 57.4312 22.8557 56.1753 18.8545 53.8011L17.9023 53.2366L8.03709 55.8231L10.6709 46.2081L10.0505 45.2224C7.4412 41.0735 6.06367 36.2789 6.06571 31.3557C6.0714 16.9889 17.7635 5.30092 32.1409 5.30092C39.1033 5.30379 45.6469 8.01762 50.5684 12.9425C55.4896 17.8673 58.1977 24.4141 58.1957 31.3769C58.1895 45.7441 46.497 57.4337 32.1311 57.4337Z" fill="white"/>
</g>
<defs>
<linearGradient id="paint0_linear_1000_1969" x1="31.9983" y1="62.1757" x2="31.9983" y2="1.10069" gradientUnits="userSpaceOnUse">
<stop stop-color="#20B038"/>
<stop offset="1" stop-color="#60D66A"/>
</linearGradient>
<clipPath id="clip0_1000_1969">
<rect width="64" height="64" fill="white"/>
</clipPath>
</defs>
</svg>
