<svg width="28" height="28" viewBox="0 0 28 28" fill="none" xmlns="http://www.w3.org/2000/svg">
<path d="M11.6668 17.4999L17.7218 13.9999L11.6668 10.4999V17.4999ZM25.1535 8.36492C25.3052 8.91325 25.4102 9.64825 25.4802 10.5816C25.5618 11.5149 25.5968 12.3199 25.5968 13.0199L25.6668 13.9999C25.6668 16.5549 25.4802 18.4333 25.1535 19.6349C24.8618 20.6849 24.1852 21.3616 23.1352 21.6533C22.5868 21.8049 21.5835 21.9099 20.0435 21.9799C18.5268 22.0616 17.1385 22.0966 15.8552 22.0966L14.0002 22.1666C9.11183 22.1666 6.06683 21.9799 4.86516 21.6533C3.81516 21.3616 3.1385 20.6849 2.84683 19.6349C2.69516 19.0866 2.59016 18.3516 2.52016 17.4183C2.4385 16.4849 2.4035 15.6799 2.4035 14.9799L2.3335 13.9999C2.3335 11.4449 2.52016 9.56659 2.84683 8.36492C3.1385 7.31492 3.81516 6.63825 4.86516 6.34659C5.4135 6.19492 6.41683 6.08992 7.95683 6.01992C9.4735 5.93825 10.8618 5.90325 12.1452 5.90325L14.0002 5.83325C18.8885 5.83325 21.9335 6.01992 23.1352 6.34659C24.1852 6.63825 24.8618 7.31492 25.1535 8.36492Z" fill="#BD3C2A"/>
</svg>
