<svg width="28" height="28" viewBox="0 0 28 28" fill="none" xmlns="http://www.w3.org/2000/svg">
<path d="M11.6663 17.5002L17.7213 14.0002L11.6663 10.5002V17.5002ZM25.153 8.36516C25.3047 8.9135 25.4097 9.6485 25.4797 10.5818C25.5613 11.5152 25.5963 12.3202 25.5963 13.0202L25.6663 14.0002C25.6663 16.5552 25.4797 18.4335 25.153 19.6352C24.8613 20.6852 24.1847 21.3618 23.1347 21.6535C22.5863 21.8052 21.583 21.9102 20.043 21.9802C18.5263 22.0618 17.138 22.0968 15.8547 22.0968L13.9997 22.1668C9.11134 22.1668 6.06634 21.9802 4.86467 21.6535C3.81467 21.3618 3.13801 20.6852 2.84634 19.6352C2.69467 19.0868 2.58967 18.3518 2.51967 17.4185C2.43801 16.4852 2.40301 15.6802 2.40301 14.9802L2.33301 14.0002C2.33301 11.4452 2.51967 9.56683 2.84634 8.36516C3.13801 7.31516 3.81467 6.6385 4.86467 6.34683C5.41301 6.19516 6.41634 6.09016 7.95634 6.02016C9.47301 5.9385 10.8613 5.9035 12.1447 5.9035L13.9997 5.8335C18.888 5.8335 21.933 6.02016 23.1347 6.34683C24.1847 6.6385 24.8613 7.31516 25.153 8.36516Z" fill="white"/>
</svg>
